<?xml version="1.0" encoding="UTF-8"?>
<svg xmlns="http://www.w3.org/2000/svg" viewBox="0 0 35.1 28.3" xml:space="preserve">
<style type="text/css">
	.st0{fill:none;}
	.st1{fill:#FFFFFF;}
</style>
<g id="Raggruppa_69" transform="translate(1101.374 -426.816)">
	<path class="st0" d="M-1083.2,427c1.5,0.1,2.5,0.3,5,1.1l2.5,10.9l-7.5,7.4v-0.9l6.7-6.7l-2.3-10.2c-2-0.6-2.8-0.8-3.8-0.9   l-1.9,18.7l-7.4-7.4l2.5-10.9c2.4-0.8,3.3-1,5-1.1l0,0.7c-1.5,0.1-2.1,0.2-4.4,0.9l-2.3,10.2l6.2,6.1L-1083.2,427z"></path>
	<path class="st1" d="M-1084.4,427c-1.6,0.1-2.6,0.3-5,1.1l-2.5,10.9l7.4,7.4l1.9-18.7c1,0.1,1.8,0.3,3.8,0.9l2.3,10.2l-6.7,6.7v0.9   l7.5-7.4l-2.5-10.9c-2.4-0.8-3.5-1-5-1.1l-1.8,17.9l-6.2-6.1l2.3-10.2c2.3-0.7,2.9-0.8,4.4-0.9L-1084.4,427 M-1084.3,426.8l0,0.2   l0,0.7l0,0.2l-0.2,0c-1.5,0.1-2.1,0.2-4.3,0.9l-2.3,10l5.8,5.8l1.8-17.6l0-0.2l0.2,0c0.8,0.1,1.5,0.1,2.2,0.3   c0.8,0.2,1.6,0.4,2.9,0.8l0.1,0l0,0.1l2.5,10.9l0,0.1l-0.1,0.1l-7.5,7.4l-0.3,0.3v-0.4v-0.9v-0.1l0.1-0.1l6.7-6.6l-2.3-10   c-1.9-0.6-2.6-0.7-3.5-0.8l-1.9,18.5l0,0.4l-0.3-0.3l-7.4-7.4l-0.1-0.1l0-0.1l2.5-10.9l0-0.1l0.1,0c2.4-0.8,3.4-1,5-1.1   L-1084.3,426.8z"></path>
	<g id="Tracciato_278">
		<path class="st1" d="M-1083.8,438.6C-1083.8,438.6-1083.8,438.6-1083.8,438.6c-0.8,0-1.4-0.6-1.4-1.4v-3.9c0-0.4,0.1-0.7,0.4-1    s0.6-0.4,1-0.4l0,0c0,0,0,0,0,0s0,0,0,0l0,0c0.8,0,1.4,0.6,1.4,1.4v3.9c0,0.4-0.1,0.7-0.4,1    C-1083.1,438.5-1083.5,438.6-1083.8,438.6z M-1083.8,432.2c-0.3,0-0.6,0.1-0.8,0.4s-0.4,0.5-0.4,0.8v3.9c0,0.7,0.5,1.2,1.2,1.2    c0,0,0,0,0,0c0.3,0,0.6-0.1,0.8-0.3c0.2-0.2,0.4-0.5,0.4-0.8v-3.9C-1082.6,432.7-1083.2,432.2-1083.8,432.2L-1083.8,432.2z"></path>
	</g>
	<path class="st0" d="M-1101.2,453.6l2.1,1.3v-0.5l-1.6-0.9l1.6-0.9V452l-2.1,1.2V453.6z"></path>
	<path class="st1" d="M-1099.1,454.8v-0.5l-1.6-0.9l1.6-0.9V452l-2.1,1.2v0.3L-1099.1,454.8 M-1098.9,455.1l-0.3-0.2l-2.1-1.3   l-0.1-0.1v-0.1v-0.3v-0.1l0.1-0.1l2.1-1.2l0.3-0.2v0.3v0.5v0.1l-0.1,0.1l-1.3,0.8l1.3,0.8l0.1,0.1v0.1v0.5V455.1z"></path>
	<path class="st0" d="M-1068.6,452.1v0.5l1.6,0.9l-1.6,0.9v0.5l2.1-1.3v-0.3L-1068.6,452.1z"></path>
	<path class="st1" d="M-1068.6,452.1v0.5l1.6,0.9l-1.6,0.9v0.5l2.1-1.3v-0.3L-1068.6,452.1 M-1068.8,451.8l0.3,0.2l2.1,1.2l0.1,0.1   v0.1v0.3v0.1l-0.1,0.1l-2.1,1.3l-0.3,0.2v-0.3v-0.5v-0.1l0.1-0.1l1.3-0.8l-1.3-0.8l-0.1-0.1v-0.1v-0.5V451.8z"></path>
	<g id="Tracciato_281">
		<path class="st1" d="M-1096.8,455c-0.4,0-0.8-0.2-1.1-0.5l0,0c-0.3-0.3-0.5-0.7-0.5-1.1c0-0.4,0.2-0.8,0.5-1.1    c0.3-0.3,0.7-0.5,1.1-0.5c0.3,0,0.5,0.1,0.8,0.2c0.1,0,0.1,0.1,0.2,0.1v-2.1h0.6v4.8h-0.6v-0.3c-0.1,0.1-0.1,0.1-0.2,0.1    C-1096.3,455-1096.5,455-1096.8,455z M-1096.8,452c-0.4,0-0.7,0.1-1,0.4c-0.3,0.3-0.4,0.6-0.4,1c0,0.4,0.1,0.7,0.4,1l0,0    c0.3,0.3,0.6,0.4,1,0.4c0.2,0,0.4-0.1,0.7-0.2c0.1-0.1,0.2-0.2,0.3-0.3l0.2-0.2v0.6h0.2v-4.5h-0.2v2.3l-0.2-0.2    c-0.1-0.1-0.2-0.2-0.3-0.2C-1096.3,452.1-1096.5,452-1096.8,452z M-1096.8,454.7c-0.3,0-0.6-0.1-0.8-0.4c-0.5-0.5-0.5-1.2,0-1.7    c0.2-0.3,0.5-0.4,0.8-0.4c0.3,0,0.6,0.1,0.8,0.4c0.2,0.2,0.4,0.5,0.4,0.8c0,0.3-0.1,0.6-0.4,0.8    C-1096.2,454.5-1096.5,454.7-1096.8,454.7z M-1096.8,452.4c-0.3,0-0.5,0.1-0.7,0.3c-0.4,0.4-0.4,1,0,1.4l0,0    c0.2,0.2,0.5,0.3,0.7,0.3c0.3,0,0.5-0.1,0.7-0.3c0.2-0.2,0.3-0.4,0.3-0.7c0-0.3-0.1-0.5-0.3-0.7    C-1096.3,452.5-1096.5,452.4-1096.8,452.4z"></path>
	</g>
	<g id="Tracciato_282">
		<path class="st1" d="M-1092.9,455c-0.2,0-0.3,0-0.5-0.1c-0.7-0.2-1.1-0.8-1.1-1.5c0-0.7,0.4-1.3,1.1-1.5c0.7-0.2,1.3,0,1.8,0.6    l0,0.1l-1.8,1.8c0.3,0.2,0.6,0.2,1,0c0,0,0,0,0,0c0.3-0.1,0.4-0.4,0.6-0.7l0.2-0.3l0,1l0,0C-1092,454.8-1092.4,455-1092.9,455z     M-1093,452c-0.1,0-0.3,0-0.4,0.1c-0.5,0.2-1,0.6-1,1.3c0,0.6,0.4,1.2,1,1.4c0.6,0.2,1.2,0,1.6-0.5l0-0.3    c-0.2,0.2-0.3,0.4-0.5,0.5c0,0,0,0,0,0c-0.4,0.2-0.9,0.2-1.3-0.1l-0.1-0.1l1.8-1.8C-1092.2,452.2-1092.6,452-1093,452z     M-1093.8,454.2L-1093.8,454.2c-0.5-0.6-0.3-1.3,0.1-1.6c0.4-0.4,1-0.5,1.5-0.1l0.1,0.1L-1093.8,454.2z M-1092.9,452.4    c-0.3,0-0.5,0.1-0.7,0.3c-0.3,0.3-0.5,0.8-0.2,1.2l1.4-1.4C-1092.6,452.4-1092.8,452.4-1092.9,452.4z"></path>
	</g>
	<g id="Tracciato_283">
		<path class="st1" d="M-1084.5,455c-0.2,0-0.3,0-0.5-0.1c-0.7-0.2-1.1-0.8-1.1-1.5c0-0.7,0.4-1.3,1.1-1.5c0.7-0.2,1.3,0,1.8,0.6    l0,0.1l-1.8,1.8c0.3,0.2,0.6,0.2,1,0c0,0,0,0,0,0c0.3-0.1,0.4-0.4,0.6-0.7l0.2-0.3l0,1l0,0C-1083.5,454.8-1084,455-1084.5,455z     M-1084.5,452c-0.1,0-0.3,0-0.4,0.1c-0.5,0.2-1,0.6-1,1.3c0,0.6,0.4,1.2,1,1.4c0.6,0.2,1.2,0,1.6-0.5l0-0.3    c-0.2,0.2-0.3,0.4-0.5,0.5c-0.4,0.2-0.9,0.2-1.3-0.1l-0.1-0.1l1.8-1.8C-1083.7,452.2-1084.1,452-1084.5,452z M-1085.4,454.2    L-1085.4,454.2c-0.5-0.6-0.3-1.3,0.1-1.6c0.4-0.4,1-0.5,1.5-0.1l0.1,0.1L-1085.4,454.2z M-1084.5,452.4c-0.3,0-0.5,0.1-0.7,0.3    c-0.3,0.3-0.5,0.8-0.2,1.2l1.4-1.4C-1084.2,452.4-1084.3,452.4-1084.5,452.4z"></path>
	</g>
	<g id="Tracciato_284">
		<path class="st1" d="M-1074,455c-0.2,0-0.3,0-0.5-0.1c-0.7-0.2-1.1-0.8-1.1-1.5c0-0.7,0.4-1.3,1.1-1.5c0.7-0.2,1.3,0,1.8,0.6    l0,0.1l-1.8,1.8c0.3,0.2,0.6,0.2,1,0c0,0,0,0,0,0c0.3-0.1,0.4-0.4,0.6-0.7l0.2-0.3l0,1l0,0C-1073,454.8-1073.5,455-1074,455z     M-1074,452c-0.1,0-0.3,0-0.4,0.1c-0.5,0.2-1,0.6-1,1.3c0,0.6,0.4,1.2,1,1.4c0.6,0.2,1.2,0,1.6-0.5l0-0.3    c-0.2,0.2-0.3,0.4-0.5,0.5c0,0,0,0,0,0c-0.4,0.2-0.9,0.2-1.3-0.1l-0.1-0.1l1.8-1.8C-1073.3,452.2-1073.7,452-1074,452z     M-1074.9,454.2L-1074.9,454.2c-0.5-0.6-0.3-1.3,0.1-1.6c0.4-0.4,1-0.5,1.5-0.1l0.1,0.1L-1074.9,454.2z M-1074,452.4    c-0.3,0-0.5,0.1-0.7,0.3c-0.3,0.3-0.5,0.8-0.2,1.2l1.4-1.4C-1073.7,452.4-1073.9,452.4-1074,452.4z"></path>
	</g>
	<g id="Tracciato_285">
		<path class="st1" d="M-1088.2,455h-0.6v-1.8c0-0.2-0.1-0.4-0.2-0.6c-0.1-0.2-0.3-0.2-0.5-0.2c-0.2,0-0.4,0.1-0.6,0.2    c-0.2,0.1-0.3,0.4-0.3,0.6v1.8h-0.6v-3.1h0.6v0.2c0.2-0.2,0.5-0.2,0.8-0.2c0,0,0,0,0,0c0.4,0,0.7,0.1,1,0.4c0.3,0.3,0.4,0.6,0.4,1    V455z M-1088.6,454.8h0.2v-1.6c0-0.3-0.1-0.6-0.3-0.8c-0.2-0.2-0.5-0.4-0.8-0.3c0,0,0,0,0,0c-0.4,0-0.6,0.1-0.8,0.3l-0.2,0.2v-0.4    h-0.2v2.7h0.2v-1.6c0-0.3,0.1-0.5,0.3-0.7c0.2-0.2,0.4-0.3,0.7-0.3c0,0,0,0,0,0c0.3,0,0.5,0.1,0.7,0.3c0.2,0.2,0.3,0.4,0.3,0.7    V454.8z"></path>
	</g>
	<g id="Tracciato_286">
		<path class="st1" d="M-1069.3,455h-0.6v-1.8c0-0.2-0.1-0.4-0.2-0.6c-0.1-0.2-0.3-0.2-0.5-0.2c0,0,0,0,0,0c-0.2,0-0.4,0.1-0.6,0.2    c-0.2,0.1-0.3,0.4-0.3,0.6v1.8h-0.6v-3.1h0.6v0.2c0.2-0.2,0.5-0.2,0.8-0.2c0,0,0,0,0,0c0.4,0,0.7,0.1,1,0.4c0.3,0.3,0.4,0.6,0.4,1    V455z M-1069.7,454.8h0.2v-1.6c0-0.3-0.1-0.6-0.3-0.8c-0.2-0.2-0.5-0.4-0.8-0.3c0,0,0,0,0,0c-0.4,0-0.6,0.1-0.8,0.3l-0.2,0.2v-0.4    h-0.2v2.7h0.2v-1.6c0-0.3,0.1-0.5,0.3-0.7c0.2-0.2,0.4-0.3,0.7-0.3c0,0,0,0,0,0c0.3,0,0.5,0.1,0.7,0.3c0.2,0.2,0.3,0.4,0.3,0.7    V454.8z"></path>
	</g>
	<g id="Tracciato_287">
		<path class="st1" d="M-1087.2,451.6c-0.2,0-0.4-0.1-0.4-0.4c0-0.2,0.1-0.4,0.4-0.4c0.2,0,0.4,0.1,0.4,0.4    C-1086.8,451.5-1086.9,451.6-1087.2,451.6z M-1087.2,451.1c-0.1,0-0.2,0.1-0.2,0.2c0,0.1,0.1,0.2,0.2,0.2c0.1,0,0.2-0.1,0.2-0.2    C-1087,451.2-1087,451.1-1087.2,451.1z"></path>
	</g>
	<g id="Rettangolo_25" transform="translate(-866.069 849.25)">
		<rect x="-221.3" y="-397.3" class="st0" width="0.4" height="2.9"></rect>
		<g>
			<path class="st1" d="M-220.7-394.2h-0.8v-3.3h0.8V-394.2z M-221.3-394.3h0.4v-2.9h-0.4V-394.3z"></path>
		</g>
	</g>
	<path class="st0" d="M-1079.4,450.3l-3.4,4.6h0.5l3.5-4.6H-1079.4z"></path>
	<path class="st1" d="M-1079.4,450.3l-3.4,4.6h0.5l3.5-4.6H-1079.4 M-1079.5,450.1L-1079.5,450.1h0.6h0.4l-0.2,0.3l-3.5,4.6   l-0.1,0.1h-0.1h-0.5h-0.4l0.2-0.3L-1079.5,450.1L-1079.5,450.1z"></path>
	<g id="Tracciato_289">
		<path class="st1" d="M-1077.8,455c-0.4,0-0.8-0.2-1.1-0.5l0,0c-0.6-0.6-0.6-1.6,0-2.2c0.3-0.3,0.7-0.5,1.1-0.5    c0.3,0,0.5,0.1,0.8,0.2c0.1,0,0.1,0.1,0.2,0.1v-2.1h0.6v4.8h-0.6v-0.3c-0.1,0.1-0.1,0.1-0.2,0.1    C-1077.4,455-1077.6,455-1077.8,455z M-1077.8,452c-0.4,0-0.7,0.1-1,0.4c-0.5,0.5-0.6,1.4,0,2l0,0c0.3,0.3,0.6,0.4,1,0.4    c0.2,0,0.4-0.1,0.7-0.2c0.1-0.1,0.2-0.2,0.3-0.3l0.2-0.2v0.6h0.2v-4.5h-0.2v2.3l-0.2-0.2c-0.1-0.1-0.2-0.2-0.3-0.2    C-1077.4,452.1-1077.6,452-1077.8,452z M-1077.9,454.7c-0.3,0-0.6-0.1-0.8-0.4c-0.5-0.5-0.5-1.2,0-1.7c0.2-0.3,0.5-0.4,0.8-0.4    c0.3,0,0.6,0.1,0.8,0.4c0.2,0.2,0.4,0.5,0.4,0.8c0,0.3-0.1,0.6-0.4,0.8C-1077.3,454.5-1077.5,454.7-1077.9,454.7z M-1077.9,452.4    c-0.3,0-0.5,0.1-0.7,0.3c-0.4,0.4-0.4,1,0,1.4l0,0c0.2,0.2,0.5,0.3,0.7,0.3c0.3,0,0.5-0.1,0.7-0.3c0.2-0.2,0.3-0.4,0.3-0.7    c0-0.3-0.1-0.5-0.3-0.7C-1077.4,452.5-1077.6,452.4-1077.9,452.4z"></path>
	</g>
</g>
</svg>