<?xml version="1.0" encoding="UTF-8"?>
<svg xmlns="http://www.w3.org/2000/svg" viewBox="0 0 160.8 28.3" xml:space="preserve">
<style type="text/css">
	.st0{fill:#FF9200;}
	.st1{fill:#890052;}
	.st2{fill:#890052;stroke:#890052;stroke-width:2;}
	.st3{fill:#890052;stroke:#890052;stroke-width:2;stroke-miterlimit:10;}
</style>
<g id="Raggruppa_122" transform="translate(-81.28 -532)">
	<path id="Tracciato_411" class="st0" d="M113.9,539.2h-3.2V536h-0.9v3.2h-3.2v0.9h3.2v3.2h0.9v-3.2h3.2L113.9,539.2z"></path>
	<path id="Tracciato_410" class="st0" d="M155.2,539.2H152V536H151v3.2h-3.2v0.9h3.2v3.2h0.9v-3.2h3.2L155.2,539.2z"></path>
	<path id="Tracciato_419" class="st0" d="M204.7,539.2h-3.2V536h-0.9v3.2h-3.2v0.9h3.2v3.2h0.9v-3.2h3.2L204.7,539.2z"></path>
	<g id="Raggruppa_116" transform="translate(0 37)">
		<g id="Raggruppa_110" transform="translate(100 512)">
			<path id="Tracciato_420" class="st1" d="M-5.6-12c-0.2-1.6-0.4-3-0.6-4.2c-1.2-0.4-2.4-0.6-3.6-0.7l0,0h0v1.7l0,0v0     c0.4,0.1,0.7,0.4,0.9,0.7c0.1,0.2,0.2,0.4,0.2,0.6v3c0,0,0,0,0,0c-0.1,0.5-0.4,0.9-0.9,1.1c0,0-0.1,0-0.1,0h-0.7c0,0-0.1,0-0.1,0     c-0.5-0.2-0.8-0.6-0.9-1.1c0,0,0,0,0,0v-3c0-0.2,0.1-0.4,0.2-0.6c0.2-0.3,0.5-0.6,0.9-0.7v0c0,0,0,0,0,0V-17h0l0,0     c-1.2,0.1-2.4,0.3-3.6,0.7c0,0.2-0.1,0.5-0.1,0.7C-15-13-15.4-7.8-15.4-7c0,3.4,2.3,5.5,5.2,5.5S-5-3.7-5-7     C-5-7.5-5.3-9.8-5.6-12"></path>
			<path id="Tracciato_421" class="st1" d="M-11.1-13.8v2.7c0,0.5,0.4,0.9,0.9,0.9s0.9-0.4,0.9-0.9v-2.7c0-0.5-0.4-0.9-0.9-0.9     S-11.1-14.3-11.1-13.8"></path>
		</g>
		<path id="Tracciato_548" d="M83.4,519.6c0.1-0.2,0.2-0.4,0.4-0.5c0.2-0.1,0.4-0.2,0.7-0.2c0.3,0,0.5,0.1,0.7,0.3    c0.2,0.2,0.3,0.5,0.3,0.8v2h-0.2v-2c0-0.2-0.1-0.5-0.3-0.6c-0.2-0.2-0.4-0.3-0.6-0.3c-0.2,0-0.5,0.1-0.6,0.3    c-0.2,0.2-0.3,0.4-0.3,0.6v2h-0.2v-2c0-0.2-0.1-0.5-0.3-0.6c-0.2-0.2-0.4-0.3-0.6-0.3c-0.2,0-0.5,0.1-0.6,0.3    c-0.2,0.2-0.3,0.4-0.3,0.6v2h-0.2v-3h0.2v0.4c0.1-0.1,0.2-0.3,0.4-0.3c0.2-0.1,0.4-0.1,0.5-0.1c0.2,0,0.4,0.1,0.5,0.2    C83.2,519.3,83.3,519.4,83.4,519.6z M87.7,522.1c-0.4,0-0.8-0.2-1.1-0.5c-0.3-0.3-0.5-0.7-0.5-1.1c0-0.4,0.2-0.8,0.5-1.1    c0.3-0.3,0.7-0.5,1.1-0.5c0.4,0,0.8,0.2,1.1,0.5c0.3,0.3,0.5,0.7,0.5,1.1c0,0.4-0.2,0.8-0.5,1.1C88.6,521.9,88.2,522.1,87.7,522.1    L87.7,522.1z M89.1,520.5c0-0.4-0.1-0.7-0.4-1c-0.2-0.3-0.6-0.4-1-0.4c-0.4,0-0.7,0.1-1,0.4c-0.3,0.3-0.4,0.6-0.4,1    c0,0.4,0.1,0.7,0.4,1c0.3,0.3,0.6,0.4,1,0.4c0.4,0,0.7-0.1,1-0.4C89,521.2,89.1,520.9,89.1,520.5z M92.5,519h0.2v3h-0.2v-0.6    c-0.2,0.4-0.7,0.7-1.2,0.7c-0.4,0-0.7-0.1-0.9-0.4c-0.2-0.2-0.4-0.6-0.4-0.9V519h0.2v1.7c0,0.3,0.1,0.6,0.3,0.8    c0.2,0.2,0.5,0.3,0.8,0.3c0.3,0,0.6-0.1,0.8-0.3c0.2-0.2,0.4-0.5,0.4-0.8L92.5,519z M94.2,519.1c-0.1,0-0.2,0-0.3,0.1    c-0.1,0.1-0.1,0.2-0.1,0.3c0,0.1,0.1,0.2,0.1,0.3c0.1,0.1,0.2,0.2,0.4,0.3c0.1,0.1,0.3,0.2,0.4,0.2c0.1,0.1,0.3,0.2,0.4,0.3    c0.1,0.1,0.2,0.3,0.1,0.5c0,0.3-0.1,0.5-0.3,0.7c-0.2,0.2-0.5,0.3-0.7,0.3c-0.2,0-0.3,0-0.5-0.1c-0.1-0.1-0.3-0.2-0.3-0.3v-0.3    c0.1,0.3,0.5,0.6,0.8,0.6c0.2,0,0.4-0.1,0.6-0.2c0.1-0.1,0.2-0.3,0.2-0.5c0-0.2,0-0.3-0.1-0.4c-0.1-0.1-0.2-0.2-0.4-0.3    c-0.1-0.1-0.3-0.2-0.4-0.2c-0.1-0.1-0.3-0.2-0.4-0.3c-0.1-0.1-0.2-0.3-0.1-0.4c0-0.2,0.1-0.3,0.2-0.4c0.1-0.1,0.3-0.2,0.5-0.2    c0.2,0,0.4,0.1,0.5,0.2v0.3C94.6,519.2,94.4,519.1,94.2,519.1z M97.4,522.1L97.4,522.1c-0.5,0-0.9-0.2-1.2-0.5    c-0.3-0.3-0.5-0.7-0.5-1.1c0-0.4,0.2-0.8,0.5-1.1c0.3-0.3,0.7-0.5,1.2-0.5c0.5,0,0.9,0.2,1.2,0.5l-2.1,2.1    c0.2,0.2,0.5,0.3,0.8,0.3c0.3,0,0.5-0.1,0.7-0.2c0.2-0.1,0.4-0.3,0.5-0.5v0.3C98.3,521.9,97.9,522.1,97.4,522.1z M97.4,519.1    c-0.4,0-0.7,0.1-0.9,0.4c-0.3,0.2-0.4,0.6-0.4,0.9c0,0.3,0.1,0.7,0.4,0.9l1.9-1.9C98.1,519.3,97.7,519.1,97.4,519.1L97.4,519.1z"></path>
	</g>
	<g id="Raggruppa_115" transform="translate(-11 37)">
		<path id="Tracciato_412" class="st1" d="M146.3,495.4h-9.1c-0.2,2.3-0.5,4.7-1,7.9c3.7,2.3,4.9,6.8,4.9,6.8h0.3V503    c-0.6-0.2-1-0.9-0.7-1.6c0.2-0.6,0.9-1,1.6-0.7c0.6,0.2,1,0.9,0.7,1.6c-0.1,0.3-0.4,0.6-0.7,0.7v7.1h0.3c0,0,1.1-4.5,4.9-6.8    C146.8,499.9,146.5,497.5,146.3,495.4"></path>
		<path id="Tracciato_547" d="M136.8,523.3V519h0.2v0.7c0.1-0.2,0.3-0.5,0.6-0.6c0.2-0.1,0.5-0.2,0.8-0.2c0.4,0,0.8,0.2,1.1,0.5    c0.3,0.3,0.5,0.7,0.5,1.1c0,0.4-0.2,0.8-0.5,1.1c-0.3,0.3-0.7,0.5-1.1,0.5c-0.3,0-0.5-0.1-0.8-0.2c-0.2-0.1-0.4-0.3-0.6-0.6v2.1    H136.8z M137,520.5c0,0.4,0.1,0.7,0.4,1c0.3,0.3,0.6,0.4,1,0.4c0.4,0,0.7-0.1,1-0.4c0.3-0.3,0.4-0.6,0.4-1c0-0.4-0.1-0.7-0.4-1    c-0.2-0.3-0.6-0.4-1-0.4c-0.4,0-0.7,0.1-1,0.4C137.2,519.8,137,520.2,137,520.5z M142.2,522.1L142.2,522.1c-0.5,0-0.9-0.2-1.2-0.5    c-0.3-0.3-0.5-0.7-0.5-1.1c0-0.4,0.2-0.8,0.5-1.1c0.3-0.3,0.7-0.5,1.2-0.5c0.5,0,0.9,0.2,1.2,0.5l-2.1,2.1    c0.2,0.2,0.5,0.3,0.8,0.3c0.3,0,0.5-0.1,0.7-0.2c0.2-0.1,0.4-0.3,0.5-0.5v0.3C143.1,521.9,142.7,522.1,142.2,522.1z M142.2,519.1    c-0.4,0-0.7,0.1-0.9,0.4c-0.3,0.2-0.4,0.6-0.4,0.9c0,0.3,0.1,0.7,0.4,0.9l1.9-1.9C142.8,519.3,142.5,519.1,142.2,519.1    L142.2,519.1z M144.3,522h-0.2v-3h0.2v0.6c0.2-0.4,0.7-0.7,1.2-0.7c0.4,0,0.7,0.1,0.9,0.4c0.2,0.2,0.4,0.6,0.4,0.9v1.7h-0.2v-1.7    c0-0.3-0.1-0.6-0.3-0.8c-0.2-0.2-0.5-0.3-0.8-0.3c-0.3,0-0.6,0.1-0.8,0.3c-0.2,0.2-0.4,0.5-0.3,0.8V522z"></path>
	</g>
	<g id="Raggruppa_114" transform="translate(2 37)">
		<g id="Raggruppa_111" transform="translate(545 515)">
			<path id="Tracciato_413" class="st2" d="M-384-12.6l6-3.5v0.7l-5.2,3.1l5.2,3.1v0.8l-6-3.6V-12.6z"></path>
			<path id="Tracciato_414" class="st3" d="M-384-12.6l6-3.5v0.7l-5.2,3.1l5.2,3.1v0.8l-6-3.6V-12.6z"></path>
			<path id="Tracciato_415" class="st2" d="M-366.4-19.5h0.8L-376.4-5h-0.7L-366.4-19.5z"></path>
			<path id="Tracciato_416" class="st3" d="M-366.4-19.5h0.8L-376.4-5h-0.7L-366.4-19.5z"></path>
			<path id="Tracciato_417" class="st2" d="M-363.7-16.1l6,3.5v0.6l-6,3.6v-0.8l5.2-3.1l-5.2-3.1V-16.1z"></path>
			<path id="Tracciato_418" class="st3" d="M-363.7-16.1l6,3.5v0.6l-6,3.6v-0.8l5.2-3.1l-5.2-3.1V-16.1z"></path>
		</g>
		<path id="Tracciato_546" d="M169,522.1L169,522.1c-0.5,0-0.9-0.2-1.2-0.5c-0.3-0.3-0.5-0.7-0.5-1.1c0-0.4,0.2-0.8,0.5-1.1    c0.3-0.3,0.7-0.5,1.1-0.5c0.4,0,0.9,0.2,1.2,0.5v0.3c-0.1-0.2-0.3-0.4-0.5-0.5c-0.2-0.1-0.4-0.2-0.7-0.2c-0.4,0-0.7,0.1-1,0.4    c-0.3,0.3-0.4,0.6-0.4,1c0,0.4,0.1,0.7,0.4,1c0.3,0.3,0.6,0.4,1,0.4c0.2,0,0.5-0.1,0.7-0.2c0.2-0.1,0.4-0.3,0.5-0.5v0.3    C169.8,521.9,169.4,522.1,169,522.1z M172.2,522.1c-0.4,0-0.8-0.2-1.1-0.5c-0.3-0.3-0.5-0.7-0.5-1.1c0-0.4,0.2-0.8,0.5-1.1    c0.3-0.3,0.7-0.5,1.1-0.5c0.4,0,0.8,0.2,1.1,0.5c0.3,0.3,0.5,0.7,0.5,1.1c0,0.4-0.2,0.8-0.5,1.1    C173.1,521.9,172.7,522.1,172.2,522.1L172.2,522.1z M173.6,520.5c0-0.4-0.1-0.7-0.4-1c-0.2-0.3-0.6-0.4-1-0.4    c-0.4,0-0.7,0.1-1,0.4c-0.3,0.3-0.4,0.6-0.4,1c0,0.4,0.1,0.7,0.4,1c0.3,0.3,0.6,0.4,1,0.4c0.4,0,0.7-0.1,1-0.4    C173.4,521.2,173.6,520.9,173.6,520.5z M177.5,517v5h-0.2v-0.7c-0.1,0.2-0.3,0.4-0.6,0.6c-0.2,0.1-0.5,0.2-0.8,0.2    c-0.4,0-0.8-0.2-1.1-0.5c-0.3-0.3-0.5-0.7-0.5-1.1c0-0.4,0.2-0.8,0.5-1.1c0.3-0.3,0.7-0.5,1.1-0.5c0.3,0,0.6,0.1,0.8,0.2    c0.2,0.1,0.4,0.3,0.6,0.6V517H177.5z M174.6,520.5c0,0.4,0.1,0.7,0.4,1c0.2,0.3,0.6,0.4,1,0.4c0.4,0,0.7-0.1,1-0.4    c0.3-0.3,0.4-0.6,0.4-1c0-0.4-0.1-0.7-0.4-1c-0.3-0.3-0.6-0.4-1-0.4c-0.4,0-0.7,0.1-1,0.4C174.7,519.8,174.6,520.1,174.6,520.5z     M179.9,522.1L179.9,522.1c-0.5,0-0.9-0.2-1.2-0.5c-0.3-0.3-0.5-0.7-0.5-1.1c0-0.4,0.2-0.8,0.5-1.1c0.3-0.3,0.7-0.5,1.2-0.5    c0.5,0,0.9,0.2,1.2,0.5l-2.1,2.1c0.2,0.2,0.5,0.3,0.8,0.3c0.3,0,0.5-0.1,0.7-0.2c0.2-0.1,0.4-0.3,0.5-0.5v0.3    C180.8,521.9,180.4,522.1,179.9,522.1z M179.8,519.1c-0.4,0-0.7,0.1-0.9,0.4c-0.3,0.2-0.4,0.6-0.4,0.9c0,0.3,0.1,0.7,0.4,0.9    l1.9-1.9C180.5,519.3,180.2,519.1,179.8,519.1z"></path>
	</g>
	<g id="Raggruppa_113" transform="translate(0 37)">
		<g id="Raggruppa_112" transform="translate(860.178 494.993)">
			<path class="st1" d="M-625.8,2.9c-1.2-1.3-2.9-2-4.9-2h-0.7v13.6h0.7c2,0,3.7-0.7,4.9-2c1.2-1.3,1.9-2.9,1.9-4.8     C-623.9,5.9-624.5,4.3-625.8,2.9z M-630.5,13.7V1.8c1.7,0,3,0.6,4.1,1.8c1.1,1.2,1.6,2.6,1.6,4.2c0,1.6-0.5,3-1.6,4.2     C-627.5,13.1-628.9,13.7-630.5,13.7z"></path>
			<path class="st1" d="M-634.7,0.9c-2,0-3.7,0.7-4.9,2c-1.2,1.3-1.9,3-1.9,4.8c0,1.9,0.6,3.5,1.9,4.8c1.2,1.3,2.9,2,4.9,2h0.7V0.9     H-634.7z M-634.9,1.8v11.9c-1.7,0-3-0.6-4.1-1.7c-1.1-1.2-1.6-2.6-1.6-4.2c0-1.6,0.5-3,1.6-4.2C-637.9,2.4-636.5,1.8-634.9,1.8z"></path>
		</g>
		<path id="Tracciato_549" d="M212.9,517h0.2c0.7,0,1.3,0.2,1.8,0.7c0.5,0.5,0.7,1.1,0.7,1.8c0,0.7-0.2,1.3-0.7,1.8    c-0.5,0.5-1.1,0.8-1.8,0.7h-0.2V517z M213.2,517.2L213.2,517.2l-0.1,4.6h0.1c0.6,0,1.2-0.2,1.6-0.7c0.4-0.4,0.6-1,0.6-1.6    c0-0.6-0.2-1.2-0.6-1.6C214.4,517.4,213.8,517.2,213.2,517.2z M217.9,522.1L217.9,522.1c-0.5,0-0.9-0.2-1.2-0.5    c-0.3-0.3-0.5-0.7-0.5-1.1c0-0.4,0.2-0.8,0.5-1.1c0.3-0.3,0.7-0.5,1.2-0.5c0.5,0,0.9,0.2,1.2,0.5l-2.1,2.1    c0.2,0.2,0.5,0.3,0.8,0.3c0.3,0,0.5-0.1,0.7-0.2c0.2-0.1,0.4-0.3,0.5-0.5v0.3C218.8,521.9,218.4,522.1,217.9,522.1z M217.9,519.1    c-0.4,0-0.7,0.1-0.9,0.4c-0.3,0.2-0.4,0.6-0.4,0.9c0,0.3,0.1,0.7,0.4,0.9l1.9-1.9C218.6,519.3,218.2,519.1,217.9,519.1    L217.9,519.1z M220.1,522h-0.2v-3h0.2v0.6c0.2-0.4,0.7-0.7,1.2-0.7c0.4,0,0.7,0.1,0.9,0.4c0.2,0.2,0.4,0.6,0.4,0.9v1.7h-0.2v-1.7    c0-0.3-0.1-0.6-0.3-0.8c-0.2-0.2-0.5-0.3-0.8-0.3c-0.3,0-0.6,0.1-0.8,0.3c-0.2,0.2-0.4,0.5-0.3,0.8V522z M223.7,519v3h-0.2v-3    H223.7z M223.6,518.3c-0.1,0-0.2-0.1-0.2-0.2c0-0.1,0.1-0.2,0.2-0.2c0.1,0,0.2,0.1,0.2,0.2C223.8,518.2,223.8,518.3,223.6,518.3    L223.6,518.3z M226.2,522.1L226.2,522.1c-0.5,0-0.9-0.2-1.2-0.5c-0.3-0.3-0.5-0.7-0.5-1.1c0-0.4,0.2-0.8,0.5-1.1    c0.3-0.3,0.7-0.5,1.2-0.5c0.5,0,0.9,0.2,1.2,0.5l-2.1,2.1c0.2,0.2,0.5,0.3,0.8,0.3c0.3,0,0.5-0.1,0.7-0.2c0.2-0.1,0.4-0.3,0.5-0.5    v0.3C227.1,521.9,226.7,522.1,226.2,522.1z M226.2,519.1c-0.4,0-0.7,0.1-0.9,0.4c-0.3,0.2-0.4,0.6-0.4,0.9c0,0.3,0.1,0.7,0.4,0.9    l1.9-1.9C226.8,519.3,226.5,519.1,226.2,519.1L226.2,519.1z M229.3,521.9v0.2c-0.3,0-0.6-0.1-0.8-0.3c-0.2-0.2-0.3-0.5-0.3-0.8    V517h0.2v3.9c0,0.3,0.1,0.5,0.3,0.7C228.8,521.8,229,521.9,229.3,521.9z M232.4,517h0.2c0.7,0,1.3,0.2,1.8,0.7    c0.5,0.5,0.7,1.1,0.7,1.8c0,0.7-0.2,1.3-0.7,1.8c-0.5,0.5-1.1,0.8-1.8,0.7h-0.2V517z M232.7,517.2L232.7,517.2l-0.1,4.6h0.1    c0.6,0,1.2-0.2,1.6-0.7c0.4-0.4,0.6-1,0.6-1.6c0-0.6-0.2-1.2-0.6-1.6C233.9,517.4,233.3,517.2,232.7,517.2z M237.4,522.1    L237.4,522.1c-0.5,0-0.9-0.2-1.2-0.5c-0.3-0.3-0.5-0.7-0.5-1.1c0-0.4,0.2-0.8,0.5-1.1c0.3-0.3,0.7-0.5,1.2-0.5    c0.5,0,0.9,0.2,1.2,0.5l-2.1,2.1c0.2,0.2,0.5,0.3,0.8,0.3c0.3,0,0.5-0.1,0.7-0.2c0.2-0.1,0.4-0.3,0.5-0.5v0.3    C238.3,521.9,237.9,522.1,237.4,522.1z M237.4,519.1c-0.4,0-0.7,0.1-0.9,0.4c-0.3,0.2-0.4,0.6-0.4,0.9c0,0.3,0.1,0.7,0.4,0.9    l1.9-1.9C238.1,519.3,237.7,519.1,237.4,519.1z M239.6,522h-0.2v-3h0.2v0.6c0.2-0.4,0.7-0.7,1.2-0.7c0.4,0,0.7,0.1,0.9,0.4    c0.2,0.2,0.4,0.6,0.4,0.9v1.7h-0.2v-1.7c0-0.3-0.1-0.6-0.3-0.8c-0.2-0.2-0.5-0.3-0.8-0.3c-0.3,0-0.6,0.1-0.8,0.3    c-0.2,0.2-0.4,0.5-0.3,0.8V522z"></path>
	</g>
</g>
</svg>