<svg id="versioni" xmlns="http://www.w3.org/2000/svg" viewBox="0 0 328.51 141.73">
<defs><style>.purple{fill:#890052;}.orange{fill:#ff9200;}</style></defs>
<g id="pittogramma"><path class="purple" d="M91.28,0c7.67.48,12.79,1.39,25.2,5.35L129.07,60.9,91.21,98.51V93.83l34.19-34L113.65,8C103.59,4.9,99.46,4,94.32,3.61L84.78,98.43,47.07,60.9,59.66,5.39C72,1.51,76.61.51,84.93,0V3.43C77.19,4,74.34,4.43,62.49,8L50.74,59.84,82.07,91Z"/><path class="orange" d="M88.07,25.75a6.52,6.52,0,0,0-6.52,6.52V51.82a6.52,6.52,0,0,0,13,0V32.27A6.52,6.52,0,0,0,88.07,25.75Z"/></g>

<g id="orizzontale"><polygon class="purple" points="152.37 53.52 163.14 59.89 163.14 57.53 155.09 52.78 163.14 48.06 163.14 45.77 152.37 52.04 152.37 53.52"/><polygon class="purple" points="317.74 45.88 317.74 48.17 325.78 52.89 317.74 57.64 317.74 60 328.51 53.63 328.51 52.15 317.74 45.88"/><path d="M180.41,47.65a6.94,6.94,0,0,0-1.7-1.35,7.7,7.7,0,0,0-3.84-1.17,7.46,7.46,0,0,0-5.4,2.34,7.53,7.53,0,0,0,0,10.7,7.06,7.06,0,0,0,9.16,1.19A7.29,7.29,0,0,0,180.41,58v2.31h2V36.63h-2Zm-9.5,9.16a5.6,5.6,0,1,1,9.56-4,5.33,5.33,0,0,1-1.67,3.95,5.56,5.56,0,0,1-4,1.81A5.35,5.35,0,0,1,170.91,56.81Z"/><path d="M197.11,57.77a5.27,5.27,0,0,1-5.92-.33l9.1-9c-4.51-6.38-13.74-2.8-13.74,4.29a7.79,7.79,0,0,0,14,4.69l0-3.3A9.37,9.37,0,0,1,197.11,57.77Zm.4-9.44-7.75,7.72C185.86,51.14,192.61,44.37,197.51,48.33Z"/><path d="M239.92,57.77a5.27,5.27,0,0,1-5.92-.33l9.1-9c-4.51-6.38-13.74-2.8-13.74,4.29a7.79,7.79,0,0,0,14,4.69v-3.3A9.46,9.46,0,0,1,239.92,57.77Zm.4-9.44-7.75,7.72C228.67,51.14,235.42,44.37,240.32,48.33Z"/><path d="M293,57.77a5.27,5.27,0,0,1-5.92-.33l9.1-9c-4.5-6.38-13.74-2.8-13.74,4.29a7.79,7.79,0,0,0,14,4.69v-3.3A9.32,9.32,0,0,1,293,57.77Zm.4-9.44-7.75,7.72C281.72,51.14,288.48,44.37,293.37,48.33Z"/><path d="M211.33,45.12A6,6,0,0,0,206.68,47v-1.5h-2V60.28h2V51.59a4.29,4.29,0,0,1,1.4-3.19A4.49,4.49,0,0,1,211.33,47a4.12,4.12,0,0,1,3.11,1.35,4.46,4.46,0,0,1,1.29,3.2v8.69h2V51.59A6.28,6.28,0,0,0,215.91,47,6.2,6.2,0,0,0,211.33,45.12Z"/><path d="M307.19,45.12A6.08,6.08,0,0,0,302.54,47v-1.5h-2V60.28h2V51.59A4.26,4.26,0,0,1,304,48.4,4.45,4.45,0,0,1,307.19,47a4.09,4.09,0,0,1,3.11,1.35,4.47,4.47,0,0,1,1.3,3.2v8.69h2V51.59A6.32,6.32,0,0,0,311.78,47,6.22,6.22,0,0,0,307.19,45.12Z"/><ellipse cx="223.56" cy="41.91" rx="1.41" ry="1.35"/><rect x="222.54" y="45.45" width="2.04" height="14.83"/><polygon class="purple" points="262.71 36.95 245.22 60.4 247.68 60.4 265.22 36.95 262.71 36.95"/><path d="M276.28,47.65a7.18,7.18,0,0,0-1.71-1.35,7.67,7.67,0,0,0-3.83-1.17,7.49,7.49,0,0,0-5.41,2.34,7.53,7.53,0,0,0,0,10.7A7.64,7.64,0,0,0,276.28,58v2.32h2V36.63h-2Zm-9.51,9.16a5.66,5.66,0,0,1,0-8,5.39,5.39,0,0,1,3.92-1.8,6,6,0,0,1,5.63,5.81,5.34,5.34,0,0,1-1.68,3.95,5.54,5.54,0,0,1-4,1.81A5.39,5.39,0,0,1,266.77,56.81Z"/></g>

<g id="verticale"><polygon class="purple" points="0 134.72 10.77 141.09 10.77 138.73 2.73 133.98 10.77 129.26 10.77 126.97 0 133.24 0 134.72"/><polygon class="purple" points="165.37 127.08 165.37 129.37 173.42 134.09 165.37 138.84 165.37 141.19 176.14 134.83 176.14 133.34 165.37 127.08"/><path d="M28.05,128.85a7.18,7.18,0,0,0-1.71-1.35,7.72,7.72,0,0,0-3.83-1.18,7.47,7.47,0,0,0-5.41,2.35,7.52,7.52,0,0,0,0,10.69,7.48,7.48,0,0,0,5.41,2.37,7.61,7.61,0,0,0,3.75-1.17,7.34,7.34,0,0,0,1.79-1.41v2.31h2V117.82h-2ZM18.54,138a5.66,5.66,0,0,1,0-8,5.39,5.39,0,0,1,3.92-1.8,5.47,5.47,0,0,1,3.95,1.82,5.46,5.46,0,0,1,1.68,4A5.34,5.34,0,0,1,26.43,138a5.54,5.54,0,0,1-4,1.81A5.43,5.43,0,0,1,18.54,138Z"/><path d="M44.74,139a5.27,5.27,0,0,1-5.92-.33l9.1-9c-4.51-6.38-13.74-2.8-13.74,4.29a7.79,7.79,0,0,0,14,4.69v-3.3A9.46,9.46,0,0,1,44.74,139Zm.4-9.44-7.75,7.72C33.49,132.34,40.24,125.57,45.14,129.53Z"/><path d="M87.55,139a5.27,5.27,0,0,1-5.92-.33l9.1-9c-4.5-6.38-13.74-2.8-13.74,4.29a7.79,7.79,0,0,0,14,4.69v-3.3A9.46,9.46,0,0,1,87.55,139Zm.4-9.44-7.75,7.72C76.3,132.34,83.06,125.57,88,129.53Z"/><path d="M140.61,139a5.27,5.27,0,0,1-5.92-.33l9.1-9c-4.51-6.38-13.74-2.8-13.74,4.29a7.79,7.79,0,0,0,14,4.69l0-3.3A9.45,9.45,0,0,1,140.61,139Zm.4-9.44-7.75,7.72C129.36,132.34,136.11,125.57,141,129.53Z"/><path d="M59,126.32a6,6,0,0,0-4.65,1.83v-1.5h-2v14.82h2v-8.68a4.29,4.29,0,0,1,1.4-3.19A4.49,4.49,0,0,1,59,128.24a4.1,4.1,0,0,1,3.11,1.35,4.47,4.47,0,0,1,1.3,3.2v8.68h2v-8.68a6.31,6.31,0,0,0-1.85-4.58A6.19,6.19,0,0,0,59,126.32Z"/><path d="M154.82,126.32a6,6,0,0,0-4.64,1.83v-1.5h-2v14.82h2v-8.68a4.29,4.29,0,0,1,1.4-3.19,4.48,4.48,0,0,1,3.24-1.36,4.12,4.12,0,0,1,3.12,1.35,4.46,4.46,0,0,1,1.29,3.2v8.68h2v-8.68a6.32,6.32,0,0,0-1.86-4.58A6.17,6.17,0,0,0,154.82,126.32Z"/><ellipse cx="71.19" cy="123.11" rx="1.41" ry="1.35"/><rect x="70.18" y="126.65" width="2.04" height="14.83"/><polygon class="purple" points="110.34 118.14 92.86 141.59 95.31 141.59 112.85 118.14 110.34 118.14"/><path d="M123.91,128.85a6.81,6.81,0,0,0-1.71-1.35,7.66,7.66,0,0,0-3.83-1.18,7.43,7.43,0,0,0-5.4,2.35,7.52,7.52,0,0,0,0,10.69,7.44,7.44,0,0,0,5.4,2.37,7.57,7.57,0,0,0,3.76-1.17,7.29,7.29,0,0,0,1.78-1.41v2.32h2V117.82h-2Zm-9.5,9.16a5.6,5.6,0,1,1,9.56-4A5.33,5.33,0,0,1,122.3,138a5.56,5.56,0,0,1-4,1.81A5.35,5.35,0,0,1,114.41,138Z"/></g>
</svg>