<?xml version="1.0" encoding="utf-8"?>
<!-- Generator: Adobe Illustrator 25.2.3, SVG Export Plug-In . SVG Version: 6.00 Build 0)  -->
<svg version="1.1" id="Livello_1" xmlns="http://www.w3.org/2000/svg" xmlns:xlink="http://www.w3.org/1999/xlink" x="0px" y="0px"
	 viewBox="0 0 34.7 28.3" style="enable-background:new 0 0 34.7 28.3;" xml:space="preserve">
<style type="text/css">
	.st0{fill:#FF9200;}
</style>
<g id="Raggruppa_104" transform="translate(-2591.662 -2063.768)">
	<path id="Tracciato_537" d="M2615.3,2065.8c1.9,0.1,3.1,0.3,6.2,1.3l3.1,13.6l-9.3,9.2v-1.1l8.4-8.3l-2.9-12.7
		c-2.5-0.8-3.5-1-4.7-1.1l-2.3,23.2l-9.2-9.2l3.1-13.6c3-1,4.2-1.2,6.2-1.3l0,0.8c-1.9,0.1-2.6,0.2-5.5,1.1l-2.9,12.7l7.7,7.6
		L2615.3,2065.8z"/>
	<path id="Tracciato_538" d="M2614.5,2072.1c-0.9,0-1.6,0.7-1.6,1.6v4.8c0,0.9,0.7,1.6,1.6,1.6c0.9,0,1.6-0.7,1.6-1.6c0,0,0,0,0,0
		v-4.8C2616.1,2072.8,2615.4,2072.1,2614.5,2072.1"/>
	<g id="Linea_2">
		<path class="st0" d="M2599.3,2090.1c-0.1,0-0.1-0.1-0.1-0.1v-24.3c0-0.1,0.1-0.1,0.1-0.1c0.1,0,0.1,0.1,0.1,0.1v24.3
			C2599.4,2090,2599.4,2090.1,2599.3,2090.1z"/>
	</g>
	<g id="Linea_3">
		<path class="st0" d="M2602.7,2080.7c-0.1,0-0.1-0.1-0.1-0.1v-14.8c0-0.1,0.1-0.1,0.1-0.1c0.1,0,0.1,0.1,0.1,0.1v14.8
			C2602.8,2080.6,2602.8,2080.7,2602.7,2080.7z"/>
	</g>
	<g id="Linea_4">
		<path class="st0" d="M2626.2,2090.2h-0.2c-0.1,0-0.1-0.1-0.1-0.1s0.1-0.1,0.1-0.1h0.2c0.1,0,0.1,0.1,0.1,0.1
			S2626.3,2090.2,2626.2,2090.2z M2625,2090.2h-1.1c-0.1,0-0.1-0.1-0.1-0.1s0.1-0.1,0.1-0.1h1.1c0.1,0,0.1,0.1,0.1,0.1
			S2625.1,2090.2,2625,2090.2z M2622.9,2090.2h-1.1c-0.1,0-0.1-0.1-0.1-0.1s0.1-0.1,0.1-0.1h1.1c0.1,0,0.1,0.1,0.1,0.1
			S2623,2090.2,2622.9,2090.2z M2620.8,2090.2h-1.1c-0.1,0-0.1-0.1-0.1-0.1s0.1-0.1,0.1-0.1h1.1c0.1,0,0.1,0.1,0.1,0.1
			S2620.9,2090.2,2620.8,2090.2z M2618.7,2090.2h-1.1c-0.1,0-0.1-0.1-0.1-0.1s0.1-0.1,0.1-0.1h1.1c0.1,0,0.1,0.1,0.1,0.1
			S2618.7,2090.2,2618.7,2090.2z M2616.6,2090.2h-1.1c-0.1,0-0.1-0.1-0.1-0.1s0.1-0.1,0.1-0.1h1.1c0.1,0,0.1,0.1,0.1,0.1
			S2616.6,2090.2,2616.6,2090.2z M2614.5,2090.2h-1.1c-0.1,0-0.1-0.1-0.1-0.1s0.1-0.1,0.1-0.1h1.1c0.1,0,0.1,0.1,0.1,0.1
			S2614.5,2090.2,2614.5,2090.2z M2612.4,2090.2h-1.1c-0.1,0-0.1-0.1-0.1-0.1s0.1-0.1,0.1-0.1h1.1c0.1,0,0.1,0.1,0.1,0.1
			S2612.4,2090.2,2612.4,2090.2z M2610.2,2090.2h-1.1c-0.1,0-0.1-0.1-0.1-0.1s0.1-0.1,0.1-0.1h1.1c0.1,0,0.1,0.1,0.1,0.1
			S2610.3,2090.2,2610.2,2090.2z M2608.1,2090.2h-1.1c-0.1,0-0.1-0.1-0.1-0.1s0.1-0.1,0.1-0.1h1.1c0.1,0,0.1,0.1,0.1,0.1
			S2608.2,2090.2,2608.1,2090.2z M2606,2090.2h-1.1c-0.1,0-0.1-0.1-0.1-0.1s0.1-0.1,0.1-0.1h1.1c0.1,0,0.1,0.1,0.1,0.1
			S2606.1,2090.2,2606,2090.2z M2603.9,2090.2h-1.1c-0.1,0-0.1-0.1-0.1-0.1s0.1-0.1,0.1-0.1h1.1c0.1,0,0.1,0.1,0.1,0.1
			S2604,2090.2,2603.9,2090.2z"/>
	</g>
	<g id="Linea_5">
		<path class="st0" d="M2626.2,2065.8h-0.2c-0.1,0-0.1-0.1-0.1-0.1s0.1-0.1,0.1-0.1h0.2c0.1,0,0.1,0.1,0.1,0.1
			S2626.3,2065.8,2626.2,2065.8z M2625,2065.8h-1.1c-0.1,0-0.1-0.1-0.1-0.1s0.1-0.1,0.1-0.1h1.1c0.1,0,0.1,0.1,0.1,0.1
			S2625.1,2065.8,2625,2065.8z M2622.9,2065.8h-1.1c-0.1,0-0.1-0.1-0.1-0.1s0.1-0.1,0.1-0.1h1.1c0.1,0,0.1,0.1,0.1,0.1
			S2623,2065.8,2622.9,2065.8z M2620.8,2065.8h-1.1c-0.1,0-0.1-0.1-0.1-0.1s0.1-0.1,0.1-0.1h1.1c0.1,0,0.1,0.1,0.1,0.1
			S2620.9,2065.8,2620.8,2065.8z M2618.7,2065.8h-1.1c-0.1,0-0.1-0.1-0.1-0.1s0.1-0.1,0.1-0.1h1.1c0.1,0,0.1,0.1,0.1,0.1
			S2618.7,2065.8,2618.7,2065.8z M2616.6,2065.8h-1.1c-0.1,0-0.1-0.1-0.1-0.1s0.1-0.1,0.1-0.1h1.1c0.1,0,0.1,0.1,0.1,0.1
			S2616.6,2065.8,2616.6,2065.8z M2614.5,2065.8h-1.1c-0.1,0-0.1-0.1-0.1-0.1s0.1-0.1,0.1-0.1h1.1c0.1,0,0.1,0.1,0.1,0.1
			S2614.5,2065.8,2614.5,2065.8z M2612.4,2065.8h-1.1c-0.1,0-0.1-0.1-0.1-0.1s0.1-0.1,0.1-0.1h1.1c0.1,0,0.1,0.1,0.1,0.1
			S2612.4,2065.8,2612.4,2065.8z M2610.2,2065.8h-1.1c-0.1,0-0.1-0.1-0.1-0.1s0.1-0.1,0.1-0.1h1.1c0.1,0,0.1,0.1,0.1,0.1
			S2610.3,2065.8,2610.2,2065.8z M2608.1,2065.8h-1.1c-0.1,0-0.1-0.1-0.1-0.1s0.1-0.1,0.1-0.1h1.1c0.1,0,0.1,0.1,0.1,0.1
			S2608.2,2065.8,2608.1,2065.8z M2606,2065.8h-1.1c-0.1,0-0.1-0.1-0.1-0.1s0.1-0.1,0.1-0.1h1.1c0.1,0,0.1,0.1,0.1,0.1
			S2606.1,2065.8,2606,2065.8z M2603.9,2065.8h-1.1c-0.1,0-0.1-0.1-0.1-0.1s0.1-0.1,0.1-0.1h1.1c0.1,0,0.1,0.1,0.1,0.1
			S2604,2065.8,2603.9,2065.8z"/>
	</g>
	<g id="Linea_11">
		<path class="st0" d="M2614.5,2092.1c-0.1,0-0.1-0.1-0.1-0.1v-0.7c0-0.1,0.1-0.1,0.1-0.1s0.1,0.1,0.1,0.1v0.7
			C2614.7,2092.1,2614.6,2092.1,2614.5,2092.1z M2614.5,2090.4c-0.1,0-0.1-0.1-0.1-0.1v-1.1c0-0.1,0.1-0.1,0.1-0.1s0.1,0.1,0.1,0.1
			v1.1C2614.7,2090.3,2614.6,2090.4,2614.5,2090.4z M2614.5,2088.3c-0.1,0-0.1-0.1-0.1-0.1v-1.1c0-0.1,0.1-0.1,0.1-0.1
			s0.1,0.1,0.1,0.1v1.1C2614.7,2088.2,2614.6,2088.3,2614.5,2088.3z M2614.5,2086.2c-0.1,0-0.1-0.1-0.1-0.1v-1.1
			c0-0.1,0.1-0.1,0.1-0.1s0.1,0.1,0.1,0.1v1.1C2614.7,2086.1,2614.6,2086.2,2614.5,2086.2z M2614.5,2084c-0.1,0-0.1-0.1-0.1-0.1
			v-1.1c0-0.1,0.1-0.1,0.1-0.1s0.1,0.1,0.1,0.1v1.1C2614.7,2084,2614.6,2084,2614.5,2084z M2614.5,2081.9c-0.1,0-0.1-0.1-0.1-0.1
			v-1.1c0-0.1,0.1-0.1,0.1-0.1s0.1,0.1,0.1,0.1v1.1C2614.7,2081.9,2614.6,2081.9,2614.5,2081.9z M2614.5,2079.8
			c-0.1,0-0.1-0.1-0.1-0.1v-1.1c0-0.1,0.1-0.1,0.1-0.1s0.1,0.1,0.1,0.1v1.1C2614.7,2079.8,2614.6,2079.8,2614.5,2079.8z
			 M2614.5,2077.7c-0.1,0-0.1-0.1-0.1-0.1v-1.1c0-0.1,0.1-0.1,0.1-0.1s0.1,0.1,0.1,0.1v1.1
			C2614.7,2077.7,2614.6,2077.7,2614.5,2077.7z M2614.5,2075.6c-0.1,0-0.1-0.1-0.1-0.1v-1.1c0-0.1,0.1-0.1,0.1-0.1s0.1,0.1,0.1,0.1
			v1.1C2614.7,2075.6,2614.6,2075.6,2614.5,2075.6z M2614.5,2073.5c-0.1,0-0.1-0.1-0.1-0.1v-1.1c0-0.1,0.1-0.1,0.1-0.1
			s0.1,0.1,0.1,0.1v1.1C2614.7,2073.5,2614.6,2073.5,2614.5,2073.5z M2614.5,2071.4c-0.1,0-0.1-0.1-0.1-0.1v-1.1
			c0-0.1,0.1-0.1,0.1-0.1s0.1,0.1,0.1,0.1v1.1C2614.7,2071.3,2614.6,2071.4,2614.5,2071.4z M2614.5,2069.3c-0.1,0-0.1-0.1-0.1-0.1
			v-1.1c0-0.1,0.1-0.1,0.1-0.1s0.1,0.1,0.1,0.1v1.1C2614.7,2069.2,2614.6,2069.3,2614.5,2069.3z M2614.5,2067.2
			c-0.1,0-0.1-0.1-0.1-0.1v-1.1c0-0.1,0.1-0.1,0.1-0.1s0.1,0.1,0.1,0.1v1.1C2614.7,2067.1,2614.6,2067.2,2614.5,2067.2z
			 M2614.5,2065.1c-0.1,0-0.1-0.1-0.1-0.1v-1.1c0-0.1,0.1-0.1,0.1-0.1s0.1,0.1,0.1,0.1v1.1C2614.7,2065,2614.6,2065.1,2614.5,2065.1
			z"/>
	</g>
	<g id="Linea_6">
		<path class="st0" d="M2626.2,2080.9h-0.2c-0.1,0-0.1-0.1-0.1-0.1c0-0.1,0.1-0.1,0.1-0.1h0.2c0.1,0,0.1,0.1,0.1,0.1
			C2626.3,2080.8,2626.3,2080.9,2626.2,2080.9z M2625,2080.9h-1.1c-0.1,0-0.1-0.1-0.1-0.1c0-0.1,0.1-0.1,0.1-0.1h1.1
			c0.1,0,0.1,0.1,0.1,0.1C2625.1,2080.8,2625.1,2080.9,2625,2080.9z M2622.9,2080.9h-1.1c-0.1,0-0.1-0.1-0.1-0.1
			c0-0.1,0.1-0.1,0.1-0.1h1.1c0.1,0,0.1,0.1,0.1,0.1C2623,2080.8,2623,2080.9,2622.9,2080.9z M2620.8,2080.9h-1.1
			c-0.1,0-0.1-0.1-0.1-0.1c0-0.1,0.1-0.1,0.1-0.1h1.1c0.1,0,0.1,0.1,0.1,0.1C2620.9,2080.8,2620.9,2080.9,2620.8,2080.9z
			 M2618.7,2080.9h-1.1c-0.1,0-0.1-0.1-0.1-0.1c0-0.1,0.1-0.1,0.1-0.1h1.1c0.1,0,0.1,0.1,0.1,0.1
			C2618.8,2080.8,2618.7,2080.9,2618.7,2080.9z M2616.6,2080.9h-1.1c-0.1,0-0.1-0.1-0.1-0.1c0-0.1,0.1-0.1,0.1-0.1h1.1
			c0.1,0,0.1,0.1,0.1,0.1C2616.7,2080.8,2616.6,2080.9,2616.6,2080.9z M2614.5,2080.9h-1.1c-0.1,0-0.1-0.1-0.1-0.1
			c0-0.1,0.1-0.1,0.1-0.1h1.1c0.1,0,0.1,0.1,0.1,0.1C2614.6,2080.8,2614.5,2080.9,2614.5,2080.9z M2612.4,2080.9h-1.1
			c-0.1,0-0.1-0.1-0.1-0.1c0-0.1,0.1-0.1,0.1-0.1h1.1c0.1,0,0.1,0.1,0.1,0.1C2612.5,2080.8,2612.4,2080.9,2612.4,2080.9z
			 M2610.2,2080.9h-1.1c-0.1,0-0.1-0.1-0.1-0.1c0-0.1,0.1-0.1,0.1-0.1h1.1c0.1,0,0.1,0.1,0.1,0.1
			C2610.4,2080.8,2610.3,2080.9,2610.2,2080.9z M2608.1,2080.9h-1.1c-0.1,0-0.1-0.1-0.1-0.1c0-0.1,0.1-0.1,0.1-0.1h1.1
			c0.1,0,0.1,0.1,0.1,0.1C2608.3,2080.8,2608.2,2080.9,2608.1,2080.9z M2606,2080.9h-1.1c-0.1,0-0.1-0.1-0.1-0.1
			c0-0.1,0.1-0.1,0.1-0.1h1.1c0.1,0,0.1,0.1,0.1,0.1C2606.2,2080.8,2606.1,2080.9,2606,2080.9z M2603.9,2080.9h-1.1
			c-0.1,0-0.1-0.1-0.1-0.1c0-0.1,0.1-0.1,0.1-0.1h1.1c0.1,0,0.1,0.1,0.1,0.1C2604.1,2080.8,2604,2080.9,2603.9,2080.9z"/>
	</g>
	<path id="Tracciato_547" d="M2601.3,2072.1v1.9h-0.3v-1.7h-0.4v-0.2H2601.3z"/>
	<path id="Tracciato_546" d="M2592.4,2072.1v2h-0.3v-1.7h-0.4v-0.2H2592.4z M2593.1,2073.7c0,0,0.1,0,0.1,0.1c0,0,0.1,0.1,0.1,0.1
		c0,0,0,0.1,0,0.1c0,0,0,0.1,0,0.1l-0.1,0.4h-0.2l0.1-0.4c0,0-0.1,0-0.1-0.1c0,0,0-0.1,0-0.1c0-0.1,0-0.1,0.1-0.1
		C2593,2073.7,2593,2073.7,2593.1,2073.7z M2594.4,2072.9c0.1,0,0.2,0,0.3,0.1c0.1,0,0.2,0.1,0.2,0.2c0.1,0.1,0.1,0.2,0.1,0.3
		c0,0.1,0,0.2-0.1,0.3c-0.1,0.1-0.1,0.2-0.2,0.2c-0.1,0.1-0.2,0.1-0.4,0.1c-0.2,0-0.5-0.1-0.6-0.3c-0.1-0.2-0.2-0.4-0.2-0.7
		c0-0.2,0-0.4,0.1-0.6c0.1-0.1,0.2-0.3,0.3-0.4c0.1-0.1,0.3-0.1,0.5-0.1c0.1,0,0.2,0,0.3,0c0.1,0,0.2,0,0.2,0.1l-0.1,0.2
		c-0.1-0.1-0.2-0.1-0.4-0.1c-0.2,0-0.4,0.1-0.5,0.2c-0.1,0.1-0.2,0.3-0.2,0.6c0,0,0,0,0,0.1c0.1-0.1,0.1-0.2,0.2-0.2
		C2594.2,2072.9,2594.3,2072.9,2594.4,2072.9z M2594.3,2073.9c0.1,0,0.2,0,0.3-0.1c0.1-0.1,0.1-0.2,0.1-0.3c0-0.1,0-0.2-0.1-0.3
		c-0.1-0.1-0.2-0.1-0.3-0.1c-0.1,0-0.2,0-0.2,0.1c-0.1,0-0.1,0.1-0.2,0.1c0,0.1-0.1,0.1-0.1,0.2c0,0.1,0,0.1,0.1,0.2
		c0,0.1,0.1,0.1,0.2,0.1C2594.2,2073.9,2594.3,2073.9,2594.3,2073.9z M2595.9,2072.1v2h-0.3v-1.7h-0.4v-0.2H2595.9z M2597.6,2073
		c0.1,0,0.2,0.1,0.3,0.2c0.1,0.1,0.1,0.2,0.1,0.3c0,0.1,0,0.2-0.1,0.3c-0.1,0.1-0.2,0.2-0.3,0.2c-0.1,0-0.3,0.1-0.4,0.1
		c-0.1,0-0.3,0-0.4-0.1c-0.1,0-0.2-0.1-0.3-0.2c-0.1-0.1-0.1-0.2-0.1-0.3c0-0.1,0-0.2,0.1-0.3c0.1-0.1,0.2-0.2,0.3-0.2
		c-0.1,0-0.2-0.1-0.2-0.2c0-0.1-0.1-0.2-0.1-0.3c0-0.1,0-0.2,0.1-0.3c0.1-0.1,0.1-0.1,0.2-0.2c0.1,0,0.2-0.1,0.4-0.1
		c0.1,0,0.3,0,0.4,0.1c0.1,0,0.2,0.1,0.2,0.2c0.1,0.1,0.1,0.2,0.1,0.3c0,0.1,0,0.2-0.1,0.3C2597.8,2072.9,2597.7,2073,2597.6,2073z
		 M2597.2,2072.3c-0.1,0-0.2,0-0.3,0.1c-0.1,0.1-0.1,0.1-0.1,0.2c0,0.1,0,0.2,0.1,0.2c0.1,0.1,0.2,0.1,0.3,0.1c0.1,0,0.2,0,0.3-0.1
		c0.1-0.1,0.1-0.1,0.1-0.2c0-0.1,0-0.2-0.1-0.2C2597.4,2072.3,2597.3,2072.3,2597.2,2072.3L2597.2,2072.3z M2597.2,2073.9
		c0.1,0,0.3,0,0.4-0.1c0.1-0.1,0.1-0.2,0.1-0.3c0-0.1,0-0.2-0.1-0.3c-0.1-0.1-0.2-0.1-0.4-0.1c-0.1,0-0.3,0-0.4,0.1
		c-0.1,0.1-0.1,0.2-0.1,0.3c0,0.1,0,0.2,0.1,0.3C2596.9,2073.8,2597.1,2073.9,2597.2,2073.9L2597.2,2073.9z"/>
	<g id="Tracciato_539">
		<path class="st0" d="M2616.3,2090.2c-5.2,0-9.4-4.2-9.4-9.4c0-4,1.6-7.8,4.4-10.8c2.9-2.9,6.7-4.5,10.7-4.5c0.1,0,0.1,0.1,0.1,0.1
			s-0.1,0.1-0.1,0.1c-8.2,0-14.8,6.7-14.8,15c0,5,4.1,9.1,9.1,9.1c3.1,0,5.6-2.5,5.6-5.6c0-1.9-1.5-3.4-3.4-3.4
			c-1.2,0-2.1,0.9-2.1,2.1c0,0.7,0.6,1.2,1.2,1.2c0.4,0,0.7-0.3,0.7-0.7c0-0.2-0.2-0.4-0.4-0.4c-0.1,0-0.2,0.1-0.2,0.2
			c0,0.1-0.1,0.1-0.1,0.1s-0.1-0.1-0.1-0.1c0-0.3,0.2-0.5,0.5-0.5c0.4,0,0.7,0.3,0.7,0.7c0,0.5-0.4,1-1,1c-0.8,0-1.5-0.7-1.5-1.5
			c0-1.3,1.1-2.3,2.4-2.3c2,0,3.6,1.6,3.6,3.7C2622.2,2087.6,2619.5,2090.2,2616.3,2090.2z"/>
	</g>
</g>
</svg>
