<?xml version="1.0" encoding="utf-8"?>
<!-- Generator: Adobe Illustrator 25.2.3, SVG Export Plug-In . SVG Version: 6.00 Build 0)  -->
<svg version="1.1" id="Livello_1" xmlns="http://www.w3.org/2000/svg" xmlns:xlink="http://www.w3.org/1999/xlink" x="0px" y="0px"
	 viewBox="0 0 58.1 28.3" style="enable-background:new 0 0 58.1 28.3;" xml:space="preserve">
<style type="text/css">
	.st0{fill:#1D1D1B;}
	.st1{fill:#FF9200;}
</style>
<g id="Raggruppa_64" transform="translate(-253.411 -875.803)">
	<path id="Tracciato_550" class="st0" d="M257.3,891.6l-0.7-0.9l-0.7,0.9h-0.3l0.9-1.1l-0.8-1.1h0.3l0.7,0.9l0.7-0.9h0.3l-0.8,1.1
		l0.9,1.1H257.3z"/>
	<path id="Tracciato_551" class="st0" d="M309.4,891.6l-0.7-0.9l-0.7,0.9h-0.3l0.9-1.1l-0.8-1.1h0.3l0.7,0.9l0.7-0.9h0.3l-0.8,1.1
		l0.9,1.1H309.4z"/>
	<path id="Tracciato_548" class="st0" d="M283.2,902.4l-0.7-0.9l-0.7,0.9h-0.3l0.9-1.1l-0.8-1.1h0.3l0.7,0.9l0.7-0.9h0.3l-0.8,1.1
		l0.9,1.1H283.2z"/>
	<path id="Tracciato_549" class="st0" d="M283.2,880.1l-0.7-0.9l-0.7,0.9h-0.3l0.9-1.1l-0.8-1.1h0.3l0.7,0.9l0.7-0.9h0.3l-0.8,1.1
		l0.9,1.1H283.2z"/>
	<g id="Rettangolo_6">
		<path class="st1" d="M305.8,898.4h-1.1c-0.1,0-0.2-0.1-0.2-0.2c0-0.1,0.1-0.2,0.2-0.2h0.7v-0.5c0-0.1,0.1-0.2,0.2-0.2
			c0.1,0,0.2,0.1,0.2,0.2V898.4z M303.2,898.4h-1.5c-0.1,0-0.2-0.1-0.2-0.2c0-0.1,0.1-0.2,0.2-0.2h1.5c0.1,0,0.2,0.1,0.2,0.2
			C303.4,898.3,303.3,898.4,303.2,898.4z M300.1,898.4h-1.5c-0.1,0-0.2-0.1-0.2-0.2c0-0.1,0.1-0.2,0.2-0.2h1.5
			c0.1,0,0.2,0.1,0.2,0.2C300.3,898.3,300.2,898.4,300.1,898.4z M297,898.4h-1.5c-0.1,0-0.2-0.1-0.2-0.2c0-0.1,0.1-0.2,0.2-0.2h1.5
			c0.1,0,0.2,0.1,0.2,0.2C297.2,898.3,297.1,898.4,297,898.4z M293.9,898.4h-1.5c-0.1,0-0.2-0.1-0.2-0.2c0-0.1,0.1-0.2,0.2-0.2h1.5
			c0.1,0,0.2,0.1,0.2,0.2C294.1,898.3,294,898.4,293.9,898.4z M290.8,898.4h-1.5c-0.1,0-0.2-0.1-0.2-0.2c0-0.1,0.1-0.2,0.2-0.2h1.5
			c0.1,0,0.2,0.1,0.2,0.2C291,898.3,290.9,898.4,290.8,898.4z M287.7,898.4h-1.5c-0.1,0-0.2-0.1-0.2-0.2c0-0.1,0.1-0.2,0.2-0.2h1.5
			c0.1,0,0.2,0.1,0.2,0.2C287.9,898.3,287.8,898.4,287.7,898.4z M284.6,898.4H283c-0.1,0-0.2-0.1-0.2-0.2c0-0.1,0.1-0.2,0.2-0.2h1.5
			c0.1,0,0.2,0.1,0.2,0.2C284.8,898.3,284.7,898.4,284.6,898.4z M281.5,898.4H280c-0.1,0-0.2-0.1-0.2-0.2c0-0.1,0.1-0.2,0.2-0.2h1.5
			c0.1,0,0.2,0.1,0.2,0.2C281.7,898.3,281.6,898.4,281.5,898.4z M278.4,898.4h-1.5c-0.1,0-0.2-0.1-0.2-0.2c0-0.1,0.1-0.2,0.2-0.2
			h1.5c0.1,0,0.2,0.1,0.2,0.2C278.6,898.3,278.5,898.4,278.4,898.4z M275.3,898.4h-1.5c-0.1,0-0.2-0.1-0.2-0.2
			c0-0.1,0.1-0.2,0.2-0.2h1.5c0.1,0,0.2,0.1,0.2,0.2C275.5,898.3,275.4,898.4,275.3,898.4z M272.2,898.4h-1.5
			c-0.1,0-0.2-0.1-0.2-0.2c0-0.1,0.1-0.2,0.2-0.2h1.5c0.1,0,0.2,0.1,0.2,0.2C272.4,898.3,272.3,898.4,272.2,898.4z M269.1,898.4
			h-1.5c-0.1,0-0.2-0.1-0.2-0.2c0-0.1,0.1-0.2,0.2-0.2h1.5c0.1,0,0.2,0.1,0.2,0.2C269.3,898.3,269.2,898.4,269.1,898.4z M266,898.4
			h-1.5c-0.1,0-0.2-0.1-0.2-0.2c0-0.1,0.1-0.2,0.2-0.2h1.5c0.1,0,0.2,0.1,0.2,0.2C266.2,898.3,266.1,898.4,266,898.4z M262.9,898.4
			h-1.5c-0.1,0-0.2-0.1-0.2-0.2c0-0.1,0.1-0.2,0.2-0.2h1.5c0.1,0,0.2,0.1,0.2,0.2C263.1,898.3,263,898.4,262.9,898.4z M259.8,898.4
			h-0.6v-1.4c0-0.1,0.1-0.2,0.2-0.2c0.1,0,0.2,0.1,0.2,0.2v1h0.2c0.1,0,0.2,0.1,0.2,0.2C260,898.3,259.9,898.4,259.8,898.4z
			 M305.6,896.2c-0.1,0-0.2-0.1-0.2-0.2v-1.5c0-0.1,0.1-0.2,0.2-0.2c0.1,0,0.2,0.1,0.2,0.2v1.5C305.8,896.1,305.7,896.2,305.6,896.2
			z M259.5,895.7c-0.1,0-0.2-0.1-0.2-0.2V894c0-0.1,0.1-0.2,0.2-0.2c0.1,0,0.2,0.1,0.2,0.2v1.5C259.6,895.6,259.6,895.7,259.5,895.7
			z M305.6,893.1c-0.1,0-0.2-0.1-0.2-0.2v-1.5c0-0.1,0.1-0.2,0.2-0.2c0.1,0,0.2,0.1,0.2,0.2v1.5C305.8,893,305.7,893.1,305.6,893.1z
			 M259.5,892.6c-0.1,0-0.2-0.1-0.2-0.2v-1.5c0-0.1,0.1-0.2,0.2-0.2c0.1,0,0.2,0.1,0.2,0.2v1.5C259.6,892.5,259.6,892.6,259.5,892.6
			z M305.6,890c-0.1,0-0.2-0.1-0.2-0.2v-1.5c0-0.1,0.1-0.2,0.2-0.2c0.1,0,0.2,0.1,0.2,0.2v1.5C305.8,889.9,305.7,890,305.6,890z
			 M259.5,889.5c-0.1,0-0.2-0.1-0.2-0.2v-1.5c0-0.1,0.1-0.2,0.2-0.2c0.1,0,0.2,0.1,0.2,0.2v1.5C259.6,889.4,259.6,889.5,259.5,889.5
			z M305.6,886.9c-0.1,0-0.2-0.1-0.2-0.2v-1.5c0-0.1,0.1-0.2,0.2-0.2c0.1,0,0.2,0.1,0.2,0.2v1.5
			C305.8,886.8,305.7,886.9,305.6,886.9z M259.5,886.4c-0.1,0-0.2-0.1-0.2-0.2v-1.5c0-0.1,0.1-0.2,0.2-0.2c0.1,0,0.2,0.1,0.2,0.2
			v1.5C259.6,886.3,259.6,886.4,259.5,886.4z M305.6,883.8c-0.1,0-0.2-0.1-0.2-0.2v-1.5c0-0.1,0.1-0.2,0.2-0.2
			c0.1,0,0.2,0.1,0.2,0.2v1.5C305.8,883.7,305.7,883.8,305.6,883.8z M259.5,883.3c-0.1,0-0.2-0.1-0.2-0.2v-1.5h1.7
			c0.1,0,0.2,0.1,0.2,0.2s-0.1,0.2-0.2,0.2h-1.4v1.2C259.6,883.2,259.6,883.3,259.5,883.3z M304.3,882h-1.5c-0.1,0-0.2-0.1-0.2-0.2
			s0.1-0.2,0.2-0.2h1.5c0.1,0,0.2,0.1,0.2,0.2S304.4,882,304.3,882z M301.2,882h-1.5c-0.1,0-0.2-0.1-0.2-0.2s0.1-0.2,0.2-0.2h1.5
			c0.1,0,0.2,0.1,0.2,0.2S301.3,882,301.2,882z M298.1,882h-1.5c-0.1,0-0.2-0.1-0.2-0.2s0.1-0.2,0.2-0.2h1.5c0.1,0,0.2,0.1,0.2,0.2
			S298.3,882,298.1,882z M295,882h-1.5c-0.1,0-0.2-0.1-0.2-0.2s0.1-0.2,0.2-0.2h1.5c0.1,0,0.2,0.1,0.2,0.2S295.2,882,295,882z
			 M292,882h-1.5c-0.1,0-0.2-0.1-0.2-0.2s0.1-0.2,0.2-0.2h1.5c0.1,0,0.2,0.1,0.2,0.2S292.1,882,292,882z M288.9,882h-1.5
			c-0.1,0-0.2-0.1-0.2-0.2s0.1-0.2,0.2-0.2h1.5c0.1,0,0.2,0.1,0.2,0.2S289,882,288.9,882z M285.8,882h-1.5c-0.1,0-0.2-0.1-0.2-0.2
			s0.1-0.2,0.2-0.2h1.5c0.1,0,0.2,0.1,0.2,0.2S285.9,882,285.8,882z M282.7,882h-1.5c-0.1,0-0.2-0.1-0.2-0.2s0.1-0.2,0.2-0.2h1.5
			c0.1,0,0.2,0.1,0.2,0.2S282.8,882,282.7,882z M279.6,882H278c-0.1,0-0.2-0.1-0.2-0.2s0.1-0.2,0.2-0.2h1.5c0.1,0,0.2,0.1,0.2,0.2
			S279.7,882,279.6,882z M276.5,882h-1.5c-0.1,0-0.2-0.1-0.2-0.2s0.1-0.2,0.2-0.2h1.5c0.1,0,0.2,0.1,0.2,0.2S276.6,882,276.5,882z
			 M273.4,882h-1.5c-0.1,0-0.2-0.1-0.2-0.2s0.1-0.2,0.2-0.2h1.5c0.1,0,0.2,0.1,0.2,0.2S273.5,882,273.4,882z M270.3,882h-1.5
			c-0.1,0-0.2-0.1-0.2-0.2s0.1-0.2,0.2-0.2h1.5c0.1,0,0.2,0.1,0.2,0.2S270.4,882,270.3,882z M267.2,882h-1.5c-0.1,0-0.2-0.1-0.2-0.2
			s0.1-0.2,0.2-0.2h1.5c0.1,0,0.2,0.1,0.2,0.2S267.3,882,267.2,882z M264.1,882h-1.5c-0.1,0-0.2-0.1-0.2-0.2s0.1-0.2,0.2-0.2h1.5
			c0.1,0,0.2,0.1,0.2,0.2S264.2,882,264.1,882z"/>
	</g>
	<g id="Tracciato_542">
		<path class="st1" d="M310.3,904.1h-1.5c-0.1,0-0.2-0.1-0.2-0.2s0.1-0.2,0.2-0.2h1.5c0.1,0,0.2,0.1,0.2,0.2
			S310.5,904.1,310.3,904.1z M307.3,904.1h-1.5c-0.1,0-0.2-0.1-0.2-0.2s0.1-0.2,0.2-0.2h1.5c0.1,0,0.2,0.1,0.2,0.2
			S307.4,904.1,307.3,904.1z M304.2,904.1h-1.5c-0.1,0-0.2-0.1-0.2-0.2s0.1-0.2,0.2-0.2h1.5c0.1,0,0.2,0.1,0.2,0.2
			S304.3,904.1,304.2,904.1z M301.1,904.1h-1.5c-0.1,0-0.2-0.1-0.2-0.2s0.1-0.2,0.2-0.2h1.5c0.1,0,0.2,0.1,0.2,0.2
			S301.2,904.1,301.1,904.1z M298,904.1h-1.5c-0.1,0-0.2-0.1-0.2-0.2s0.1-0.2,0.2-0.2h1.5c0.1,0,0.2,0.1,0.2,0.2
			S298.1,904.1,298,904.1z M294.9,904.1h-1.5c-0.1,0-0.2-0.1-0.2-0.2s0.1-0.2,0.2-0.2h1.5c0.1,0,0.2,0.1,0.2,0.2
			S295,904.1,294.9,904.1z M291.8,904.1h-1.5c-0.1,0-0.2-0.1-0.2-0.2s0.1-0.2,0.2-0.2h1.5c0.1,0,0.2,0.1,0.2,0.2
			S291.9,904.1,291.8,904.1z M288.7,904.1h-1.5c-0.1,0-0.2-0.1-0.2-0.2s0.1-0.2,0.2-0.2h1.5c0.1,0,0.2,0.1,0.2,0.2
			S288.8,904.1,288.7,904.1z M285.6,904.1H284c-0.1,0-0.2-0.1-0.2-0.2s0.1-0.2,0.2-0.2h1.5c0.1,0,0.2,0.1,0.2,0.2
			S285.7,904.1,285.6,904.1z M282.5,904.1h-1.5c-0.1,0-0.2-0.1-0.2-0.2s0.1-0.2,0.2-0.2h1.5c0.1,0,0.2,0.1,0.2,0.2
			S282.6,904.1,282.5,904.1z M279.4,904.1h-1.5c-0.1,0-0.2-0.1-0.2-0.2s0.1-0.2,0.2-0.2h1.5c0.1,0,0.2,0.1,0.2,0.2
			S279.5,904.1,279.4,904.1z M276.3,904.1h-1.5c-0.1,0-0.2-0.1-0.2-0.2s0.1-0.2,0.2-0.2h1.5c0.1,0,0.2,0.1,0.2,0.2
			S276.4,904.1,276.3,904.1z M273.2,904.1h-1.5c-0.1,0-0.2-0.1-0.2-0.2s0.1-0.2,0.2-0.2h1.5c0.1,0,0.2,0.1,0.2,0.2
			S273.3,904.1,273.2,904.1z M270.1,904.1h-1.5c-0.1,0-0.2-0.1-0.2-0.2s0.1-0.2,0.2-0.2h1.5c0.1,0,0.2,0.1,0.2,0.2
			S270.2,904.1,270.1,904.1z M267,904.1h-1.5c-0.1,0-0.2-0.1-0.2-0.2s0.1-0.2,0.2-0.2h1.5c0.1,0,0.2,0.1,0.2,0.2
			S267.1,904.1,267,904.1z M263.9,904.1h-1.5c-0.1,0-0.2-0.1-0.2-0.2s0.1-0.2,0.2-0.2h1.5c0.1,0,0.2,0.1,0.2,0.2
			S264,904.1,263.9,904.1z M260.8,904.1h-1.5c-0.1,0-0.2-0.1-0.2-0.2s0.1-0.2,0.2-0.2h1.5c0.1,0,0.2,0.1,0.2,0.2
			S260.9,904.1,260.8,904.1z M257.7,904.1h-1.5c-0.1,0-0.2-0.1-0.2-0.2s0.1-0.2,0.2-0.2h1.5c0.1,0,0.2,0.1,0.2,0.2
			S257.8,904.1,257.7,904.1z M254.6,904.1h-1.2v-0.7c0-0.1,0.1-0.2,0.2-0.2s0.2,0.1,0.2,0.2v0.3h0.8c0.1,0,0.2,0.1,0.2,0.2
			S254.7,904.1,254.6,904.1z M311.3,903.6c-0.1,0-0.2-0.1-0.2-0.2v-1.5c0-0.1,0.1-0.2,0.2-0.2s0.2,0.1,0.2,0.2v1.5
			C311.5,903.5,311.4,903.6,311.3,903.6z M253.6,902.1c-0.1,0-0.2-0.1-0.2-0.2v-1.5c0-0.1,0.1-0.2,0.2-0.2s0.2,0.1,0.2,0.2v1.5
			C253.8,902,253.7,902.1,253.6,902.1z M311.3,900.5c-0.1,0-0.2-0.1-0.2-0.2v-1.5c0-0.1,0.1-0.2,0.2-0.2s0.2,0.1,0.2,0.2v1.5
			C311.5,900.4,311.4,900.5,311.3,900.5z M253.6,899c-0.1,0-0.2-0.1-0.2-0.2v-1.5c0-0.1,0.1-0.2,0.2-0.2s0.2,0.1,0.2,0.2v1.5
			C253.8,898.9,253.7,899,253.6,899z M311.3,897.4c-0.1,0-0.2-0.1-0.2-0.2v-1.5c0-0.1,0.1-0.2,0.2-0.2s0.2,0.1,0.2,0.2v1.5
			C311.5,897.3,311.4,897.4,311.3,897.4z M253.6,895.9c-0.1,0-0.2-0.1-0.2-0.2v-1.5c0-0.1,0.1-0.2,0.2-0.2s0.2,0.1,0.2,0.2v1.5
			C253.8,895.8,253.7,895.9,253.6,895.9z M311.3,894.3c-0.1,0-0.2-0.1-0.2-0.2v-1.5c0-0.1,0.1-0.2,0.2-0.2s0.2,0.1,0.2,0.2v1.5
			C311.5,894.2,311.4,894.3,311.3,894.3z M253.6,892.8c-0.1,0-0.2-0.1-0.2-0.2v-1.5c0-0.1,0.1-0.2,0.2-0.2s0.2,0.1,0.2,0.2v1.5
			C253.8,892.7,253.7,892.8,253.6,892.8z M311.3,891.2c-0.1,0-0.2-0.1-0.2-0.2v-1.5c0-0.1,0.1-0.2,0.2-0.2s0.2,0.1,0.2,0.2v1.5
			C311.5,891.1,311.4,891.2,311.3,891.2z M253.6,889.7c-0.1,0-0.2-0.1-0.2-0.2V888c0-0.1,0.1-0.2,0.2-0.2s0.2,0.1,0.2,0.2v1.5
			C253.8,889.6,253.7,889.7,253.6,889.7z M311.3,888.1c-0.1,0-0.2-0.1-0.2-0.2v-1.5c0-0.1,0.1-0.2,0.2-0.2s0.2,0.1,0.2,0.2v1.5
			C311.5,888,311.4,888.1,311.3,888.1z M253.6,886.6c-0.1,0-0.2-0.1-0.2-0.2v-1.5c0-0.1,0.1-0.2,0.2-0.2s0.2,0.1,0.2,0.2v1.5
			C253.8,886.5,253.7,886.6,253.6,886.6z M311.3,885c-0.1,0-0.2-0.1-0.2-0.2v-1.5c0-0.1,0.1-0.2,0.2-0.2s0.2,0.1,0.2,0.2v1.5
			C311.5,884.9,311.4,885,311.3,885z M253.6,883.5c-0.1,0-0.2-0.1-0.2-0.2v-1.5c0-0.1,0.1-0.2,0.2-0.2s0.2,0.1,0.2,0.2v1.5
			C253.8,883.4,253.7,883.5,253.6,883.5z M311.3,881.9c-0.1,0-0.2-0.1-0.2-0.2v-1.5c0-0.1,0.1-0.2,0.2-0.2s0.2,0.1,0.2,0.2v1.5
			C311.5,881.8,311.4,881.9,311.3,881.9z M253.6,880.4c-0.1,0-0.2-0.1-0.2-0.2v-1.5c0-0.1,0.1-0.2,0.2-0.2s0.2,0.1,0.2,0.2v1.5
			C253.8,880.3,253.7,880.4,253.6,880.4z M311.3,878.8c-0.1,0-0.2-0.1-0.2-0.2v-1.5c0-0.1,0.1-0.2,0.2-0.2s0.2,0.1,0.2,0.2v1.5
			C311.5,878.7,311.4,878.8,311.3,878.8z M253.6,877.3c-0.1,0-0.2-0.1-0.2-0.2v-1.3h1.7c0.1,0,0.2,0.1,0.2,0.2
			c0,0.1-0.1,0.2-0.2,0.2h-1.4v0.9C253.8,877.2,253.7,877.3,253.6,877.3z M310.9,876.2h-1.5c-0.1,0-0.2-0.1-0.2-0.2
			c0-0.1,0.1-0.2,0.2-0.2h1.5c0.1,0,0.2,0.1,0.2,0.2C311.1,876.1,311,876.2,310.9,876.2z M307.8,876.2h-1.5c-0.1,0-0.2-0.1-0.2-0.2
			c0-0.1,0.1-0.2,0.2-0.2h1.5c0.1,0,0.2,0.1,0.2,0.2C308,876.1,307.9,876.2,307.8,876.2z M304.7,876.2h-1.5c-0.1,0-0.2-0.1-0.2-0.2
			c0-0.1,0.1-0.2,0.2-0.2h1.5c0.1,0,0.2,0.1,0.2,0.2C304.9,876.1,304.8,876.2,304.7,876.2z M301.6,876.2H300c-0.1,0-0.2-0.1-0.2-0.2
			c0-0.1,0.1-0.2,0.2-0.2h1.5c0.1,0,0.2,0.1,0.2,0.2C301.8,876.1,301.7,876.2,301.6,876.2z M298.5,876.2h-1.5
			c-0.1,0-0.2-0.1-0.2-0.2c0-0.1,0.1-0.2,0.2-0.2h1.5c0.1,0,0.2,0.1,0.2,0.2C298.7,876.1,298.6,876.2,298.5,876.2z M295.4,876.2
			h-1.5c-0.1,0-0.2-0.1-0.2-0.2c0-0.1,0.1-0.2,0.2-0.2h1.5c0.1,0,0.2,0.1,0.2,0.2C295.6,876.1,295.5,876.2,295.4,876.2z
			 M292.3,876.2h-1.5c-0.1,0-0.2-0.1-0.2-0.2c0-0.1,0.1-0.2,0.2-0.2h1.5c0.1,0,0.2,0.1,0.2,0.2C292.5,876.1,292.4,876.2,292.3,876.2
			z M289.2,876.2h-1.5c-0.1,0-0.2-0.1-0.2-0.2c0-0.1,0.1-0.2,0.2-0.2h1.5c0.1,0,0.2,0.1,0.2,0.2
			C289.4,876.1,289.3,876.2,289.2,876.2z M286.1,876.2h-1.5c-0.1,0-0.2-0.1-0.2-0.2c0-0.1,0.1-0.2,0.2-0.2h1.5
			c0.1,0,0.2,0.1,0.2,0.2C286.3,876.1,286.2,876.2,286.1,876.2z M283,876.2h-1.5c-0.1,0-0.2-0.1-0.2-0.2c0-0.1,0.1-0.2,0.2-0.2h1.5
			c0.1,0,0.2,0.1,0.2,0.2C283.2,876.1,283.1,876.2,283,876.2z M279.9,876.2h-1.5c-0.1,0-0.2-0.1-0.2-0.2c0-0.1,0.1-0.2,0.2-0.2h1.5
			c0.1,0,0.2,0.1,0.2,0.2C280.1,876.1,280,876.2,279.9,876.2z M276.8,876.2h-1.5c-0.1,0-0.2-0.1-0.2-0.2c0-0.1,0.1-0.2,0.2-0.2h1.5
			c0.1,0,0.2,0.1,0.2,0.2C277,876.1,276.9,876.2,276.8,876.2z M273.7,876.2h-1.5c-0.1,0-0.2-0.1-0.2-0.2c0-0.1,0.1-0.2,0.2-0.2h1.5
			c0.1,0,0.2,0.1,0.2,0.2C273.9,876.1,273.8,876.2,273.7,876.2z M270.6,876.2h-1.5c-0.1,0-0.2-0.1-0.2-0.2c0-0.1,0.1-0.2,0.2-0.2
			h1.5c0.1,0,0.2,0.1,0.2,0.2C270.8,876.1,270.7,876.2,270.6,876.2z M267.5,876.2H266c-0.1,0-0.2-0.1-0.2-0.2c0-0.1,0.1-0.2,0.2-0.2
			h1.5c0.1,0,0.2,0.1,0.2,0.2C267.7,876.1,267.6,876.2,267.5,876.2z M264.4,876.2h-1.5c-0.1,0-0.2-0.1-0.2-0.2
			c0-0.1,0.1-0.2,0.2-0.2h1.5c0.1,0,0.2,0.1,0.2,0.2C264.6,876.1,264.5,876.2,264.4,876.2z M261.3,876.2h-1.5
			c-0.1,0-0.2-0.1-0.2-0.2c0-0.1,0.1-0.2,0.2-0.2h1.5c0.1,0,0.2,0.1,0.2,0.2C261.5,876.1,261.4,876.2,261.3,876.2z M258.2,876.2
			h-1.5c-0.1,0-0.2-0.1-0.2-0.2c0-0.1,0.1-0.2,0.2-0.2h1.5c0.1,0,0.2,0.1,0.2,0.2C258.4,876.1,258.4,876.2,258.2,876.2z"/>
	</g>
	<g id="Raggruppa_117" transform="translate(301.86 924.244)">
		<path id="Tracciato_424" d="M-35-42.2c1.2,0.1,2.1,0.2,4.1,0.9l2,9l-6.2,6.1v-0.8l5.6-5.5l-1.9-8.4c-1.6-0.5-2.3-0.6-3.1-0.7
			l-1.6,15.4l-6.1-6.1l2-9c2-0.6,2.8-0.8,4.1-0.9l0,0.6c-1.3,0.1-1.7,0.2-3.6,0.7l-1.9,8.4l5.1,5.1L-35-42.2z"/>
		<path id="Tracciato_425" d="M-35.5-38c-0.6,0-1.1,0.5-1.1,1.1v3.2c0,0.6,0.5,1.1,1.1,1.1c0.6,0,1.1-0.5,1.1-1.1v-3.2
			C-34.5-37.5-34.9-38-35.5-38"/>
		<path id="Tracciato_426" d="M-25.1-33.5l1.8,1v-0.4l-1.3-0.8l1.3-0.8v-0.4l-1.8,1V-33.5z"/>
		<path id="Tracciato_427" d="M1.8-34.7v0.4l1.3,0.8l-1.3,0.8v0.4l1.8-1v-0.2L1.8-34.7z"/>
		<path id="Tracciato_428" d="M-20.5-34.4c-0.1-0.1-0.2-0.2-0.3-0.2c-0.2-0.1-0.4-0.2-0.6-0.2c-0.3,0-0.7,0.1-0.9,0.4
			c-0.5,0.5-0.5,1.3,0,1.7c0,0,0,0,0,0c0.2,0.2,0.5,0.4,0.9,0.4c0.2,0,0.4-0.1,0.6-0.2c0.1-0.1,0.2-0.1,0.3-0.2v0.4h0.3v-3.8h-0.3
			V-34.4z M-22.1-33c-0.4-0.4-0.4-0.9,0-1.3c0.2-0.2,0.4-0.3,0.6-0.3c0.5,0,0.9,0.4,0.9,0.9c0,0.2-0.1,0.5-0.3,0.6
			c-0.2,0.2-0.4,0.3-0.6,0.3C-21.7-32.7-21.9-32.8-22.1-33"/>
		<path id="Tracciato_429" d="M-17.8-32.8c-0.3,0.2-0.7,0.2-1-0.1l1.5-1.5c-0.7-1-2.2-0.5-2.2,0.7c0,0.7,0.6,1.3,1.3,1.3
			c0.4,0,0.8-0.2,1-0.5l0-0.5C-17.4-33.1-17.6-32.9-17.8-32.8 M-17.7-34.3l-1.3,1.3C-19.6-33.9-18.5-35-17.7-34.3"/>
		<path id="Tracciato_430" d="M-10.8-32.8c-0.3,0.2-0.7,0.2-1-0.1l1.5-1.5c-0.7-1-2.2-0.5-2.2,0.7c0,0.7,0.6,1.3,1.3,1.3
			c0.4,0,0.8-0.2,1-0.5l0-0.5C-10.4-33.1-10.6-32.9-10.8-32.8 M-10.8-34.3l-1.3,1.3C-12.7-33.9-11.6-35-10.8-34.3"/>
		<path id="Tracciato_431" d="M-2.2-32.8c-0.3,0.2-0.7,0.2-1-0.1l1.5-1.5c-0.7-1-2.2-0.5-2.2,0.7c0,0.7,0.6,1.3,1.3,1.3
			c0.4,0,0.8-0.2,1-0.5l0-0.5C-1.8-33.1-2-32.9-2.2-32.8 M-2.1-34.3l-1.3,1.3C-4-33.9-2.9-35-2.1-34.3"/>
		<path id="Tracciato_432" d="M-15.5-34.9c-0.3,0-0.6,0.1-0.8,0.3v-0.2h-0.3v2.4h0.3v-1.4c0-0.2,0.1-0.4,0.2-0.5
			c0.1-0.1,0.3-0.2,0.5-0.2c0.2,0,0.4,0.1,0.5,0.2c0.1,0.1,0.2,0.3,0.2,0.5v1.4h0.3v-1.4c0-0.3-0.1-0.5-0.3-0.7
			C-14.9-34.7-15.2-34.9-15.5-34.9"/>
		<path id="Tracciato_433" d="M0.1-34.9c-0.3,0-0.6,0.1-0.8,0.3v-0.2H-1v2.4h0.3v-1.4c0-0.2,0.1-0.4,0.2-0.5
			c0.1-0.1,0.3-0.2,0.5-0.2c0.2,0,0.4,0.1,0.5,0.2c0.1,0.1,0.2,0.3,0.2,0.5v1.4h0.3v-1.4c0-0.3-0.1-0.5-0.3-0.7
			C0.7-34.7,0.4-34.9,0.1-34.9"/>
		<path id="Tracciato_434" d="M-13.5-35.6c-0.1,0-0.2,0.1-0.2,0.2s0.1,0.2,0.2,0.2c0.1,0,0.2-0.1,0.2-0.2
			C-13.3-35.5-13.3-35.6-13.5-35.6C-13.5-35.6-13.5-35.6-13.5-35.6"/>
		<rect id="Rettangolo_37" x="-13.7" y="-34.8" width="0.3" height="2.4"/>
		<path id="Tracciato_435" d="M-7.1-36.2l-2.8,3.8h0.4l2.9-3.8H-7.1z"/>
		<path id="Tracciato_436" d="M-4.9-34.4c-0.1-0.1-0.2-0.2-0.3-0.2c-0.2-0.1-0.4-0.2-0.6-0.2c-0.3,0-0.7,0.1-0.9,0.4
			c-0.5,0.5-0.5,1.3,0,1.7c0,0,0,0,0,0c0.2,0.2,0.5,0.4,0.9,0.4c0.2,0,0.4-0.1,0.6-0.2c0.1-0.1,0.2-0.1,0.3-0.2v0.4h0.3v-3.8h-0.3
			V-34.4z M-6.5-33c-0.4-0.4-0.4-0.9,0-1.3c0.2-0.2,0.4-0.3,0.6-0.3c0.5,0,0.9,0.4,0.9,0.9c0,0.2-0.1,0.5-0.3,0.6
			c-0.2,0.2-0.4,0.3-0.6,0.3C-6.1-32.7-6.3-32.8-6.5-33"/>
	</g>
</g>
</svg>
