<?xml version="1.0" encoding="utf-8"?>
<svg viewBox="0 0 56.7 45.6" xmlns="http://www.w3.org/2000/svg" xml:space="preserve">
<style type="text/css">
	.black{fill:#000000;}
	.orange{fill:#FF9200;}
	.purple{fill:#890052;}
</style>
<path class="purple" d="M29.4,0c2.5,0.2,4.1,0.4,8.1,1.7l4.1,17.9L29.4,31.7v-1.5l11-10.9L36.6,2.6c-3.2-1-4.6-1.3-6.2-1.4l-3.1,30.5
	L15.2,19.6l4.1-17.9c4-1.2,5.5-1.6,8.1-1.7l0,1.1c-2.5,0.2-3.4,0.3-7.2,1.5l-3.8,16.7l10.1,10L29.4,0z"/>
<path class="orange" d="M28.3,8.3c-1.2,0-2.1,0.9-2.1,2.1v6.3c0,1.2,0.9,2.1,2.1,2.1c1.2,0,2.1-0.9,2.1-2.1v-6.3
	C30.4,9.2,29.5,8.3,28.3,8.3z"/>
<g>
	<polygon class="purple" points="0,43.4 3.5,45.4 3.5,44.7 0.9,43.1 3.5,41.6 3.5,40.9 0,42.9 	"/>
	<polygon class="purple" points="53.2,40.9 53.2,41.6 55.8,43.2 53.2,44.7 53.2,45.4 56.7,43.4 56.7,42.9 	"/>
	<path class="black" d="M9,41.5c-0.2-0.2-0.3-0.3-0.6-0.4c-0.4-0.3-0.8-0.4-1.2-0.4c-0.7,0-1.2,0.3-1.7,0.8c-0.5,0.5-0.7,1.1-0.7,1.7
		c0,0.7,0.2,1.2,0.7,1.7c0.5,0.5,1.1,0.8,1.7,0.8c0.4,0,0.8-0.1,1.2-0.4C8.7,45.1,8.9,45,9,44.8v0.7h0.7v-7.6H9V41.5z M6,44.4
		c-0.4-0.4-0.5-0.8-0.5-1.3c0-0.5,0.2-0.9,0.5-1.3c0.4-0.4,0.8-0.6,1.3-0.6s0.9,0.2,1.3,0.6C8.9,42.2,9,42.6,9,43.1
		c0,0.5-0.2,0.9-0.5,1.3C8.1,44.8,7.7,45,7.2,45C6.8,45,6.3,44.8,6,44.4z"/>
	<path class="black" d="M14.4,44.7c-0.6,0.3-1.3,0.4-1.9-0.1l2.9-2.9C14,39.7,11,40.8,11,43.1c0.1,2.4,3,3.4,4.5,1.5l0-1.1
		C15.1,44.1,14.8,44.5,14.4,44.7z M14.5,41.7L12,44.2C10.8,42.6,13,40.4,14.5,41.7z"/>
	<path class="black" d="M28.2,44.7c-0.6,0.3-1.3,0.4-1.9-0.1l2.9-2.9c-1.5-2.1-4.4-0.9-4.4,1.4c0.1,2.4,3,3.4,4.5,1.5l0-1.1
		C28.9,44.1,28.6,44.5,28.2,44.7z M28.3,41.7l-2.5,2.5C24.6,42.6,26.7,40.4,28.3,41.7z"/>
	<path class="black" d="M45.3,44.7c-0.6,0.3-1.3,0.4-1.9-0.1l2.9-2.9c-1.5-2.1-4.4-0.9-4.4,1.4c0.1,2.4,3,3.4,4.5,1.5l0-1.1
		C46,44.1,45.7,44.5,45.3,44.7z M45.4,41.7l-2.5,2.5C41.6,42.6,43.8,40.4,45.4,41.7z"/>
	<path class="black" d="M19,40.7c-0.6,0-1.1,0.2-1.5,0.6v-0.5h-0.7v4.8h0.7v-2.8c0-0.4,0.1-0.7,0.5-1c0.3-0.3,0.6-0.4,1-0.4
		c0.4,0,0.7,0.1,1,0.4c0.3,0.3,0.4,0.6,0.4,1v2.8H21v-2.8c0-0.6-0.2-1.1-0.6-1.5C20.1,40.9,19.6,40.7,19,40.7z"/>
	<path class="black" d="M49.8,40.7c-0.6,0-1.1,0.2-1.5,0.6v-0.5h-0.7v4.8h0.7v-2.8c0-0.4,0.1-0.7,0.5-1c0.3-0.3,0.6-0.4,1-0.4
		c0.4,0,0.7,0.1,1,0.4c0.3,0.3,0.4,0.6,0.4,1v2.8h0.7v-2.8c0-0.6-0.2-1.1-0.6-1.5C50.9,40.9,50.4,40.7,49.8,40.7z"/>
	<ellipse class="black" cx="22.9" cy="39.6" rx="0.5" ry="0.4"/>
	<rect x="22.6" y="40.8" class="black" width="0.7" height="4.8"/>
	<polygon class="purple" points="35.5,38 29.9,45.6 30.7,45.6 36.3,38 	"/>
	<path class="black" d="M39.9,41.5c-0.2-0.2-0.3-0.3-0.6-0.4c-0.4-0.3-0.8-0.4-1.2-0.4c-0.7,0-1.2,0.3-1.7,0.8
		c-0.5,0.5-0.7,1.1-0.7,1.7c0,0.7,0.2,1.2,0.7,1.7c0.5,0.5,1.1,0.8,1.7,0.8c0.4,0,0.8-0.1,1.2-0.4c0.2-0.1,0.4-0.3,0.6-0.5v0.7h0.7
		v-7.6h-0.7V41.5z M36.8,44.4c-0.4-0.4-0.5-0.8-0.5-1.3c0-0.5,0.2-0.9,0.5-1.3c0.4-0.4,0.8-0.6,1.3-0.6s0.9,0.2,1.3,0.6
		c0.4,0.4,0.5,0.8,0.5,1.3c0,0.5-0.2,0.9-0.5,1.3C39,44.8,38.5,45,38.1,45C37.6,45,37.2,44.8,36.8,44.4z"/>
</g>
</svg>
