<?xml version="1.0" encoding="UTF-8"?>
<svg xmlns="http://www.w3.org/2000/svg" viewBox="0 0 54.3 28.3" xml:space="preserve">
<style type="text/css">
	.st0{fill:#563D4B;}
	.st1{opacity:0.6;}
	.st2{opacity:0.5;fill:#FF9200;enable-background:new;}
	.st3{fill:#FF9200;}
	.st4{opacity:0.2;fill:#FF9200;enable-background:new;}
	.st5{opacity:0.3;fill:#FF9200;enable-background:new;}
	.st6{fill:#DEB7B7;}
	.st7{fill:#202020;}
	.st8{fill:#4F3843;}
	.st9{fill:#3F3D56;}
	.st10{fill:#680048;}
	.st11{opacity:0.1;enable-background:new;}
	.st12{fill:#EFEAED;}
	.st13{fill:#412E36;}
	.st14{fill:#890052;}
	.st15{opacity:0.8;}
</style>
<ellipse class="st0" cx="27.2" cy="27.1" rx="27.2" ry="1.3"></ellipse>
<g class="st1">
	<path class="st2" d="M33.3,12.9c0,0-0.1-0.1-0.2,0c0,0-0.1,0.1,0,0.1c0,0,0,0.1,0.1,0.1c0.3,0.3,0.4,0.8,0.5,1.2   c0,0.1,0.1,0.2,0,0.3c0-0.3,0-0.6-0.1-0.8c-0.1-0.3-0.2-0.5-0.3-0.8C33.4,13,33.4,12.9,33.3,12.9z"></path>
	<path class="st3" d="M31.7,13.6c-0.2,0-0.2,0.3,0,0.3c0,0,0.1,0,0.1,0c0.5,0,1,0.2,1.5,0.4c0.1,0.1,0.2,0.1,0.3,0.2   c-0.2-0.2-0.5-0.4-0.8-0.6c-0.3-0.1-0.6-0.2-1-0.3C31.8,13.6,31.7,13.6,31.7,13.6z"></path>
	<path class="st4" d="M31.7,14.3c-0.1,0-0.1,0.2,0,0.2c0,0,0.1,0,0.1,0c0.3,0,0.7,0.1,1,0.2c0.1,0,0.2,0.1,0.2,0.1   c-0.2-0.1-0.4-0.2-0.6-0.3c-0.2-0.1-0.4-0.1-0.6-0.1C31.8,14.3,31.7,14.3,31.7,14.3z"></path>
	<path class="st2" d="M34,17.2c0,0.1,0.2,0,0.1-0.1c0,0,0-0.1,0-0.1C34,16.7,34,16.3,34,16c0-0.1,0-0.2,0.1-0.2   c-0.1,0.2-0.1,0.4-0.1,0.6c0,0.2,0,0.4,0,0.7C33.9,17.1,33.9,17.1,34,17.2z"></path>
	<path class="st4" d="M31.9,12.7C31.8,12.7,31.8,12.8,31.9,12.7c0,0.1,0,0.1,0,0.1c0.2,0,0.4,0.1,0.6,0.2c0,0,0.1,0.1,0.1,0.1   c-0.1-0.1-0.2-0.2-0.3-0.3C32.2,12.9,32.1,12.8,31.9,12.7C32,12.8,31.9,12.7,31.9,12.7z"></path>
	<path class="st3" d="M30.9,15.3c-0.2,0.1,0,0.3,0.1,0.2c0,0,0.1,0,0.1-0.1c0.5-0.3,1.1-0.4,1.7-0.4c0.1,0,0.3,0,0.4,0   c-0.4-0.1-0.7-0.1-1.1-0.1c-0.4,0.1-0.7,0.1-1.1,0.2C31,15.2,30.9,15.3,30.9,15.3z"></path>
	<path class="st2" d="M31.4,16.2c-0.1,0.1,0.1,0.2,0.2,0.1c0,0,0.1-0.1,0.1-0.1c0.4-0.3,0.9-0.6,1.3-0.8c0.1-0.1,0.6-0.1,0.7-0.1   c-0.3,0-1,0.1-1.3,0.3c-0.3,0.1-0.6,0.3-0.9,0.5C31.5,16.1,31.4,16.2,31.4,16.2z"></path>
	<path class="st3" d="M32.2,17.7c0,0.2,0.2,0.2,0.2,0c0,0,0-0.1,0-0.1c0.1-0.5,0.4-1,0.6-1.4c0.1-0.1,0.4-0.4,0.5-0.5   c-0.3,0.2-0.8,0.7-0.9,1c-0.2,0.3-0.3,0.6-0.4,0.9C32.3,17.6,32.2,17.6,32.2,17.7z"></path>
	<path class="st3" d="M34,12c-0.1-0.2-0.3,0-0.2,0.1c0,0,0,0.1,0.1,0.1c0.3,0.5,0.3,1.1,0.4,1.7c0,0.1,0,0.3,0,0.4   c0.1-0.4,0.1-0.7,0.1-1.1c0-0.4-0.1-0.7-0.2-1.1C34,12.2,34,12.1,34,12z"></path>
	<path class="st3" d="M32.6,12.3C32.7,12.3,32.7,12.3,32.6,12.3C32.7,12.3,32.7,12.3,32.6,12.3c0.1-0.1,0-0.1,0.1-0.2   c0,0,0.1,0.1,0.1,0.1l0.1,0c0,0,0,0.1,0,0.1c0,0,0,0,0.1,0c0,0,0,0,0,0.1c0,0-0.1,0-0.1,0c0,0.1,0,0.1,0,0.2c0,0,0,0,0,0   c0,0,0,0,0,0c0,0-0.1-0.1-0.1-0.1l0,0.1c0,0,0,0,0,0c0,0,0,0,0,0c0,0,0,0,0,0l0-0.1c0,0,0,0,0,0c0,0,0,0,0,0c0,0-0.1,0-0.1,0   c0,0,0,0,0-0.1c0,0,0,0,0.1,0c0,0,0-0.1,0-0.1S32.6,12.3,32.6,12.3z"></path>
	<path class="st2" d="M35,12.9c0,0,0.1-0.1,0.2,0c0,0,0.1,0.1,0,0.2c0,0,0,0.1-0.1,0.1c-0.3,0.3-0.4,0.8-0.5,1.2   c0,0.1-0.1,0.2,0,0.3c0-0.3,0-0.6,0.1-0.8c0.1-0.3,0.2-0.5,0.3-0.8C34.9,13,34.9,12.9,35,12.9z"></path>
	<path class="st3" d="M36.6,13.6c0.2,0,0.2,0.3,0,0.3c0,0-0.1,0-0.1,0c-0.5,0-1,0.2-1.5,0.4c-0.1,0.1-0.2,0.1-0.3,0.2   c0.2-0.2,0.5-0.4,0.8-0.6c0.3-0.1,0.6-0.2,1-0.3C36.5,13.6,36.6,13.6,36.6,13.6z"></path>
	<path class="st2" d="M36.6,14.3c0.1,0,0.1,0.2,0,0.2c0,0-0.1,0-0.1,0c-0.3,0-0.7,0.1-1,0.2c-0.1,0-0.2,0.1-0.2,0.1   c0.2-0.1,0.4-0.2,0.6-0.3c0.2-0.1,0.4-0.1,0.6-0.1C36.5,14.3,36.6,14.3,36.6,14.3z"></path>
	<path class="st4" d="M36.4,12.7C36.5,12.7,36.5,12.8,36.4,12.7c0,0.1,0,0.1,0,0.1c-0.2,0-0.4,0.1-0.6,0.2c0,0-0.1,0.1-0.1,0.1   c0.1-0.1,0.2-0.2,0.3-0.3C36.1,12.9,36.2,12.8,36.4,12.7C36.4,12.8,36.4,12.7,36.4,12.7z"></path>
	<path class="st4" d="M34.7,17.4C34.7,17.4,34.6,17.4,34.7,17.4C34.6,17.3,34.6,17.3,34.7,17.4c0-0.3-0.1-0.5-0.1-0.7   c0-0.1,0-0.1,0-0.1c0.1,0.1,0.1,0.3,0.1,0.4C34.7,17,34.7,17.2,34.7,17.4C34.7,17.3,34.7,17.3,34.7,17.4z"></path>
	<path class="st2" d="M36.4,16.9c0.1,0.1-0.1,0.1-0.1,0c0,0,0,0,0-0.1c-0.2-0.3-0.4-0.5-0.6-0.8c-0.1-0.1-0.1-0.1-0.2-0.2   c0.2,0.1,0.4,0.3,0.5,0.4C36,16.5,36.2,16.7,36.4,16.9C36.3,16.9,36.3,16.9,36.4,16.9z"></path>
	<path class="st4" d="M31.8,16.9c-0.1,0.1,0.1,0.1,0.1,0c0,0,0,0,0-0.1c0.2-0.3,0.4-0.5,0.6-0.8c0.1-0.1,0.1-0.1,0.2-0.2   c-0.2,0.1-0.4,0.3-0.5,0.4C32.1,16.5,32,16.7,31.8,16.9C31.8,16.9,31.8,16.9,31.8,16.9z"></path>
	<path class="st4" d="M33.4,17.4C33.5,17.4,33.5,17.4,33.4,17.4C33.5,17.3,33.5,17.3,33.4,17.4c0-0.3,0.1-0.5,0.1-0.7   c0-0.1,0-0.1,0-0.1c-0.1,0.1-0.1,0.3-0.1,0.4C33.4,17,33.4,17.2,33.4,17.4C33.4,17.3,33.4,17.3,33.4,17.4z"></path>
	<path class="st4" d="M35.9,13.4C35.9,13.4,35.9,13.5,35.9,13.4l0,0.1c-0.2,0-0.4,0.1-0.6,0.2c0,0-0.1,0.1-0.1,0.1   c0.1-0.1,0.2-0.2,0.3-0.3C35.6,13.5,35.7,13.5,35.9,13.4C35.8,13.4,35.8,13.4,35.9,13.4z"></path>
	<path class="st4" d="M35.2,12.1C35.3,12.1,35.3,12.2,35.2,12.1l0,0.1c-0.2,0.1-0.3,0.3-0.5,0.4c0,0-0.1,0.1-0.1,0.1   c0-0.1,0.1-0.3,0.2-0.4C35,12.3,35.1,12.2,35.2,12.1C35.2,12.1,35.2,12.1,35.2,12.1z"></path>
	<path class="st3" d="M37.4,15.3c0.2,0.1,0,0.3-0.1,0.2c0,0-0.1,0-0.1-0.1c-0.5-0.3-1.1-0.4-1.7-0.4c-0.1,0-0.3,0-0.4,0   c0.4-0.1,0.7-0.1,1.1-0.1c0.4,0.1,0.7,0.1,1.1,0.2C37.3,15.2,37.4,15.3,37.4,15.3z"></path>
	<path class="st2" d="M36.9,16.2c0.1,0.1-0.1,0.2-0.2,0.1c0,0-0.1-0.1-0.1-0.1c-0.4-0.3-0.9-0.6-1.3-0.8c-0.1-0.1-0.6-0.1-0.7-0.1   c0.3,0,1,0.1,1.3,0.3c0.3,0.1,0.6,0.3,0.9,0.5C36.8,16.1,36.9,16.2,36.9,16.2z"></path>
	<path class="st3" d="M35.5,17.9c0,0.2-0.2,0.1-0.2,0c0,0,0-0.1,0-0.1c0-0.5-0.2-1-0.5-1.5c-0.1-0.1-0.4-0.5-0.5-0.6   c0.2,0.2,0.7,0.8,0.8,1.1c0.1,0.3,0.2,0.6,0.3,1C35.5,17.8,35.5,17.8,35.5,17.9z"></path>
	<path class="st3" d="M35.7,12.3C35.7,12.3,35.6,12.3,35.7,12.3C35.6,12.3,35.6,12.3,35.7,12.3c-0.1-0.1,0-0.1-0.1-0.2   c0,0-0.1,0.1-0.1,0.1l-0.1,0c0,0,0,0.1,0,0.1c0,0,0,0-0.1,0c0,0,0,0,0,0.1c0,0,0.1,0,0.1,0c0,0.1,0,0.1,0,0.2c0,0,0,0,0,0   c0,0,0,0,0,0c0,0,0.1-0.1,0.1-0.1l0,0.1c0,0,0,0,0,0c0,0,0,0,0,0c0,0,0,0,0,0l0-0.1c0,0,0,0,0,0c0,0,0,0,0,0c0,0,0.1,0,0.1,0   c0,0,0,0,0-0.1c0,0,0,0-0.1,0c0,0,0-0.1,0-0.1S35.7,12.3,35.7,12.3z"></path>
	<path class="st4" d="M36,17.3C36,17.3,36,17.3,36,17.3C36,17.3,36,17.3,36,17.3c-0.1-0.1,0-0.1-0.1-0.2c0,0-0.1,0.1-0.1,0.1l-0.1,0   c0,0,0,0.1,0,0.1c0,0,0,0-0.1,0c0,0,0,0,0,0.1c0,0,0.1,0,0.1,0c0,0.1,0,0.1,0,0.2c0,0,0,0,0,0c0,0,0,0,0,0c0,0,0.1-0.1,0.1-0.1   l0,0.1c0,0,0,0,0,0c0,0,0,0,0,0c0,0,0,0,0,0l0-0.1c0,0,0,0,0,0c0,0,0,0,0,0c0,0,0.1,0,0.1,0c0,0,0,0,0-0.1c0,0,0,0-0.1,0   c0,0,0-0.1,0-0.1C36.1,17.2,36.1,17.3,36,17.3z"></path>
	<path class="st3" d="M37,14C37,14,37,14,37,14C37,14,37,14,37,14c-0.1-0.1,0-0.1-0.1-0.2c0,0-0.1,0.1-0.1,0.1l-0.1,0   c0,0,0,0.1,0,0.1c0,0,0,0-0.1,0c0,0,0,0,0,0.1c0,0,0.1,0,0.1,0c0,0.1,0,0.1,0,0.2c0,0,0,0,0,0c0,0,0,0,0,0c0,0,0.1-0.1,0.1-0.1   l0,0.1c0,0,0,0,0,0c0,0,0,0,0,0c0,0,0,0,0,0l0-0.1c0,0,0,0,0,0c0,0,0,0,0,0c0,0,0.1,0,0.1,0c0,0,0,0,0-0.1s0,0-0.1,0   c0,0,0-0.1,0-0.1C37.1,13.9,37.1,13.9,37,14z"></path>
	<path class="st3" d="M33,17.8C33,17.8,32.9,17.8,33,17.8C32.9,17.8,32.9,17.8,33,17.8c-0.1-0.1-0.1-0.2-0.1-0.2   c0,0.1-0.1,0.1-0.1,0.2l-0.2-0.1c0,0.1,0,0.1,0,0.2c0,0-0.1,0-0.1,0.1c0,0,0,0.1,0,0.1c0,0,0.1,0,0.1,0c0,0.1,0,0.1,0,0.2   c0,0,0,0,0,0c0,0,0,0,0,0c0.1,0,0.1-0.1,0.1-0.1l0.1,0.1c0,0,0,0,0,0c0,0,0,0,0.1,0c0,0,0,0,0-0.1l0-0.1c0,0,0,0,0,0c0,0,0,0,0,0   c0.1,0,0.1,0,0.2,0c0,0,0-0.1-0.1-0.1c0,0-0.1,0-0.1-0.1c0-0.1,0-0.1,0-0.2C33.1,17.7,33,17.8,33,17.8z"></path>
	<path class="st3" d="M31.3,14.1C31.3,14.1,31.2,14.1,31.3,14.1C31.2,14.1,31.2,14,31.3,14.1c-0.1-0.1-0.1-0.2-0.1-0.2   c0,0.1-0.1,0.1-0.1,0.2L30.9,14c0,0.1,0,0.1,0,0.2c0,0-0.1,0-0.1,0.1c0,0,0,0.1,0,0.1c0,0,0.1,0,0.1,0c0,0.1,0,0.1,0,0.2   c0,0,0,0,0,0c0,0,0,0,0,0c0.1,0,0.1-0.1,0.1-0.1l0.1,0.1c0,0,0,0,0,0c0,0,0,0,0.1,0c0,0,0,0,0-0.1l0-0.1c0,0,0,0,0,0c0,0,0,0,0,0   c0.1,0,0.1,0,0.2,0c0,0,0-0.1-0.1-0.1c0,0-0.1,0-0.1-0.1c0-0.1,0-0.1,0-0.2C31.4,14,31.3,14,31.3,14.1z"></path>
	<path class="st4" d="M36.4,16.4C36.4,16.4,36.4,16.4,36.4,16.4C36.4,16.4,36.4,16.4,36.4,16.4c0,0,0-0.1-0.1-0.1c0,0,0,0.1-0.1,0.1   l-0.1,0c0,0,0,0.1,0,0.1c0,0,0,0,0,0c0,0,0,0,0,0c0,0,0,0,0.1,0c0,0,0,0.1,0,0.1c0,0,0,0,0,0c0,0,0,0,0,0c0,0,0.1,0,0.1-0.1l0,0.1   c0,0,0,0,0,0c0,0,0,0,0,0c0,0,0,0,0,0l0-0.1c0,0,0,0,0,0c0,0,0,0,0,0c0,0,0.1,0,0.1,0c0,0,0,0,0,0C36.5,16.5,36.5,16.5,36.4,16.4   C36.5,16.4,36.5,16.4,36.4,16.4C36.5,16.3,36.4,16.3,36.4,16.4z"></path>
	<path class="st4" d="M34.1,17.7C34.1,17.7,34.1,17.7,34.1,17.7C34.1,17.7,34.1,17.7,34.1,17.7c0,0,0-0.1-0.1-0.1c0,0,0,0.1-0.1,0.1   l-0.1,0c0,0,0,0.1,0,0.1c0,0,0,0,0,0c0,0,0,0,0,0c0,0,0,0,0.1,0c0,0,0,0.1,0,0.1c0,0,0,0,0,0c0,0,0,0,0,0c0,0,0.1,0,0.1-0.1l0,0.1   c0,0,0,0,0,0c0,0,0,0,0,0c0,0,0,0,0,0l0-0.1c0,0,0,0,0,0c0,0,0,0,0,0c0,0,0.1,0,0.1,0c0,0,0,0,0,0C34.2,17.8,34.2,17.8,34.1,17.7   C34.2,17.8,34.2,17.7,34.1,17.7C34.2,17.7,34.1,17.7,34.1,17.7z"></path>
	<path class="st2" d="M31.9,13C31.9,13,31.9,13,31.9,13C31.9,13,31.9,13,31.9,13c0,0,0-0.1-0.1-0.1c0,0,0,0.1-0.1,0.1l-0.1,0   c0,0,0,0.1,0,0.1c0,0,0,0,0,0c0,0,0,0,0,0c0,0,0,0,0.1,0c0,0,0,0.1,0,0.1c0,0,0,0,0,0c0,0,0,0,0,0c0,0,0.1,0,0.1-0.1l0,0.1   c0,0,0,0,0,0c0,0,0,0,0,0c0,0,0,0,0,0l0-0.1c0,0,0,0,0,0c0,0,0,0,0,0H32c0,0,0,0,0,0C32,13.1,32,13.1,31.9,13   C31.9,13.1,32,13,31.9,13C31.9,13,31.9,13,31.9,13z"></path>
	<path class="st2" d="M33.1,15.7C33.1,15.7,33.1,15.7,33.1,15.7C33,15.7,33,15.7,33.1,15.7c0,0,0-0.1-0.1-0.1c0,0,0,0.1-0.1,0.1   l-0.1,0c0,0,0,0.1,0,0.1c0,0,0,0,0,0c0,0,0,0,0,0c0,0,0,0,0.1,0c0,0,0,0.1,0,0.1c0,0,0,0,0,0c0,0,0,0,0,0c0,0,0.1,0,0.1-0.1l0,0.1   c0,0,0,0,0,0c0,0,0,0,0,0c0,0,0,0,0,0l0-0.1c0,0,0,0,0,0c0,0,0,0,0,0c0,0,0.1,0,0.1,0c0,0,0,0,0,0C33.2,15.8,33.1,15.8,33.1,15.7   C33.1,15.7,33.2,15.7,33.1,15.7C33.1,15.6,33.1,15.6,33.1,15.7z"></path>
	<path class="st2" d="M32.2,14.6C32.2,14.6,32.2,14.6,32.2,14.6C32.2,14.6,32.2,14.6,32.2,14.6c0,0,0-0.1-0.1-0.1c0,0,0,0.1-0.1,0.1   l-0.1,0c0,0,0,0.1,0,0.1c0,0,0,0,0,0c0,0,0,0,0,0c0,0,0,0,0.1,0c0,0,0,0.1,0,0.1c0,0,0,0,0,0c0,0,0,0,0,0c0,0,0.1,0,0.1-0.1l0,0.1   c0,0,0,0,0,0c0,0,0,0,0,0c0,0,0,0,0,0l0-0.1c0,0,0,0,0,0c0,0,0,0,0,0c0,0,0.1,0,0.1,0c0,0,0,0,0,0C32.3,14.7,32.3,14.7,32.2,14.6   C32.3,14.7,32.3,14.6,32.2,14.6C32.3,14.6,32.2,14.6,32.2,14.6z"></path>
	<path class="st2" d="M35.9,14.9C35.9,14.9,35.9,14.9,35.9,14.9C35.9,14.9,35.9,14.9,35.9,14.9c0,0,0-0.1-0.1-0.1c0,0,0,0.1-0.1,0.1   l-0.1,0c0,0,0,0.1,0,0.1c0,0,0,0,0,0c0,0,0,0,0,0c0,0,0,0,0.1,0c0,0,0,0.1,0,0.1c0,0,0,0,0,0c0,0,0,0,0,0c0,0,0.1,0,0.1-0.1l0,0.1   c0,0,0,0,0,0c0,0,0,0,0,0c0,0,0,0,0,0l0-0.1c0,0,0,0,0,0c0,0,0,0,0,0c0,0,0.1,0,0.1,0c0,0,0,0,0,0C36,15,36,15,35.9,14.9   C36,14.9,36,14.9,35.9,14.9C36,14.8,35.9,14.9,35.9,14.9z"></path>
	<path class="st4" d="M34.1,14.7C34.1,14.7,34.1,14.7,34.1,14.7C34.1,14.7,34.1,14.7,34.1,14.7c0,0,0-0.1-0.1-0.1c0,0,0,0.1-0.1,0.1   l-0.1,0c0,0,0,0.1,0,0.1c0,0,0,0,0,0c0,0,0,0,0,0c0,0,0,0,0.1,0c0,0,0,0.1,0,0.1c0,0,0,0,0,0c0,0,0,0,0,0c0,0,0.1,0,0.1-0.1l0,0.1   c0,0,0,0,0,0c0,0,0,0,0,0c0,0,0,0,0,0l0-0.1c0,0,0,0,0,0c0,0,0,0,0,0c0,0,0.1,0,0.1,0c0,0,0,0,0,0S34.2,14.8,34.1,14.7   C34.2,14.7,34.2,14.7,34.1,14.7C34.2,14.6,34.1,14.7,34.1,14.7z"></path>
	<path class="st5" d="M33.5,14.9C33.5,14.9,33.5,14.9,33.5,14.9C33.5,14.9,33.5,14.9,33.5,14.9c0,0,0-0.1-0.1-0.1c0,0,0,0.1-0.1,0.1   l-0.1,0c0,0,0,0.1,0,0.1c0,0,0,0,0,0c0,0,0,0,0,0c0,0,0,0,0.1,0c0,0,0,0.1,0,0.1c0,0,0,0,0,0c0,0,0,0,0,0c0,0,0.1,0,0.1-0.1l0,0.1   c0,0,0,0,0,0c0,0,0,0,0,0c0,0,0,0,0,0l0-0.1c0,0,0,0,0,0c0,0,0,0,0,0c0,0,0.1,0,0.1,0c0,0,0,0,0,0C33.6,15,33.6,15,33.5,14.9   C33.6,15,33.6,14.9,33.5,14.9C33.6,14.9,33.6,14.9,33.5,14.9z"></path>
	<path class="st4" d="M33,13.4C33,13.4,33,13.4,33,13.4C33,13.4,33,13.4,33,13.4c0,0,0-0.1-0.1-0.1c0,0,0,0.1-0.1,0.1l-0.1,0   c0,0,0,0.1,0,0.1c0,0,0,0,0,0c0,0,0,0,0,0c0,0,0,0,0.1,0c0,0,0,0.1,0,0.1c0,0,0,0,0,0c0,0,0,0,0,0c0,0,0.1,0,0.1-0.1l0,0.1   c0,0,0,0,0,0c0,0,0,0,0,0c0,0,0,0,0,0l0-0.1c0,0,0,0,0,0c0,0,0,0,0,0c0,0,0.1,0,0.1,0c0,0,0,0,0,0C33.1,13.5,33.1,13.5,33,13.4   C33.1,13.5,33.1,13.5,33,13.4C33.1,13.4,33,13.4,33,13.4z"></path>
	<path class="st5" d="M34.1,15.4C34,15.4,34,15.4,34.1,15.4C34,15.4,34,15.4,34.1,15.4c0,0,0-0.1-0.1-0.1c0,0,0,0.1-0.1,0.1l-0.1,0   c0,0,0,0.1,0,0.1c0,0,0,0,0,0c0,0,0,0,0,0c0,0,0,0,0.1,0c0,0,0,0.1,0,0.1c0,0,0,0,0,0c0,0,0,0,0,0c0,0,0.1,0,0.1-0.1l0,0.1   c0,0,0,0,0,0c0,0,0,0,0,0c0,0,0,0,0,0l0-0.1c0,0,0,0,0,0c0,0,0,0,0,0c0,0,0.1,0,0.1,0c0,0,0,0,0,0C34.2,15.5,34.1,15.5,34.1,15.4   C34.1,15.4,34.2,15.4,34.1,15.4C34.1,15.3,34.1,15.4,34.1,15.4z"></path>
</g>
<path class="st6" d="M26.6,8.7c-0.1,0.1-0.1,0.1-0.2,0.1L26,8.9C25.7,9,25.5,9.1,25.3,9c-0.1,0-0.7-0.1-0.7-0.2  c-0.1-0.2,0.3-0.4,0.5-0.5c0,0,0.1-0.1,0.1-0.1c0.1-0.1,0-0.2,0-0.2c0-0.2,0-0.4,0-0.6c0-0.1,0-0.1,0-0.2c0.1-0.3,0.3-0.2,0.5-0.1  c0.2,0.1,0.4,0.2,0.6,0.3c0.1,0,0.1,0.1,0.2,0.1c0.1,0.1,0,0.3,0,0.4c0,0.1,0,0.2,0.1,0.3c0,0,0.1,0.1,0.1,0.1  C26.7,8.5,26.6,8.6,26.6,8.7z"></path>
<path class="st6" d="M21.2,4.7c0.1-0.2,0.1-0.5,0.1-0.7c0-0.2,0.1-0.3,0.2-0.5l0.2-0.6c0-0.1,0.1-0.1,0.1-0.2c0.1,0,0.1-0.1,0.2-0.1  c0.2,0,0.5,0.1,0.6,0.2c0.2,0.2,0.2,0.5,0.1,0.7c-0.2,0.2-0.5,0.3-0.7,0.5c-0.1,0.1-0.2,0.3-0.2,0.5C21.8,5,21.8,5.5,21.8,6  c0,0.1,0,0.3-0.2,0.4c-0.1,0-0.2,0.1-0.2,0l-0.4,0c-0.1,0-0.3,0-0.3,0c-0.1-0.1,0.1-0.5,0.1-0.6c0.1-0.2,0.1-0.4,0.2-0.6  C21.1,5.1,21.2,4.9,21.2,4.7z"></path>
<path class="st7" d="M28.6,21.9c-0.1,0.3-0.3,0.6-0.5,0.9c-0.2,0.5-0.1,1-0.4,1.4c-0.1,0.1-0.2,0.2-0.3,0.3  c-0.1,0.1-0.1,0.1-0.2,0.1c-0.1,0-0.2,0.1-0.3,0c-0.1,0-0.2-0.2-0.2-0.3c0,0,0-0.1,0-0.1c0-0.1,0-0.2,0.1-0.2  c0.1-0.2,0.1-0.4,0.2-0.7c0-0.1,0.1-0.2,0.1-0.4c0-0.1-0.1-0.3,0-0.4c0-0.1,0.1-0.1,0.1-0.2c0-0.1,0.1-0.1,0.1-0.2  c0-0.2,0.1-0.3,0.2-0.4c0.1-0.1,0.1-0.1,0.2-0.2c0.1-0.1,0.1-0.1,0.2-0.1c0.1,0,0.1,0,0.2,0c0.1,0,0.2,0,0.3,0.1h0  c0.1,0,0.2,0.1,0.3,0.2C28.6,21.8,28.6,21.9,28.6,21.9z"></path>
<path class="st7" d="M34.5,15.2c0,0.1,0,0.2-0.1,0.2c-0.1,0-0.1,0.1-0.2,0h0c-0.2,0-0.4,0-0.6,0c-0.1,0-0.3,0.1-0.4,0.1  c-0.2,0-0.4-0.1-0.6-0.2c-0.2-0.1-0.3-0.2-0.5-0.2c-0.1,0-0.4-0.1-0.4-0.2c0-0.1,0-0.1,0-0.2c0,0,0-0.1,0-0.1c0-0.1-0.1-0.1-0.1-0.2  c0-0.1,0-0.1,0.1-0.2c0.1-0.1,0.2-0.2,0.4-0.2c0.1,0,0.3,0,0.4,0l1.4,0.2c0.1,0,0.2,0,0.3,0.1c0.1,0,0.2,0.1,0.3,0.1  C34.5,14.8,34.5,15,34.5,15.2z"></path>
<path class="st8" d="M33.3,15.5c-0.2,0.3,0,0.8-0.1,1.1c0,0.2-0.1,0.4-0.1,0.6c-0.1,0.2-0.1,0.4-0.2,0.6c-0.1,0.2-0.1,0.3-0.2,0.5  c-0.1,0.3-0.2,0.6-0.4,0.8c-0.1,0.4-0.2,0.9-0.6,1.2c-0.3,0.2-0.8,0.2-1.1,0.1c-0.4-0.1-0.7-0.4-0.9-0.7c-0.3-0.3-0.5-0.6-0.8-0.9  c-0.2-0.2-0.3-0.3-0.5-0.4c-0.2-0.1-0.4-0.3-0.6-0.4c-0.1-0.1-0.3-0.1-0.4-0.2c-0.1,0-0.2,0-0.3,0.1c0,0,0,0-0.1,0.1  c0,0.1-0.1,0.1-0.1,0.2c-0.2,0.6-0.8,0.9-1.3,1.3L25,20c-0.1,0.1-0.1,0.1-0.1,0.2c0,0,0.1,0.1,0.1,0.1c0.3,0.1,0.6,0.2,0.8,0.4  c0.1,0.1,0.2,0.2,0.3,0.2c0.1,0,0.1,0,0.2,0c0.2,0,0.3,0,0.5,0.1c0,0,0.1,0.1,0.1,0.1c0,0,0.1,0,0.1,0c0.1,0,0.2,0,0.3,0  s0.2,0.2,0.3,0.2c0.1,0,0.1,0,0.2,0c0,0,0.1,0,0.1,0c0,0,0,0.1,0,0.1c0,0.1,0.1,0.1,0.1,0.2c0.1,0.1,0.1,0.2,0.1,0.4  c0,0.4-0.2,0.7-0.5,1c-0.1,0.1-0.2,0.1-0.3,0.2c-0.1,0-0.2,0-0.3-0.1c0,0,0-0.1-0.1-0.1c-0.1-0.1-0.3,0-0.4-0.1  c-0.1-0.1,0-0.2-0.1-0.2c0-0.1-0.2-0.1-0.3-0.1c-0.1,0-0.2-0.1-0.3-0.1c-0.2,0-0.3,0-0.5,0c-0.1,0-0.3,0-0.4-0.1L24.4,22  c-0.4-0.1-0.9-0.2-1.3-0.3c-0.2-0.1-0.3-0.1-0.4-0.3c-0.1-0.1-0.2-0.3-0.2-0.4c-0.1-0.6,0.4-1.1,0.5-1.7c0-0.2,0.1-0.4,0.2-0.6  c0.1-0.4,0.3-0.7,0.4-1.1c0-0.1,0.1-0.1,0.1-0.2c0.1-0.1,0.1-0.1,0.2-0.2c0.2-0.2,0.4-0.4,0.4-0.7c0,0,0-0.1,0-0.1c0,0,0,0,0.1,0  c0.1-0.1,0.1-0.2,0.1-0.2c0.1,0,0.1-0.1,0.1-0.1c0,0,0-0.1,0-0.1c0,0,0,0,0.1-0.1c0,0,0-0.1,0-0.2c0,0,0-0.1,0-0.1  c0-0.1,0.1-0.2,0.1-0.3c0.1-0.1,0.3-0.1,0.5-0.1c0.2,0,0.4-0.1,0.5-0.2c0.5-0.2,1-0.3,1.5-0.3c0.5,0,1,0,1.5,0.2  c0.1,0,0.1,0.1,0.2,0.1c0,0,0.1,0.1,0.1,0.1c0,0.1,0,0.1,0.1,0.2c0.1,0.1,0.2,0.1,0.2,0.2s0.1,0.2,0.1,0.3c0.1,0.1,0.3,0.2,0.3,0.3  c0,0,0,0.1,0,0.1c0,0.1,0.1,0.2,0.2,0.3c0.3,0.3,0.5,0.8,0.5,1.2c0-0.3,0.2-0.5,0.4-0.7c0.1,0,0.1-0.1,0.1-0.2  c0-0.1-0.1-0.2-0.1-0.3c0,0,0-0.1,0.1-0.1c0.1-0.2,0.2-0.3,0.3-0.4c0.1-0.1,0.1-0.2,0.1-0.3c0-0.1-0.1-0.1-0.1-0.2  c0-0.1,0-0.2,0-0.3c0-0.1,0.1-0.1,0.1-0.2c0-0.1,0-0.2,0-0.2c0-0.1,0.1-0.1,0.1-0.1c0.1-0.1,0.2-0.1,0.2-0.2c0.1-0.1,0.3,0,0.5,0  c0.3,0,0.5,0.1,0.7,0.3C33.3,15.2,33.4,15.4,33.3,15.5z"></path>
<path class="st9" d="M22.8,13.7c-0.1,0.1-0.2,0.1-0.3,0.3c0,0.1,0,0.2-0.1,0.3s-0.1,0.2-0.2,0.3c0,0.1,0,0.1,0,0.2c0,0,0,0.1,0,0.1  c0,0.1,0.1,0.1,0.1,0.2c0.3,0.2,0.7,0.2,1,0.1c0.1-0.1,0.3-0.1,0.4-0.2c0.1-0.1,0.3-0.1,0.5-0.1c0.1,0,0.2,0,0.3,0.1  c0.1,0,0.2,0,0.3-0.1c0,0,0-0.1,0.1-0.1c0.1-0.3,0-0.6,0-0.9s-0.2-0.6-0.3-0.9c-0.1-0.2-0.1-0.5-0.2-0.7c-0.1-0.2-0.2-0.4-0.5-0.5  c0,0,0,0-0.1,0c0,0,0,0,0,0c-0.2,0.2-0.3,0.4-0.4,0.6c-0.1,0.3-0.1,0.5-0.2,0.8c0,0.1-0.1,0.3-0.2,0.3S22.8,13.6,22.8,13.7z"></path>
<path class="st10" d="M24.8,14.7c0,0,0,0.1-0.1,0.1c-0.1,0.1-0.2,0.1-0.3,0.1c-0.1,0-0.2,0-0.3-0.1c-0.2,0-0.3,0-0.5,0.1  c-0.1,0.1-0.3,0.2-0.4,0.2c-0.2,0.1-0.4,0.1-0.7,0c-0.1,0-0.2-0.1-0.3-0.1c-0.1,0-0.1-0.1-0.1-0.2c0,0,0-0.1,0-0.1  c0-0.1,0-0.1,0-0.2c0-0.1,0.1-0.2,0.2-0.3c0-0.1,0-0.2,0.1-0.3c0-0.1,0.2-0.2,0.3-0.3c0.1-0.1,0.2-0.1,0.3-0.2c0,0,0,0,0,0  c0.1-0.1,0.1-0.2,0.1-0.3c0.1-0.3,0.1-0.5,0.2-0.8c0.1-0.2,0.2-0.5,0.4-0.6c0,0,0,0,0,0c0,0,0,0,0.1,0c0.2,0.1,0.4,0.3,0.5,0.5  c0.1,0.2,0.1,0.4,0.2,0.7c0.1,0.3,0.2,0.6,0.3,0.9C24.9,14.1,24.9,14.4,24.8,14.7z"></path>
<path class="st11" d="M26.5,7.9c-0.5,0.2-1.1,0.1-1.4-0.4c0-0.1,0-0.1,0-0.2c0-0.3,0.3-0.2,0.5-0.1c0.2,0,0.5,0.1,0.7,0.2  c0.1,0,0.1,0.1,0.2,0.1C26.5,7.7,26.5,7.7,26.5,7.9z"></path>
<ellipse class="st6" cx="25.8" cy="6.7" rx="1" ry="1.3"></ellipse>
<path class="st12" d="M25.6,8.9l-0.4-0.2L25,8.7c-0.1,0-0.2-0.1-0.2-0.1c-0.2,0-0.4,0.1-0.5,0.3c-0.1,0.2-0.2,0.4-0.2,0.6  c-0.1,0.3-0.1,0.6-0.1,0.9c0,0.3-0.1,0.5-0.1,0.8c0,0.7,0.2,1.4,0.3,2c0.1,0.3,0.1,0.6,0.2,0.9c0,0.1,0,0.2,0,0.4  c0,0.1,0,0.3,0.1,0.4l0.1,0.8c0.2-0.1,0.4-0.2,0.6-0.2c0.2,0,0.4,0.1,0.5,0c0.2,0,0.4-0.1,0.6-0.2c0.2,0,0.3,0,0.5,0  c0.4,0,0.8-0.2,1.2-0.3c0.3,0,0.7,0.1,1,0.1c0.1,0,0.2,0,0.2-0.1c0-0.1-0.1-0.1-0.1-0.1c-0.3-0.2-0.5-0.3-0.7-0.5  c-0.2-0.2-0.4-0.3-0.6-0.6c-0.4-0.6-0.2-1.3-0.5-1.9c-0.2-0.5,0-1.1,0-1.6c0-0.3,0-0.5-0.1-0.8C27,9.2,27,9.1,26.9,9l-0.2-0.5  c0,0,0,0,0,0c0,0,0,0,0,0c-0.1,0-0.3,0-0.4,0.1c-0.1,0.1-0.2,0.2-0.3,0.3C25.9,8.9,25.7,8.9,25.6,8.9z"></path>
<path class="st6" d="M30.4,12.2c0.1-0.1,0.1-0.1,0.1-0.2c0-0.1,0.1-0.2,0.1-0.2l0.3-0.9c0.1-0.1,0.1-0.3,0.2-0.4  c0.1-0.2,0.1-0.3,0.2-0.4c0.2-0.4,0.3-0.8,0.4-1.2c0-0.1,0-0.1,0-0.2c0-0.1-0.1-0.2-0.2-0.2c-0.1-0.1-0.1-0.1-0.2-0.2  c-0.1-0.1-0.2-0.1-0.3,0c-0.1,0-0.2,0.2-0.3,0.3c0,0.1,0,0.3,0,0.4c0,0.2-0.1,0.4-0.1,0.6c0,0.1,0,0.2,0,0.4c0,0.2-0.1,0.3-0.2,0.5  c-0.2,0.3-0.4,0.6-0.7,0.9c-0.1,0.1-0.2,0.1-0.2,0.2c-0.1,0.1-0.1,0.2-0.1,0.3c0,0.1,0,0.3,0,0.4c0.1,0.2,0.3,0.2,0.4,0.3  C30.2,12.5,30.2,12.4,30.4,12.2z"></path>
<path class="st13" d="M26,5c0.1-0.2,0.3-0.3,0.5-0.3c0.2,0,0.4,0.2,0.4,0.4c0,0.1,0,0.2,0.1,0.2c0.1,0.1,0.2,0.1,0.3,0.2  c0.1,0.1,0.2,0.3,0.2,0.4c0,0.2,0,0.3-0.1,0.5c0,0.1,0,0.1-0.1,0.2c0,0.1,0,0.1,0,0.2c0,0.2-0.1,0.3-0.3,0.4c0,0,0,0-0.1,0  c0,0-0.1-0.1-0.1-0.1c-0.1-0.3-0.1-0.6-0.2-0.8c-0.1-0.1-0.2-0.1-0.3-0.2c0,0-0.1,0-0.1,0c-0.1,0-0.1,0-0.2,0.1  c-0.1,0.1-0.2,0.1-0.4,0.2c-0.1,0-0.3,0-0.4-0.1c-0.1-0.1-0.1-0.2-0.2-0.2s-0.2,0-0.3-0.1c-0.2-0.1-0.3-0.3-0.2-0.5c0,0,0-0.1,0-0.1  c0.1-0.1,0.1-0.1,0.2-0.2c0.1-0.1,0.1-0.2,0.1-0.3c0-0.1,0.1-0.3,0.3-0.3c0.1,0,0.3,0,0.4,0.1c0.1,0,0.1,0.1,0.2,0.2  C25.9,5,26,5.1,26.2,5"></path>
<path class="st14" d="M29.7,11.3C29.7,11.3,29.7,11.3,29.7,11.3C29.6,11.3,29.6,11.3,29.7,11.3c-0.1-0.2-0.3-0.2-0.4-0.4  c0,0,0-0.1,0-0.1c0-0.1-0.1-0.2-0.1-0.3c0-0.1,0-0.2-0.1-0.3c0-0.1-0.1-0.1-0.1-0.2C29,10,28.9,9.9,28.9,9.8c0,0,0-0.1,0-0.1  c0-0.1,0-0.1,0-0.2c0-0.1-0.2-0.2-0.2-0.3c0-0.1,0-0.2-0.1-0.3c0,0-0.1-0.1-0.1-0.1c-0.3-0.1-0.5-0.2-0.8-0.2c-0.1,0-0.3,0-0.4-0.1  c-0.1-0.1-0.1-0.3-0.3-0.4c-0.1-0.1-0.3,0-0.4,0.1c-0.1,0.1-0.1,0.3-0.2,0.4c-0.1,0.5,0.2,1,0.1,1.5c-0.1,0.3-0.2,0.6-0.3,0.9  c-0.1,0.3-0.1,0.7-0.2,1c-0.1,0.5-0.2,0.9-0.2,1.4c0,0.5,0,1,0.1,1.4c0.1,0.2,0.2,0.5,0.2,0.8l0.3-0.1c0.1,0,0.2,0,0.3,0  c0.2,0,0.4,0.1,0.5,0.1c0.1,0,0.3-0.1,0.4-0.2c0.3-0.2,0.5-0.4,0.8-0.5c0.2-0.1,0.4-0.1,0.5-0.3c0.1-0.1,0.1-0.2,0.1-0.3  c0-0.1,0-0.2-0.1-0.3c0,0-0.1-0.1-0.1-0.1c-0.1-0.1-0.1-0.2-0.2-0.4c-0.1-0.2-0.1-0.3-0.3-0.4c-0.1,0-0.2-0.1-0.2-0.1  c-0.1,0-0.1-0.1-0.1-0.2c0-0.1,0.1-0.1,0.1-0.1c0,0,0,0,0,0c0.1-0.1,0.1-0.3-0.1-0.4c0,0-0.1,0-0.1-0.1c-0.1,0-0.1-0.1-0.1-0.1  c0-0.1,0-0.1,0-0.2l0-0.3c0.1,0,0.1,0,0.2,0c0,0.1,0.1,0.1,0.2,0.2c0.2,0.2,0.3,0.4,0.4,0.7c0,0.1,0.1,0.2,0.1,0.2c0,0,0.1,0,0.1,0  c0,0,0.1,0.1,0.1,0.1l0.2,0.3c0,0,0,0,0,0c0,0,0,0,0,0c0,0,0,0,0,0c0.2,0,0.4,0.1,0.6,0c0.2-0.1,0.2-0.3,0.4-0.4  c0.1-0.1,0.2-0.2,0.3-0.3C29.9,12.2,29.6,11.8,29.7,11.3z"></path>
<path class="st14" d="M24.8,8.1c-0.2,0-0.4,0.1-0.6,0.2c-0.1,0.1-0.2,0.2-0.4,0.1c-0.1,0-0.2-0.1-0.2,0c0,0-0.1,0-0.1,0.1  c0,0-0.1,0-0.1,0c-0.1-0.1-0.2-0.2-0.3-0.3c-0.1-0.1-0.2-0.2-0.3-0.3c-0.2-0.2-0.4-0.4-0.5-0.6c-0.1-0.2-0.3-0.4-0.3-0.6  c0,0,0,0,0-0.1c0-0.1,0-0.2,0-0.3c0,0,0-0.1,0-0.1c0-0.1-0.1-0.1-0.1-0.1c-0.3-0.1-0.7-0.1-1,0c0,0-0.1,0-0.1,0.1  c0,0-0.1,0.1-0.1,0.1c0,0.1-0.1,0.1-0.2,0.2c-0.1,0.1-0.1,0.2,0,0.2c0,0,0,0,0,0c0,0,0,0,0,0c0.1,0,0.1,0.1,0.1,0.2  c0,0.1-0.1,0.2-0.1,0.2c0,0.2,0.1,0.3,0.2,0.4C20.8,7.7,20.9,7.9,21,8c0.1,0.1,0.2,0.2,0.2,0.2c0.3,0.3,0.5,0.7,0.8,1  c0.1,0.1,0.2,0.2,0.3,0.3c0.1,0.1,0.2,0.1,0.2,0.2c0.2,0.1,0.3,0.2,0.5,0.3c0.1,0,0.1,0.1,0.2,0.1c0,0,0,0,0.1,0c0,0,0,0,0,0  c0,0.1,0.1,0.3,0.1,0.4c0,0.1,0,0.3,0,0.4c0,0.1,0,0.3,0,0.4c0,0.3,0,0.5-0.1,0.8c-0.1,0.4-0.1,0.7-0.3,1.1  c-0.1,0.1-0.1,0.2-0.1,0.3c0,0,0,0,0,0c-0.1,0-0.1,0.1-0.2,0.1c-0.1,0.1-0.2,0.1-0.3,0.3c0,0.1,0,0.2-0.1,0.3c0,0.1-0.1,0.2-0.2,0.3  c0,0.1,0,0.1,0,0.2c0,0,0,0.1,0,0.1c0,0.1,0.1,0.1,0.1,0.2c0.1,0.1,0.2,0.1,0.3,0.1l0.3-1.3c0.3-0.6,0.5-1.1,0.7-1.7  c0.1-0.2,0.1-0.4,0.2-0.6c0.1-0.1,0.1-0.2,0.2-0.3c0-0.1,0.1-0.3,0.1-0.4c0-0.2,0.1-0.3,0.1-0.5c0.1-0.2,0.1-0.4,0.1-0.5  c0-0.3-0.1-0.5,0-0.8c0-0.1,0.1-0.2,0.2-0.3c0.1-0.2,0.3-0.4,0.4-0.5C25,8.1,24.9,8.1,24.8,8.1z"></path>
<g class="st15">
	<path class="st2" d="M43.5,1.5c-0.1-0.2-0.4,0-0.3,0.2c0,0,0.1,0.1,0.1,0.1c0.4,0.6,0.6,1.2,0.8,1.9c0,0.2,0.1,0.3,0,0.5   c0.1-0.4,0-0.9-0.1-1.3c-0.1-0.4-0.3-0.8-0.5-1.2C43.6,1.6,43.5,1.5,43.5,1.5z"></path>
	<path class="st3" d="M40.8,2.6c-0.3,0-0.3,0.4,0,0.4c0.1,0,0.1,0,0.2,0c0.8,0,1.6,0.3,2.4,0.7c0.2,0.1,0.4,0.2,0.5,0.3   c-0.3-0.4-0.8-0.7-1.3-0.9c-0.5-0.2-1-0.4-1.5-0.5C41,2.7,40.9,2.6,40.8,2.6z"></path>
	<path class="st4" d="M40.9,3.7c-0.2,0-0.1,0.3,0,0.3c0,0,0.1,0,0.1,0c0.5,0,1.1,0.1,1.6,0.3c0.1,0,0.3,0.1,0.4,0.2   c-0.3-0.2-0.6-0.4-0.9-0.5c-0.3-0.1-0.7-0.2-1-0.2C41,3.7,41,3.7,40.9,3.7z"></path>
	<path class="st2" d="M44.5,8.3c0,0.2,0.3,0.1,0.2-0.1c0,0,0-0.1,0-0.1c-0.2-0.5-0.1-1.1-0.1-1.6c0-0.1,0-0.3,0.1-0.4   c-0.1,0.3-0.2,0.7-0.2,1c0,0.4,0,0.7,0,1C44.5,8.2,44.5,8.2,44.5,8.3z"></path>
	<path class="st4" d="M41.2,1.2c-0.1,0-0.1,0.1,0,0.2c0,0,0.1,0,0.1,0c0.3,0.1,0.6,0.2,0.9,0.4c0.1,0,0.1,0.1,0.2,0.2   c-0.1-0.2-0.3-0.3-0.5-0.4c-0.2-0.1-0.4-0.2-0.6-0.3C41.3,1.3,41.3,1.3,41.2,1.2z"></path>
	<path class="st3" d="M39.6,5.3c-0.3,0.1,0,0.5,0.2,0.4c0.1,0,0.1-0.1,0.2-0.1c0.8-0.4,1.8-0.6,2.7-0.7c0.2,0,0.5-0.1,0.7,0   c-0.6-0.2-1.2-0.2-1.8-0.1C41,4.9,40.5,5,39.9,5.2C39.8,5.2,39.7,5.3,39.6,5.3z"></path>
	<path class="st2" d="M40.4,6.8C40.2,7,40.5,7.2,40.7,7c0.1,0,0.1-0.1,0.2-0.1c0.6-0.5,1.4-0.9,2.1-1.3c0.2-0.1,1-0.2,1.2-0.2   c-0.5,0-1.6,0.2-2.1,0.4c-0.5,0.2-0.9,0.5-1.4,0.8C40.5,6.7,40.4,6.7,40.4,6.8z"></path>
	<path class="st3" d="M41.7,9.1c-0.1,0.3,0.3,0.3,0.4,0c0-0.1,0-0.1,0-0.2c0.2-0.8,0.6-1.5,1-2.3c0.1-0.2,0.7-0.7,0.9-0.8   c-0.4,0.3-1.2,1.1-1.5,1.6c-0.3,0.5-0.5,0.9-0.7,1.4C41.8,8.9,41.8,9,41.7,9.1z"></path>
	<path class="st3" d="M44.5,0.1c-0.1-0.3-0.5,0-0.4,0.2c0,0.1,0.1,0.1,0.1,0.2c0.4,0.8,0.5,1.8,0.6,2.7c0,0.2,0,0.5,0,0.7   C45,3.3,45,2.7,44.9,2.1S44.7,1,44.6,0.4C44.6,0.3,44.5,0.2,44.5,0.1z"></path>
	<path class="st3" d="M42.4,0.6C42.4,0.6,42.4,0.6,42.4,0.6C42.4,0.6,42.5,0.6,42.4,0.6c0.1-0.1,0.1-0.2,0.1-0.2   c0.1,0.1,0.1,0.1,0.1,0.2l0.2-0.1c0,0.1,0,0.2,0,0.2c0,0,0.1,0,0.1,0.1c0,0,0,0.1,0,0.1c0,0-0.1,0-0.1,0c0,0.1,0,0.2,0,0.3   c0,0,0,0,0,0c0,0,0,0,0,0c-0.1,0-0.1-0.1-0.2-0.2l-0.1,0.2c0,0,0,0,0,0c0,0,0,0-0.1,0c0,0,0,0,0-0.1l0-0.2c0,0,0,0,0,0c0,0,0,0,0,0   c-0.1,0-0.1,0-0.2,0c0,0,0-0.1,0.1-0.1c0,0,0.1,0,0.1-0.1c0-0.1-0.1-0.2,0-0.2C42.3,0.5,42.4,0.5,42.4,0.6z"></path>
	<path class="st2" d="M46.1,1.5c0.1-0.2,0.4,0,0.3,0.2c0,0-0.1,0.1-0.1,0.1c-0.4,0.6-0.6,1.2-0.8,1.9c0,0.2-0.1,0.3,0,0.5   c-0.1-0.4,0-0.9,0.1-1.3c0.1-0.4,0.3-0.8,0.5-1.2C46,1.6,46.1,1.5,46.1,1.5z"></path>
	<path class="st3" d="M48.8,2.6c0.3,0,0.3,0.4,0,0.4c-0.1,0-0.1,0-0.2,0c-0.8,0-1.6,0.3-2.4,0.7c-0.2,0.1-0.4,0.2-0.5,0.3   C46,3.7,46.5,3.4,47,3.2c0.5-0.2,1-0.4,1.5-0.5C48.6,2.7,48.7,2.6,48.8,2.6z"></path>
	<path class="st2" d="M48.7,3.7c0.2,0,0.1,0.3,0,0.3c0,0-0.1,0-0.1,0c-0.5,0-1.1,0.1-1.6,0.3c-0.1,0-0.3,0.1-0.4,0.2   c0.3-0.2,0.6-0.4,0.9-0.5c0.3-0.1,0.7-0.2,1-0.2C48.6,3.7,48.6,3.7,48.7,3.7z"></path>
	<path class="st4" d="M48.4,1.2c0.1,0,0.1,0.1,0,0.2c0,0-0.1,0-0.1,0c-0.3,0.1-0.6,0.2-0.9,0.4c-0.1,0-0.1,0.1-0.2,0.2   c0.1-0.2,0.3-0.3,0.5-0.4c0.2-0.1,0.4-0.2,0.6-0.3C48.3,1.3,48.3,1.3,48.4,1.2z"></path>
	<path class="st4" d="M45.6,8.6c0,0.1-0.2,0.1-0.1-0.1c0,0,0-0.1,0-0.1c0.1-0.3,0-0.7,0-1c0-0.1,0-0.2-0.1-0.2   c0.1,0.2,0.2,0.4,0.2,0.6c0,0.2,0,0.4,0,0.6C45.7,8.5,45.6,8.6,45.6,8.6z"></path>
	<path class="st2" d="M48.3,7.9c0.1,0.1-0.1,0.1-0.2,0c0,0,0-0.1-0.1-0.1c-0.3-0.4-0.6-0.8-1-1.3c-0.1-0.1-0.2-0.2-0.3-0.3   C47,6.5,47.3,6.7,47.5,7c0.2,0.3,0.5,0.5,0.7,0.8C48.2,7.8,48.3,7.9,48.3,7.9z"></path>
	<path class="st4" d="M41,7.9c-0.1,0.1,0.1,0.1,0.2,0c0,0,0-0.1,0.1-0.1c0.3-0.4,0.6-0.8,1-1.3c0.1-0.1,0.2-0.2,0.3-0.3   C42.3,6.5,42,6.7,41.8,7c-0.2,0.3-0.5,0.5-0.7,0.8C41.1,7.8,41,7.9,41,7.9z"></path>
	<path class="st4" d="M43.7,8.6c0,0.1,0.2,0.1,0.1-0.1c0,0,0-0.1,0-0.1c-0.1-0.3,0-0.7,0-1c0-0.1,0-0.2,0.1-0.2   c-0.1,0.2-0.2,0.4-0.2,0.6c0,0.2,0,0.4,0,0.6C43.7,8.5,43.7,8.6,43.7,8.6z"></path>
	<path class="st4" d="M47.5,2.3c0.1,0,0.1,0.1,0,0.2c0,0-0.1,0-0.1,0c-0.3,0.1-0.6,0.2-0.9,0.4c-0.1,0-0.1,0.1-0.2,0.2   c0.1-0.2,0.3-0.3,0.5-0.4c0.2-0.1,0.4-0.2,0.6-0.3C47.5,2.3,47.5,2.3,47.5,2.3z"></path>
	<path class="st4" d="M46.6,0.2c0.1-0.1,0.2,0.1,0.1,0.1c0,0,0,0-0.1,0c-0.3,0.2-0.5,0.4-0.7,0.7c-0.1,0.1-0.1,0.1-0.1,0.2   c0.1-0.2,0.2-0.4,0.3-0.6C46.2,0.6,46.3,0.4,46.6,0.2C46.5,0.3,46.5,0.3,46.6,0.2z"></path>
	<path class="st3" d="M50,5.3c0.3,0.1,0,0.5-0.2,0.4c-0.1,0-0.1-0.1-0.2-0.1c-0.8-0.4-1.8-0.6-2.7-0.7c-0.2,0-0.5-0.1-0.7,0   c0.6-0.2,1.2-0.2,1.8-0.1s1.2,0.2,1.7,0.4C49.8,5.2,49.9,5.3,50,5.3z"></path>
	<path class="st2" d="M49.2,6.8C49.4,7,49.1,7.2,48.9,7c-0.1,0-0.1-0.1-0.2-0.1c-0.6-0.5-1.4-0.9-2.1-1.3c-0.2-0.1-1-0.2-1.2-0.2   c0.5,0,1.6,0.2,2.1,0.4c0.5,0.2,0.9,0.5,1.4,0.8C49.1,6.7,49.2,6.7,49.2,6.8z"></path>
	<path class="st3" d="M47,9.4c0,0.3-0.3,0.2-0.4,0c0-0.1,0-0.1,0-0.2c-0.1-0.8-0.4-1.6-0.7-2.4c-0.1-0.2-0.6-0.8-0.8-0.9   c0.4,0.4,1.1,1.3,1.3,1.8c0.2,0.5,0.4,1,0.5,1.5C46.9,9.2,47,9.3,47,9.4z"></path>
	<path class="st3" d="M47.2,0.6C47.2,0.6,47.2,0.6,47.2,0.6C47.2,0.6,47.1,0.6,47.2,0.6c-0.1-0.1-0.1-0.2-0.1-0.2   C47,0.4,47,0.5,47,0.5l-0.2-0.1c0,0.1,0,0.2,0,0.2c0,0-0.1,0-0.1,0.1c0,0,0,0.1,0,0.1c0,0,0.1,0,0.1,0c0,0.1,0,0.2,0,0.3   c0,0,0,0,0,0c0,0,0,0,0,0C47,1.1,47,1.1,47.1,1l0.1,0.2c0,0,0,0,0,0c0,0,0,0,0.1,0c0,0,0,0,0-0.1l0-0.2c0,0,0,0,0,0c0,0,0,0,0,0   c0.1,0,0.1,0,0.2,0c0,0,0-0.1-0.1-0.1c0,0-0.1,0-0.1-0.1c0-0.1,0.1-0.2,0-0.2C47.3,0.5,47.3,0.5,47.2,0.6z"></path>
	<path class="st4" d="M47.8,8.5C47.8,8.5,47.8,8.5,47.8,8.5C47.7,8.5,47.7,8.5,47.8,8.5c-0.1-0.1-0.1-0.2-0.1-0.2   c-0.1,0.1-0.1,0.1-0.1,0.2l-0.2-0.1c0,0.1,0,0.2,0,0.2c0,0-0.1,0-0.1,0.1c0,0,0,0.1,0,0.1c0,0,0.1,0,0.1,0c0,0.1,0,0.2,0,0.3   c0,0,0,0,0,0c0,0,0,0,0,0c0.1,0,0.1-0.1,0.2-0.2L47.7,9c0,0,0,0,0,0c0,0,0,0,0.1,0c0,0,0,0,0-0.1l0-0.2c0,0,0,0,0,0c0,0,0,0,0,0   c0.1,0,0.1,0,0.2,0c0,0,0-0.1-0.1-0.1s-0.1,0-0.1-0.1c0-0.1,0.1-0.2,0-0.2C47.9,8.4,47.8,8.4,47.8,8.5z"></path>
	<path class="st3" d="M49.4,3.2C49.4,3.2,49.4,3.2,49.4,3.2C49.4,3.2,49.4,3.2,49.4,3.2c-0.1-0.1-0.1-0.2-0.1-0.2   c-0.1,0.1-0.1,0.1-0.1,0.2L49,3.1c0,0.1,0,0.2,0,0.2c0,0-0.1,0-0.1,0.1c0,0,0,0.1,0,0.1c0,0,0.1,0,0.1,0c0,0.1,0,0.2,0,0.3   c0,0,0,0,0,0c0,0,0,0,0,0c0.1,0,0.1-0.1,0.2-0.2l0.1,0.2c0,0,0,0,0,0c0,0,0,0,0.1,0c0,0,0,0,0-0.1l0-0.2c0,0,0,0,0,0c0,0,0,0,0,0   c0.1,0,0.1,0,0.2,0c0,0,0-0.1-0.1-0.1s-0.1,0-0.1-0.1c0-0.1,0.1-0.2,0-0.2C49.5,3.1,49.5,3.1,49.4,3.2z"></path>
	<path class="st3" d="M42.9,9.3C42.9,9.3,42.9,9.3,42.9,9.3C42.9,9.3,42.8,9.2,42.9,9.3c-0.1-0.1-0.1-0.3-0.2-0.3   c-0.1,0.1-0.1,0.2-0.2,0.3l-0.3-0.1c0,0.1,0,0.2,0.1,0.3c0,0-0.1,0-0.1,0.1c0,0,0,0.1,0,0.1c0.1,0,0.1,0,0.2,0c0,0.1,0,0.2,0,0.4   c0,0,0,0.1,0,0.1c0,0,0,0,0,0c0.1-0.1,0.2-0.1,0.2-0.2l0.1,0.2c0,0,0,0,0,0.1c0,0,0.1,0,0.1,0c0,0,0-0.1,0-0.1l0-0.2c0,0,0,0,0,0   c0,0,0,0,0,0c0.1,0,0.2,0,0.3,0c0,0,0-0.1-0.1-0.1s-0.1,0-0.1-0.1c0-0.1,0.1-0.2,0-0.3C43.1,9.1,43,9.2,42.9,9.3z"></path>
	<path class="st3" d="M40.2,3.3C40.2,3.3,40.2,3.3,40.2,3.3C40.2,3.3,40.1,3.3,40.2,3.3C40.1,3.2,40.1,3.1,40,3   c-0.1,0.1-0.1,0.2-0.2,0.3l-0.3-0.1c0,0.1,0,0.2,0.1,0.3c0,0-0.1,0-0.1,0.1c0,0,0,0.1,0,0.1c0.1,0,0.1,0,0.2,0c0,0.1,0,0.2,0,0.4   c0,0,0,0,0,0c0,0,0,0,0.1,0C39.9,4.1,40,4,40,3.9l0.1,0.2c0,0,0,0,0,0.1c0,0,0.1,0,0.1,0c0,0,0-0.1,0-0.1l0-0.2c0,0,0,0,0,0   c0,0,0,0,0,0c0.1,0,0.2,0,0.3,0c0,0,0-0.1-0.1-0.1c0,0-0.1,0-0.1-0.1c0-0.1,0.1-0.2,0-0.3C40.4,3.2,40.3,3.3,40.2,3.3z"></path>
	<path class="st4" d="M48.4,7C48.4,7,48.4,7,48.4,7C48.4,7,48.4,7,48.4,7c-0.1-0.1,0-0.1-0.1-0.2c0,0-0.1,0.1-0.1,0.2l-0.1,0   c0,0.1,0,0.1,0,0.2c0,0,0,0-0.1,0c0,0,0,0,0,0.1c0,0,0.1,0,0.1,0c0,0.1,0,0.1,0,0.2c0,0,0,0,0,0c0,0,0,0,0,0c0,0,0.1-0.1,0.1-0.1   l0.1,0.1c0,0,0,0,0,0c0,0,0,0,0,0c0,0,0,0,0,0l0-0.1c0,0,0,0,0,0c0,0,0,0,0,0h0.2c0,0,0-0.1,0-0.1c0,0-0.1,0-0.1,0   c0-0.1,0-0.1,0-0.2S48.4,7,48.4,7z"></path>
	<path class="st4" d="M44.7,9.1C44.7,9.1,44.7,9.1,44.7,9.1C44.7,9.1,44.7,9.1,44.7,9.1c-0.1-0.1,0-0.1-0.1-0.2c0,0-0.1,0.1-0.1,0.2   l-0.1,0c0,0.1,0,0.1,0,0.2c0,0,0,0-0.1,0c0,0,0,0,0,0.1c0,0,0.1,0,0.1,0c0,0.1,0,0.1,0,0.2c0,0,0,0,0,0c0,0,0,0,0,0   c0,0,0.1-0.1,0.1-0.1l0.1,0.1c0,0,0,0,0,0c0,0,0,0,0,0c0,0,0,0,0,0l0-0.1c0,0,0,0,0,0c0,0,0,0,0,0c0,0,0.1,0,0.2,0c0,0,0-0.1,0-0.1   c0,0-0.1,0-0.1,0c0-0.1,0-0.1,0-0.2C44.8,9.1,44.8,9.1,44.7,9.1z"></path>
	<path class="st2" d="M41.2,1.7C41.2,1.7,41.2,1.7,41.2,1.7C41.2,1.7,41.1,1.7,41.2,1.7c-0.1-0.1,0-0.1-0.1-0.2c0,0-0.1,0.1-0.1,0.2   l-0.1,0c0,0.1,0,0.1,0,0.2c0,0,0,0-0.1,0c0,0,0,0,0,0.1c0,0,0.1,0,0.1,0c0,0.1,0,0.1,0,0.2c0,0,0,0,0,0c0,0,0,0,0,0   c0,0,0.1-0.1,0.1-0.1l0.1,0.1c0,0,0,0,0,0c0,0,0,0,0,0c0,0,0,0,0,0l0-0.1c0,0,0,0,0,0c0,0,0,0,0,0c0,0,0.1,0,0.2,0c0,0,0-0.1,0-0.1   c0,0-0.1,0-0.1,0c0-0.1,0-0.1,0-0.2C41.3,1.6,41.2,1.7,41.2,1.7z"></path>
	<path class="st2" d="M43.1,5.9C43.1,5.9,43.1,5.9,43.1,5.9C43,5.9,43,5.9,43.1,5.9C43,5.8,43,5.7,43,5.7c0,0-0.1,0.1-0.1,0.2   l-0.1,0c0,0.1,0,0.1,0,0.2c0,0,0,0-0.1,0c0,0,0,0,0,0.1c0,0,0.1,0,0.1,0c0,0.1,0,0.1,0,0.2c0,0,0,0,0,0c0,0,0,0,0,0   c0,0,0.1-0.1,0.1-0.1L43,6.3c0,0,0,0,0,0c0,0,0,0,0,0c0,0,0,0,0,0l0-0.1c0,0,0,0,0,0c0,0,0,0,0,0c0,0,0.1,0,0.1,0c0,0,0-0.1,0-0.1   c0,0-0.1,0-0.1,0c0-0.1,0-0.1,0-0.2C43.2,5.8,43.1,5.9,43.1,5.9z"></path>
	<path class="st2" d="M41.7,4.3C41.7,4.3,41.7,4.3,41.7,4.3C41.7,4.3,41.7,4.3,41.7,4.3c-0.1-0.1,0-0.1-0.1-0.2c0,0-0.1,0.1-0.1,0.2   l-0.1,0c0,0.1,0,0.1,0,0.2c0,0,0,0-0.1,0c0,0,0,0,0,0.1c0,0,0.1,0,0.1,0c0,0.1,0,0.1,0,0.2c0,0,0,0,0,0c0,0,0,0,0,0   c0,0,0.1-0.1,0.1-0.1l0.1,0.1c0,0,0,0,0,0c0,0,0,0,0,0c0,0,0,0,0,0l0-0.1c0,0,0,0,0,0c0,0,0,0,0,0c0,0,0.1,0,0.1,0c0,0,0-0.1,0-0.1   c0,0-0.1,0-0.1,0c0-0.1,0-0.1,0-0.2C41.8,4.2,41.7,4.2,41.7,4.3z"></path>
	<path class="st2" d="M47.6,4.6C47.6,4.6,47.6,4.6,47.6,4.6C47.6,4.6,47.6,4.6,47.6,4.6c-0.1-0.1,0-0.1-0.1-0.2c0,0-0.1,0.1-0.1,0.2   l-0.1,0c0,0.1,0,0.1,0,0.2c0,0,0,0-0.1,0c0,0,0,0,0,0.1c0,0,0.1,0,0.1,0c0,0.1,0,0.1,0,0.2c0,0,0,0,0,0c0,0,0,0,0,0   c0,0,0.1-0.1,0.1-0.1l0.1,0.1c0,0,0,0,0,0c0,0,0,0,0,0c0,0,0,0,0,0l0-0.1c0,0,0,0,0,0c0,0,0,0,0,0c0,0,0.1,0,0.1,0c0,0,0-0.1,0-0.1   s-0.1,0-0.1,0c0-0.1,0-0.1,0-0.2C47.7,4.6,47.6,4.6,47.6,4.6z"></path>
	<path class="st4" d="M44.7,4.3C44.7,4.3,44.7,4.3,44.7,4.3C44.7,4.3,44.7,4.3,44.7,4.3c-0.1-0.1,0-0.1-0.1-0.2c0,0-0.1,0.1-0.1,0.2   l-0.1,0c0,0.1,0,0.1,0,0.2c0,0,0,0-0.1,0c0,0,0,0,0,0.1c0,0,0.1,0,0.1,0c0,0.1,0,0.1,0,0.2c0,0,0,0,0,0c0,0,0,0,0,0   c0,0,0.1-0.1,0.1-0.1l0.1,0.1c0,0,0,0,0,0c0,0,0,0,0,0c0,0,0,0,0,0l0-0.1c0,0,0,0,0,0c0,0,0,0,0,0c0,0,0.1,0,0.2,0c0,0,0-0.1,0-0.1   c0,0-0.1,0-0.1,0c0-0.1,0-0.1,0-0.2C44.8,4.3,44.8,4.3,44.7,4.3z"></path>
	<path class="st5" d="M43.8,4.7C43.8,4.7,43.8,4.7,43.8,4.7C43.8,4.7,43.8,4.7,43.8,4.7c-0.1-0.1,0-0.1-0.1-0.2c0,0-0.1,0.1-0.1,0.2   l-0.1,0c0,0.1,0,0.1,0,0.2c0,0,0,0-0.1,0c0,0,0,0,0,0.1c0,0,0.1,0,0.1,0c0,0.1,0,0.1,0,0.2c0,0,0,0,0,0c0,0,0,0,0,0   c0,0,0.1-0.1,0.1-0.1l0.1,0.1c0,0,0,0,0,0c0,0,0,0,0,0c0,0,0,0,0,0l0-0.1c0,0,0,0,0,0c0,0,0,0,0,0C44,5,44,5,44.1,5   c0,0,0-0.1,0-0.1c0,0-0.1,0-0.1,0c0-0.1,0-0.1,0-0.2C43.9,4.6,43.9,4.7,43.8,4.7z"></path>
	<path class="st4" d="M43,2.3C43,2.4,43,2.4,43,2.3C43,2.4,43,2.3,43,2.3c-0.1-0.1,0-0.1-0.1-0.2c0,0-0.1,0.1-0.1,0.2l-0.1,0   c0,0.1,0,0.1,0,0.2c0,0,0,0-0.1,0c0,0,0,0,0,0.1c0,0,0.1,0,0.1,0c0,0.1,0,0.1,0,0.2c0,0,0,0,0,0c0,0,0,0,0,0c0,0,0.1-0.1,0.1-0.1   L43,2.8c0,0,0,0,0,0c0,0,0,0,0,0c0,0,0,0,0,0l0-0.1c0,0,0,0,0,0c0,0,0,0,0,0c0,0,0.1,0,0.2,0c0,0,0-0.1,0-0.1c0,0-0.1,0-0.1,0   c0-0.1,0-0.1,0-0.2S43,2.3,43,2.3z"></path>
	<path class="st5" d="M44.6,5.4C44.6,5.4,44.6,5.4,44.6,5.4C44.6,5.4,44.6,5.4,44.6,5.4c-0.1-0.1,0-0.1-0.1-0.2c0,0-0.1,0.1-0.1,0.2   l-0.1,0c0,0.1,0,0.1,0,0.2c0,0,0,0-0.1,0c0,0,0,0,0,0.1c0,0,0.1,0,0.1,0c0,0.1,0,0.1,0,0.2c0,0,0,0,0,0c0,0,0,0,0,0   c0,0,0.1-0.1,0.1-0.1l0.1,0.1c0,0,0,0,0,0c0,0,0,0,0,0c0,0,0,0,0,0l0-0.1c0,0,0,0,0,0c0,0,0,0,0,0c0,0,0.1,0,0.2,0c0,0,0-0.1,0-0.1   c0,0-0.1,0-0.1,0c0-0.1,0-0.1,0-0.2C44.8,5.4,44.7,5.4,44.6,5.4z"></path>
</g>
<path class="st2" d="M8.2,1.8C8.1,1.6,7.8,1.8,7.9,2C8,2.1,8,2.1,8,2.2c0.4,0.6,0.6,1.2,0.8,1.9c0,0.2,0.1,0.3,0,0.5  c0.1-0.4,0-0.9-0.1-1.3C8.7,2.8,8.5,2.4,8.3,2C8.3,2,8.3,1.9,8.2,1.8z"></path>
<path class="st3" d="M5.6,3c-0.3,0-0.3,0.4,0,0.4c0.1,0,0.1,0,0.2,0c0.8,0,1.6,0.3,2.4,0.7c0.2,0.1,0.4,0.2,0.5,0.3  C8.3,4,7.8,3.7,7.4,3.5S6.4,3.2,5.8,3C5.7,3,5.7,3,5.6,3z"></path>
<path class="st4" d="M5.6,4c-0.2,0-0.1,0.3,0,0.3c0,0,0.1,0,0.1,0c0.5,0,1.1,0.1,1.6,0.3c0.1,0,0.3,0.1,0.4,0.2  C7.5,4.5,7.2,4.4,6.8,4.3C6.5,4.2,6.2,4.1,5.8,4C5.8,4,5.7,4,5.6,4z"></path>
<path class="st2" d="M9.2,8.6c0,0.2,0.3,0.1,0.2-0.1c0,0,0-0.1,0-0.1C9.2,7.9,9.3,7.3,9.3,6.8c0-0.1,0-0.3,0.1-0.4  C9.2,6.7,9.1,7,9.1,7.4c0,0.3,0,0.7,0,1C9.2,8.5,9.2,8.6,9.2,8.6z"></path>
<path class="st4" d="M6,1.6c-0.1,0-0.1,0.1,0,0.2c0,0,0.1,0,0.1,0C6.3,1.8,6.7,2,6.9,2.1c0.1,0,0.1,0.1,0.2,0.2C7,2.1,6.8,2,6.6,1.9  C6.5,1.8,6.3,1.7,6.1,1.6C6,1.6,6,1.6,6,1.6z"></path>
<path class="st3" d="M4.3,5.6C4.1,5.8,4.3,6.2,4.6,6C4.6,6,4.7,6,4.8,5.9c0.8-0.4,1.8-0.6,2.7-0.7c0.2,0,0.5-0.1,0.7,0  C7.6,5.1,7,5.1,6.4,5.2S5.2,5.4,4.6,5.5C4.5,5.6,4.4,5.6,4.3,5.6z"></path>
<path class="st2" d="M5.1,7.1C4.9,7.3,5.2,7.5,5.4,7.3c0.1,0,0.1-0.1,0.2-0.1c0.6-0.5,1.4-0.9,2.1-1.3c0.2-0.1,1-0.2,1.2-0.2  c-0.5,0-1.6,0.2-2.1,0.4C6.2,6.4,5.8,6.6,5.3,6.9C5.2,7,5.2,7,5.1,7.1z"></path>
<path class="st3" d="M6.5,9.4c-0.1,0.3,0.3,0.3,0.4,0c0-0.1,0-0.1,0-0.2C7,8.5,7.5,7.7,7.9,7C8,6.8,8.6,6.3,8.8,6.2  C8.3,6.5,7.5,7.3,7.2,7.7C7,8.2,6.7,8.7,6.5,9.2C6.5,9.3,6.5,9.4,6.5,9.4z"></path>
<path class="st3" d="M9.2,0.5c-0.1-0.3-0.5,0-0.4,0.2c0,0.1,0.1,0.1,0.1,0.2c0.4,0.8,0.5,1.8,0.6,2.7c0,0.2,0,0.5,0,0.7  c0.2-0.6,0.2-1.2,0.1-1.8S9.5,1.3,9.3,0.8C9.3,0.7,9.2,0.6,9.2,0.5z"></path>
<path class="st3" d="M7.1,0.9C7.1,0.9,7.1,0.9,7.1,0.9C7.2,0.9,7.2,0.9,7.1,0.9c0.1-0.1,0.1-0.2,0.1-0.2c0.1,0.1,0.1,0.1,0.1,0.2  l0.2-0.1c0,0.1,0,0.2,0,0.2c0,0,0.1,0,0.1,0.1c0,0,0,0.1,0,0.1c0,0-0.1,0-0.1,0c0,0.1,0,0.2,0,0.3c0,0,0,0,0,0c0,0,0,0,0,0  c-0.1,0-0.1-0.1-0.2-0.2L7.2,1.5c0,0,0,0,0,0c0,0,0,0-0.1,0c0,0,0,0,0-0.1l0-0.2c0,0,0,0,0,0c0,0,0,0,0,0c-0.1,0-0.1,0-0.2,0  c0,0,0-0.1,0.1-0.1c0,0,0.1,0,0.1-0.1C7,1.1,6.9,1,7,0.9C7,0.8,7.1,0.9,7.1,0.9z"></path>
<path class="st2" d="M10.8,1.8c0.1-0.2,0.4,0,0.3,0.2c0,0-0.1,0.1-0.1,0.1c-0.4,0.6-0.6,1.2-0.8,1.9c0,0.2-0.1,0.3,0,0.5  c-0.1-0.4,0-0.9,0.1-1.3s0.3-0.8,0.5-1.2C10.7,2,10.8,1.9,10.8,1.8z"></path>
<path class="st3" d="M13.5,3c0.3,0,0.3,0.4,0,0.4c-0.1,0-0.1,0-0.2,0c-0.8,0-1.6,0.3-2.4,0.7c-0.2,0.1-0.4,0.2-0.5,0.3  c0.3-0.4,0.8-0.7,1.3-0.9s1-0.4,1.5-0.5C13.3,3,13.4,3,13.5,3z"></path>
<path class="st2" d="M13.4,4c0.2,0,0.1,0.3,0,0.3c0,0-0.1,0-0.1,0c-0.5,0-1.1,0.1-1.6,0.3c-0.1,0-0.3,0.1-0.4,0.2  c0.3-0.2,0.6-0.4,0.9-0.5c0.3-0.1,0.7-0.2,1-0.2C13.3,4,13.3,4,13.4,4z"></path>
<path class="st4" d="M13.1,1.6c0.1,0,0.1,0.1,0,0.2c0,0-0.1,0-0.1,0c-0.3,0.1-0.6,0.2-0.9,0.4c-0.1,0-0.1,0.1-0.2,0.2  C12,2.1,12.2,2,12.4,1.9c0.2-0.1,0.4-0.2,0.6-0.3C13,1.6,13,1.6,13.1,1.6z"></path>
<path class="st4" d="M10.3,8.9c0,0.1-0.2,0.1-0.1-0.1c0,0,0-0.1,0-0.1c0.1-0.3,0-0.7,0-1c0-0.1,0-0.2-0.1-0.2  c0.1,0.2,0.2,0.4,0.2,0.6c0,0.2,0,0.4,0,0.6C10.4,8.9,10.4,8.9,10.3,8.9z"></path>
<path class="st2" d="M13,8.2c0.1,0.1-0.1,0.1-0.2,0c0,0,0-0.1-0.1-0.1c-0.2-0.4-0.6-0.8-1-1.3c-0.1-0.1-0.2-0.2-0.3-0.3  C11.7,6.8,12,7,12.2,7.3c0.2,0.3,0.5,0.5,0.7,0.8C12.9,8.1,13,8.2,13,8.2z"></path>
<path class="st4" d="M5.7,8.2c-0.1,0.1,0.1,0.1,0.2,0c0,0,0-0.1,0.1-0.1c0.2-0.4,0.6-0.8,1-1.3c0.1-0.1,0.2-0.2,0.3-0.3  C7,6.8,6.7,7,6.5,7.3C6.3,7.6,6,7.8,5.8,8.1C5.8,8.1,5.8,8.2,5.7,8.2z"></path>
<path class="st4" d="M8.4,8.9C8.4,9,8.6,9,8.5,8.9c0,0,0-0.1,0-0.1c-0.1-0.3,0-0.7,0-1c0-0.1,0-0.2,0.1-0.2C8.5,7.8,8.4,8,8.4,8.2  c0,0.2,0,0.4,0,0.6C8.4,8.9,8.4,8.9,8.4,8.9z"></path>
<path class="st4" d="M12.2,2.6c0.1,0,0.1,0.1,0,0.2c0,0-0.1,0-0.1,0c-0.3,0.1-0.6,0.2-0.9,0.4c-0.1,0-0.1,0.1-0.2,0.2  c0.1-0.2,0.3-0.3,0.5-0.4c0.2-0.1,0.4-0.2,0.6-0.3C12.2,2.7,12.2,2.6,12.2,2.6z"></path>
<path class="st4" d="M11.3,0.6c0.1-0.1,0.2,0.1,0.1,0.1c0,0,0,0-0.1,0c-0.3,0.2-0.5,0.4-0.7,0.7c-0.1,0.1-0.1,0.1-0.1,0.2  c0.1-0.2,0.2-0.4,0.3-0.6C10.9,1,11,0.8,11.3,0.6C11.2,0.6,11.2,0.6,11.3,0.6z"></path>
<path class="st3" d="M14.7,5.6c0.3,0.1,0,0.5-0.2,0.4c-0.1,0-0.1-0.1-0.2-0.1c-0.8-0.4-1.8-0.6-2.7-0.7c-0.2,0-0.5-0.1-0.7,0  c0.6-0.2,1.2-0.2,1.8-0.1c0.6,0.1,1.2,0.2,1.7,0.4C14.5,5.6,14.6,5.6,14.7,5.6z"></path>
<path class="st2" d="M13.9,7.1c0.2,0.2-0.1,0.4-0.3,0.2c-0.1,0-0.1-0.1-0.2-0.1c-0.6-0.5-1.4-0.9-2.1-1.3c-0.2-0.1-1-0.2-1.2-0.2  c0.5,0,1.6,0.2,2.1,0.4c0.5,0.2,0.9,0.5,1.4,0.8C13.8,7,13.9,7,13.9,7.1z"></path>
<path class="st3" d="M11.7,9.7c0,0.3-0.3,0.2-0.4,0c0-0.1,0-0.1,0-0.2c-0.1-0.8-0.4-1.6-0.7-2.4C10.5,6.9,10,6.3,9.8,6.2  c0.4,0.4,1.1,1.3,1.3,1.8c0.2,0.5,0.4,1,0.5,1.5C11.7,9.6,11.7,9.6,11.7,9.7z"></path>
<path class="st3" d="M11.9,0.9C11.9,0.9,11.9,0.9,11.9,0.9C11.9,0.9,11.9,0.9,11.9,0.9c-0.1-0.1-0.1-0.2-0.1-0.2  c-0.1,0.1-0.1,0.1-0.1,0.2l-0.2-0.1c0,0.1,0,0.2,0,0.2c0,0-0.1,0-0.1,0.1c0,0,0,0.1,0,0.1c0,0,0.1,0,0.1,0c0,0.1,0,0.2,0,0.3  c0,0,0,0,0,0c0,0,0,0,0,0c0.1,0,0.1-0.1,0.2-0.2l0.1,0.2c0,0,0,0,0,0c0,0,0,0,0.1,0c0,0,0,0,0-0.1l0-0.2c0,0,0,0,0,0c0,0,0,0,0,0  c0.1,0,0.1,0,0.2,0c0,0,0-0.1-0.1-0.1c0,0-0.1,0-0.1-0.1c0-0.1,0.1-0.2,0-0.2C12,0.8,12,0.9,11.9,0.9z"></path>
<path class="st4" d="M12.5,8.8C12.5,8.8,12.5,8.8,12.5,8.8C12.4,8.8,12.4,8.8,12.5,8.8c-0.1-0.1-0.1-0.2-0.1-0.2  c-0.1,0.1-0.1,0.1-0.1,0.2l-0.2-0.1c0,0.1,0,0.2,0,0.2c0,0-0.1,0-0.1,0.1c0,0,0,0.1,0,0.1c0,0,0.1,0,0.1,0c0,0.1,0,0.2,0,0.3  c0,0,0,0,0,0c0,0,0,0,0,0c0.1,0,0.1-0.1,0.2-0.2l0.1,0.2c0,0,0,0,0,0c0,0,0,0,0.1,0c0,0,0,0,0-0.1l0-0.2c0,0,0,0,0,0c0,0,0,0,0,0  c0.1,0,0.1,0,0.2,0c0,0,0-0.1-0.1-0.1c0,0-0.1,0-0.1-0.1c0-0.1,0.1-0.2,0-0.2C12.6,8.7,12.5,8.8,12.5,8.8z"></path>
<path class="st3" d="M14.1,3.5C14.1,3.5,14.1,3.5,14.1,3.5C14.1,3.5,14.1,3.5,14.1,3.5C14,3.4,14,3.3,14,3.3  c-0.1,0.1-0.1,0.1-0.1,0.2l-0.2-0.1c0,0.1,0,0.2,0,0.2c0,0-0.1,0-0.1,0.1c0,0,0,0.1,0,0.1c0,0,0.1,0,0.1,0c0,0.1,0,0.2,0,0.3  c0,0,0,0,0,0c0,0,0,0,0,0c0.1,0,0.1-0.1,0.2-0.2L14,4.1c0,0,0,0,0,0c0,0,0,0,0.1,0c0,0,0,0,0-0.1l0-0.2c0,0,0,0,0,0c0,0,0,0,0,0  c0.1,0,0.1,0,0.2,0c0,0,0-0.1-0.1-0.1c0,0-0.1,0-0.1-0.1c0-0.1,0.1-0.2,0-0.2C14.2,3.4,14.2,3.5,14.1,3.5z"></path>
<path class="st3" d="M7.6,9.6C7.6,9.6,7.6,9.6,7.6,9.6C7.6,9.6,7.6,9.6,7.6,9.6C7.5,9.5,7.5,9.3,7.5,9.2C7.4,9.3,7.3,9.4,7.3,9.5  L7,9.5c0,0.1,0,0.2,0.1,0.3c0,0-0.1,0-0.1,0.1c0,0,0,0.1,0,0.1C7,10,7,10,7.1,10c0,0.1,0,0.2,0,0.4c0,0,0,0,0,0c0,0,0,0,0.1,0  c0.1-0.1,0.2-0.1,0.2-0.2l0.1,0.2c0,0,0,0,0,0.1c0,0,0.1,0,0.1,0c0,0,0-0.1,0-0.1l0-0.2c0,0,0,0,0,0c0,0,0,0,0,0c0.1,0,0.2,0,0.3,0  c0,0,0-0.1-0.1-0.1c0,0-0.1,0-0.1-0.1c0-0.1,0.1-0.2,0-0.3C7.8,9.5,7.7,9.5,7.6,9.6z"></path>
<path class="st3" d="M4.9,3.7C4.9,3.7,4.9,3.7,4.9,3.7C4.9,3.7,4.9,3.7,4.9,3.7C4.8,3.5,4.8,3.4,4.8,3.3C4.7,3.4,4.6,3.5,4.6,3.6  L4.3,3.5c0,0.1,0,0.2,0,0.3c0,0-0.1,0-0.1,0.1c0,0,0,0.1,0,0.1c0.1,0,0.1,0,0.2,0c0,0.1,0,0.2,0,0.4c0,0,0,0,0,0c0,0,0,0,0.1,0  c0.1-0.1,0.2-0.1,0.2-0.2l0.1,0.2c0,0,0,0,0,0.1c0,0,0.1,0,0.1,0c0,0,0-0.1,0-0.1l0-0.2c0,0,0,0,0,0c0,0,0,0,0,0c0.1,0,0.2,0,0.3,0  c0,0,0-0.1-0.1-0.1c0,0-0.1,0-0.1-0.1c0-0.1,0.1-0.2,0-0.3C5.1,3.5,5,3.6,4.9,3.7z"></path>
<path class="st4" d="M13.1,7.3C13.1,7.3,13.1,7.3,13.1,7.3C13.1,7.3,13.1,7.3,13.1,7.3c-0.1-0.1,0-0.1-0.1-0.2c0,0-0.1,0.1-0.1,0.2  l-0.1,0c0,0.1,0,0.1,0,0.2c0,0,0,0-0.1,0c0,0,0,0,0,0.1c0,0,0.1,0,0.1,0c0,0.1,0,0.1,0,0.2c0,0,0,0,0,0c0,0,0,0,0,0  c0,0,0.1-0.1,0.1-0.1l0.1,0.1c0,0,0,0,0,0c0,0,0,0,0,0c0,0,0,0,0,0l0-0.1c0,0,0,0,0,0c0,0,0,0,0,0c0.1,0,0.1,0,0.1,0  c0,0,0-0.1,0-0.1c0,0-0.1,0-0.1,0c0-0.1,0-0.1,0-0.2C13.2,7.3,13.1,7.3,13.1,7.3z"></path>
<path class="st4" d="M9.4,9.5C9.4,9.5,9.4,9.5,9.4,9.5C9.4,9.5,9.4,9.4,9.4,9.5c-0.1-0.1,0-0.1-0.1-0.2c0,0-0.1,0.1-0.1,0.2l-0.1,0  c0,0.1,0,0.1,0,0.2c0,0,0,0-0.1,0c0,0,0,0,0,0.1c0,0,0.1,0,0.1,0c0,0.1,0,0.1,0,0.2c0,0,0,0,0,0c0,0,0,0,0,0c0,0,0.1-0.1,0.1-0.1  l0.1,0.1c0,0,0,0,0,0c0,0,0,0,0,0c0,0,0,0,0,0l0-0.1c0,0,0,0,0,0c0,0,0,0,0,0c0,0,0.1,0,0.1,0c0,0,0-0.1,0-0.1c0,0-0.1,0-0.1,0  c0-0.1,0-0.1,0-0.2S9.5,9.4,9.4,9.5z"></path>
<path class="st2" d="M5.9,2.1C5.9,2.1,5.9,2.1,5.9,2.1C5.9,2.1,5.9,2,5.9,2.1C5.8,2,5.9,1.9,5.8,1.9c0,0-0.1,0.1-0.1,0.2L5.6,2  c0,0.1,0,0.1,0,0.2c0,0,0,0-0.1,0c0,0,0,0,0,0.1c0,0,0.1,0,0.1,0c0,0.1,0,0.1,0,0.2c0,0,0,0,0,0c0,0,0,0,0,0c0,0,0.1-0.1,0.1-0.1  l0.1,0.1c0,0,0,0,0,0c0,0,0,0,0,0c0,0,0,0,0,0l0-0.1c0,0,0,0,0,0c0,0,0,0,0,0c0,0,0.1,0,0.1,0c0,0,0-0.1,0-0.1S6,2.2,6,2.2  c0-0.1,0-0.1,0-0.2S5.9,2,5.9,2.1z"></path>
<path class="st2" d="M7.8,6.2C7.8,6.2,7.8,6.2,7.8,6.2C7.8,6.2,7.8,6.2,7.8,6.2C7.7,6.2,7.7,6.1,7.7,6c0,0-0.1,0.1-0.1,0.2l-0.1,0  c0,0.1,0,0.1,0,0.2c0,0,0,0-0.1,0c0,0,0,0,0,0.1c0,0,0.1,0,0.1,0c0,0.1,0,0.1,0,0.2c0,0,0,0,0,0c0,0,0,0,0,0c0,0,0.1-0.1,0.1-0.1  l0.1,0.1c0,0,0,0,0,0c0,0,0,0,0,0c0,0,0,0,0,0l0-0.1c0,0,0,0,0,0c0,0,0,0,0,0c0,0,0.1,0,0.1,0c0,0,0-0.1,0-0.1c0,0-0.1,0-0.1,0  c0-0.1,0-0.1,0-0.2S7.8,6.2,7.8,6.2z"></path>
<path class="st2" d="M6.4,4.6C6.4,4.6,6.4,4.6,6.4,4.6C6.4,4.6,6.4,4.6,6.4,4.6c-0.1-0.1,0-0.1-0.1-0.2c0,0-0.1,0.1-0.1,0.2l-0.1,0  c0,0.1,0,0.1,0,0.2c0,0,0,0-0.1,0c0,0,0,0,0,0.1c0,0,0.1,0,0.1,0c0,0.1,0,0.1,0,0.2c0,0,0,0,0,0c0,0,0,0,0,0c0,0,0.1-0.1,0.1-0.1  L6.4,5c0,0,0,0,0,0c0,0,0,0,0,0c0,0,0,0,0,0l0-0.1c0,0,0,0,0,0c0,0,0,0,0,0c0,0,0.1,0,0.1,0c0,0,0-0.1,0-0.1s-0.1,0-0.1,0  c0-0.1,0-0.1,0-0.2C6.5,4.5,6.5,4.6,6.4,4.6z"></path>
<path class="st2" d="M12.3,5C12.3,5,12.3,5,12.3,5C12.3,5,12.3,5,12.3,5c-0.1-0.1,0-0.1-0.1-0.2c0,0-0.1,0.1-0.1,0.2l-0.1,0  C12,5,12,5,12,5.1c0,0,0,0-0.1,0c0,0,0,0,0,0.1c0,0,0.1,0,0.1,0c0,0.1,0,0.1,0,0.2c0,0,0,0,0,0c0,0,0,0,0,0c0,0,0.1-0.1,0.1-0.1  l0.1,0.1c0,0,0,0,0,0c0,0,0,0,0,0c0,0,0,0,0,0l0-0.1c0,0,0,0,0,0c0,0,0,0,0,0h0.1c0,0,0-0.1,0-0.1s-0.1,0-0.1,0c0-0.1,0-0.1,0-0.2  C12.4,4.9,12.3,5,12.3,5z"></path>
<path class="st4" d="M9.4,4.7C9.4,4.7,9.4,4.7,9.4,4.7C9.4,4.7,9.4,4.7,9.4,4.7c-0.1-0.1,0-0.1-0.1-0.2c0,0-0.1,0.1-0.1,0.2l-0.1,0  c0,0.1,0,0.1,0,0.2c0,0,0,0-0.1,0c0,0,0,0,0,0.1c0,0,0.1,0,0.1,0c0,0.1,0,0.1,0,0.2c0,0,0,0,0,0c0,0,0,0,0,0c0,0,0.1-0.1,0.1-0.1  l0.1,0.1c0,0,0,0,0,0c0,0,0,0,0,0c0,0,0,0,0,0l0-0.1c0,0,0,0,0,0c0,0,0,0,0,0c0.1,0,0.1,0,0.1,0c0,0,0-0.1,0-0.1c0,0-0.1,0-0.1,0  c0-0.1,0-0.1,0-0.2C9.5,4.6,9.5,4.6,9.4,4.7z"></path>
<path class="st5" d="M8.5,5C8.5,5.1,8.5,5.1,8.5,5C8.5,5.1,8.5,5,8.5,5C8.5,5,8.5,4.9,8.5,4.9c0,0-0.1,0.1-0.1,0.2L8.2,5  c0,0.1,0,0.1,0,0.2c0,0,0,0-0.1,0c0,0,0,0,0,0.1c0,0,0.1,0,0.1,0c0,0.1,0,0.1,0,0.2c0,0,0,0,0,0c0,0,0,0,0,0c0,0,0.1-0.1,0.1-0.1  l0.1,0.1c0,0,0,0,0,0c0,0,0,0,0,0c0,0,0,0,0,0l0-0.1c0,0,0,0,0,0c0,0,0,0,0,0c0,0,0.1,0,0.1,0c0,0,0-0.1,0-0.1s-0.1,0-0.1,0  c0-0.1,0-0.1,0-0.2C8.7,5,8.6,5,8.5,5z"></path>
<path class="st4" d="M7.7,2.7C7.7,2.7,7.7,2.7,7.7,2.7C7.7,2.7,7.7,2.7,7.7,2.7c-0.1-0.1,0-0.1-0.1-0.2c0,0-0.1,0.1-0.1,0.2l-0.1,0  c0,0.1,0,0.1,0,0.2c0,0,0,0-0.1,0c0,0,0,0,0,0.1c0,0,0.1,0,0.1,0c0,0.1,0,0.1,0,0.2c0,0,0,0,0,0c0,0,0,0,0,0c0,0,0.1-0.1,0.1-0.1  l0.1,0.1c0,0,0,0,0,0c0,0,0,0,0,0c0,0,0,0,0,0l0-0.1c0,0,0,0,0,0c0,0,0,0,0,0h0.1c0,0,0-0.1,0-0.1c0,0-0.1,0-0.1,0  c0-0.1,0-0.1,0-0.2S7.8,2.7,7.7,2.7z"></path>
<path class="st5" d="M9.4,5.8C9.4,5.8,9.3,5.8,9.4,5.8C9.3,5.8,9.3,5.8,9.4,5.8c-0.1-0.1,0-0.1-0.1-0.2c0,0-0.1,0.1-0.1,0.2L9,5.7  c0,0.1,0,0.1,0,0.2c0,0,0,0-0.1,0c0,0,0,0,0,0.1C9,6,9,6,9.1,6c0,0.1,0,0.1,0,0.2c0,0,0,0,0,0c0,0,0,0,0,0c0,0,0.1-0.1,0.1-0.1  l0.1,0.1c0,0,0,0,0,0c0,0,0,0,0,0c0,0,0,0,0,0l0-0.1c0,0,0,0,0,0c0,0,0,0,0,0c0,0,0.1,0,0.1,0c0,0,0-0.1,0-0.1c0,0-0.1,0-0.1,0  c0-0.1,0-0.1,0-0.2C9.5,5.7,9.4,5.7,9.4,5.8z"></path>
</svg>