<?xml version="1.0" encoding="UTF-8"?>
<svg xmlns="http://www.w3.org/2000/svg" viewBox="0 0 35.39 42.52">
<path fill="#890052" d="M22.64,0c3.31.2,5.53.6,10.88,2.31l5.44,24L22.61,42.52v-2L37.37,25.83,32.3,3.46A35.55,35.55,0,0,0,24,1.56L19.84,42.49,3.56,26.29,9,2.33C14.3.65,16.31.22,19.9,0V1.48c-3.34.25-4.57.43-9.68,2L5.15,25.83,18.67,39.27Z" transform="translate(-3.56)"></path>
<path fill="#ff9200" d="M21.26,11.11a2.81,2.81,0,0,0-2.81,2.82v8.43a2.81,2.81,0,1,0,5.62,0V13.93a2.81,2.81,0,0,0-2.81-2.82" transform="translate(-3.56)"></path>
</svg>