<?xml version="1.0" encoding="UTF-8"?>
<svg id="denielden_logo" viewBox="0 0 56.69 53.6" xmlns="http://www.w3.org/2000/svg" xml:space="preserve">
<style type="text/css">
	.white{fill:#fff;}
	.purple{fill:#890052;}
	.orange{fill:#FF9200;}
</style>
<g class="white">
	<path d="M0,49.35l4.05-2.4v0.5l-3.51,2.1l3.51,2.11v0.53L0,49.74V49.35z"></path>
	<path d="M35.57,43.75h0.51l-7.24,9.86h-0.48L35.57,43.75z"></path>
	<path d="M52.64,46.95l4.05,2.41v0.38l-4.05,2.44v-0.53l3.51-2.11l-3.51-2.1V46.95z"></path>
</g>
<g class="white">
	<path d="M10.47,43.75v8.43h-0.35v-1.33c-0.22,0.41-0.53,0.73-0.95,0.97c-0.41,0.24-0.84,0.36-1.27,0.36   c-0.72,0-1.33-0.26-1.84-0.77c-0.51-0.51-0.76-1.13-0.76-1.84c0-0.72,0.25-1.33,0.76-1.84c0.5-0.51,1.12-0.77,1.84-0.77   c0.45,0,0.88,0.12,1.3,0.37c0.42,0.24,0.72,0.57,0.92,0.98v-4.54H10.47z M5.66,49.57c0,0.62,0.22,1.16,0.65,1.62   c0.44,0.45,0.96,0.68,1.57,0.68s1.14-0.23,1.59-0.68c0.45-0.45,0.67-0.99,0.67-1.61c0-0.62-0.22-1.16-0.67-1.62   c-0.45-0.46-0.98-0.69-1.59-0.69s-1.13,0.23-1.57,0.69C5.88,48.41,5.66,48.95,5.66,49.57z"></path>
	<path d="M14.39,52.18h-0.1c-0.69,0-1.29-0.26-1.8-0.79c-0.51-0.53-0.77-1.14-0.77-1.84c0-0.7,0.25-1.31,0.76-1.82   c0.51-0.51,1.14-0.77,1.88-0.77c0.75,0,1.39,0.3,1.93,0.91l-3.42,3.43c0.47,0.38,0.93,0.58,1.36,0.58s0.83-0.1,1.17-0.3   c0.34-0.2,0.63-0.47,0.89-0.85v0.57C15.75,51.89,15.13,52.18,14.39,52.18z M14.28,47.26c-0.58,0-1.09,0.23-1.54,0.68   c-0.45,0.45-0.67,0.98-0.67,1.57c0,0.59,0.19,1.11,0.58,1.55l3.17-3.2C15.37,47.46,14.86,47.26,14.28,47.26z"></path>
	<path d="M17.9,52.18h-0.35v-5.23h0.35v1.13c0.37-0.75,1-1.13,1.9-1.13c0.61,0,1.12,0.21,1.54,0.64c0.41,0.43,0.62,0.95,0.62,1.56   v3.02h-0.35v-3.02c0-0.51-0.18-0.95-0.53-1.33c-0.35-0.38-0.78-0.57-1.28-0.57c-0.5,0-0.94,0.19-1.32,0.57   c-0.38,0.38-0.57,0.82-0.57,1.33V52.18z"></path>
	<path d="M23.39,45.87c-0.21,0-0.32-0.1-0.32-0.3c0-0.2,0.11-0.3,0.32-0.3s0.32,0.1,0.32,0.3C23.7,45.77,23.6,45.87,23.39,45.87z    M23.56,46.96v5.23h-0.35v-5.23H23.56z"></path>
	<path d="M27.48,52.18h-0.1c-0.69,0-1.29-0.26-1.8-0.79c-0.51-0.53-0.77-1.14-0.77-1.84c0-0.7,0.25-1.31,0.76-1.82   c0.51-0.51,1.14-0.77,1.88-0.77s1.39,0.3,1.93,0.91l-3.42,3.43c0.47,0.38,0.93,0.58,1.36,0.58s0.83-0.1,1.17-0.3   c0.34-0.2,0.63-0.47,0.89-0.85v0.57C28.84,51.89,28.22,52.18,27.48,52.18z M27.37,47.26c-0.58,0-1.09,0.23-1.54,0.68   c-0.45,0.45-0.67,0.98-0.67,1.57c0,0.59,0.19,1.11,0.58,1.55l3.17-3.2C28.46,47.46,27.94,47.26,27.37,47.26z"></path>
	<path d="M39.9,43.75v8.43h-0.35v-1.33c-0.22,0.41-0.53,0.73-0.95,0.97c-0.41,0.24-0.84,0.36-1.27,0.36c-0.72,0-1.33-0.26-1.84-0.77   c-0.51-0.51-0.76-1.13-0.76-1.84c0-0.72,0.25-1.33,0.76-1.84c0.5-0.51,1.12-0.77,1.84-0.77c0.45,0,0.88,0.12,1.3,0.37   c0.42,0.24,0.72,0.57,0.92,0.98v-4.54H39.9z M35.08,49.57c0,0.62,0.22,1.16,0.65,1.62s0.96,0.68,1.57,0.68s1.14-0.23,1.59-0.68   c0.45-0.45,0.67-0.99,0.67-1.61c0-0.62-0.22-1.16-0.67-1.62c-0.45-0.46-0.98-0.69-1.59-0.69s-1.13,0.23-1.57,0.69   C35.3,48.41,35.08,48.95,35.08,49.57z"></path>
	<path d="M43.82,52.18h-0.1c-0.69,0-1.29-0.26-1.8-0.79c-0.51-0.53-0.77-1.14-0.77-1.84c0-0.7,0.25-1.31,0.76-1.82   c0.51-0.51,1.14-0.77,1.88-0.77s1.39,0.3,1.93,0.91l-3.42,3.43c0.47,0.38,0.93,0.58,1.36,0.58s0.83-0.1,1.17-0.3   c0.34-0.2,0.63-0.47,0.89-0.85v0.57C45.18,51.89,44.56,52.18,43.82,52.18z M43.71,47.26c-0.58,0-1.09,0.23-1.54,0.68   c-0.45,0.45-0.67,0.98-0.67,1.57c0,0.59,0.19,1.11,0.58,1.55l3.17-3.2C44.8,47.46,44.28,47.26,43.71,47.26z"></path>
	<path d="M47.33,52.18h-0.35v-5.23h0.35v1.13c0.37-0.75,1-1.13,1.9-1.13c0.61,0,1.12,0.21,1.54,0.64c0.41,0.43,0.62,0.95,0.62,1.56   v3.02h-0.35v-3.02c0-0.51-0.18-0.95-0.53-1.33c-0.35-0.38-0.78-0.57-1.28-0.57s-0.94,0.19-1.32,0.57   c-0.38,0.38-0.57,0.82-0.57,1.33V52.18z"></path>
</g>
<path class="white" d="M29.75,35.32l13.38-13.38L38.57,1.89c-4.51-1.43-6.15-1.7-8.82-1.89l-3.41,33.67L14.36,21.7l4.38-19.24  c4.36-1.33,5.61-1.53,8.2-1.73V0c-2.67,0.19-4.3,0.47-8.82,1.89l-4.56,20.04l13.38,13.38l3.48-34.53c2.18,0.18,3.6,0.47,7.53,1.68  l4.38,19.24L29.75,34.28V35.32z"></path>
<path class="orange" d="M28.35,9.23c-1.23,0-2.24,1-2.24,2.24v6.71c0,1.23,1,2.24,2.24,2.24c1.23,0,2.24-1,2.24-2.24v-6.71  C30.58,10.24,29.58,9.23,28.35,9.23z"></path>
</svg>