<?xml version="1.0" encoding="UTF-8"?>
<svg id="denielden_logo" viewBox="0 0 169.09 50" xmlns="http://www.w3.org/2000/svg" xml:space="preserve">
<style type="text/css">
	.white{fill:#fff;}
	.purple{fill:#890052;}
	.orange{fill:#FF9200;}
</style>
<path class="white" d="M22.92,50l18.95-18.95L35.4,2.68C29.01,0.66,26.69,0.27,22.91,0l-4.83,47.68L1.14,30.73l6.2-27.24  c6.17-1.89,7.94-2.17,11.61-2.45V0c-3.78,0.27-6.09,0.66-12.49,2.68L0,31.05L18.94,50l4.92-48.89c3.09,0.25,5.09,0.66,10.66,2.38  l6.2,27.24L22.92,48.54V50z"></path>
<g class="white">
	<path d="M50.35,24.8l8.49-5.02v1.05l-7.35,4.39l7.35,4.42v1.1l-8.49-5.11V24.8z"></path>
	<path d="M124.85,13.07h1.06l-15.17,20.64h-1L124.85,13.07z"></path>
	<path d="M160.6,19.78l8.49,5.05v0.8l-8.49,5.11v-1.1l7.35-4.42l-7.35-4.39V19.78z"></path>
</g>
<path class="orange" d="M20.93,13.07c-1.75,0-3.17,1.42-3.17,3.17v9.49c0,1.75,1.42,3.17,3.17,3.17c1.75,0,3.17-1.42,3.17-3.17v-9.49  C24.1,14.49,22.68,13.07,20.93,13.07z"></path>
<g class="white">
	<path d="M72.29,13.07v17.66h-0.73v-2.78c-0.46,0.85-1.12,1.53-1.99,2.03c-0.87,0.5-1.76,0.75-2.67,0.75   c-1.51,0-2.79-0.54-3.84-1.61c-1.06-1.08-1.59-2.36-1.59-3.86c0-1.5,0.53-2.79,1.59-3.86c1.06-1.08,2.34-1.61,3.84-1.61   c0.94,0,1.85,0.26,2.73,0.77c0.87,0.51,1.52,1.19,1.93,2.04v-9.51H72.29z M62.2,25.27c0,1.31,0.46,2.44,1.37,3.39   c0.91,0.95,2.01,1.43,3.3,1.43c1.29,0,2.4-0.48,3.33-1.43c0.94-0.95,1.4-2.08,1.4-3.38c0-1.3-0.47-2.43-1.4-3.4   c-0.94-0.97-2.04-1.45-3.32-1.45c-1.28,0-2.38,0.48-3.3,1.44C62.66,22.83,62.2,23.96,62.2,25.27z"></path>
	<path d="M80.5,30.73H80.3c-1.45,0-2.7-0.55-3.78-1.66c-1.07-1.11-1.61-2.39-1.61-3.86c0-1.47,0.53-2.74,1.6-3.82   c1.06-1.08,2.38-1.61,3.95-1.61s2.91,0.63,4.04,1.9l-7.16,7.19c0.99,0.8,1.94,1.21,2.85,1.21c0.91,0,1.73-0.21,2.45-0.64   c0.72-0.43,1.32-0.99,1.86-1.79v1.18C83.35,30.13,82.04,30.73,80.5,30.73z M80.26,20.43c-1.21,0-2.28,0.48-3.22,1.43   c-0.94,0.95-1.4,2.05-1.4,3.28c0,1.24,0.4,2.32,1.21,3.25l6.64-6.71C82.55,20.85,81.47,20.43,80.26,20.43z"></path>
	<path d="M87.85,30.73h-0.73V19.78h0.73v2.37c0.78-1.58,2.1-2.37,3.97-2.37c1.28,0,2.35,0.45,3.22,1.35c0.87,0.9,1.3,1.99,1.3,3.27   v6.33h-0.73V24.4c0-1.07-0.37-2-1.11-2.78c-0.74-0.79-1.63-1.18-2.68-1.18c-1.05,0-1.97,0.39-2.77,1.18   c-0.8,0.79-1.2,1.72-1.2,2.78V30.73z"></path>
	<path d="M99.33,17.52c-0.44,0-0.66-0.21-0.66-0.63c0-0.42,0.22-0.63,0.66-0.63s0.66,0.21,0.66,0.63   C99.99,17.31,99.77,17.52,99.33,17.52z M99.7,19.79v10.95h-0.73V19.79H99.7z"></path>
	<path d="M107.91,30.73h-0.21c-1.45,0-2.7-0.55-3.78-1.66c-1.07-1.11-1.61-2.39-1.61-3.86c0-1.47,0.53-2.74,1.6-3.82   c1.06-1.08,2.38-1.61,3.95-1.61c1.57,0,2.91,0.63,4.04,1.9l-7.16,7.19c0.99,0.8,1.94,1.21,2.85,1.21s1.73-0.21,2.45-0.64   c0.72-0.43,1.32-0.99,1.86-1.78v1.18C110.76,30.13,109.45,30.73,107.91,30.73z M107.67,20.43c-1.21,0-2.28,0.48-3.22,1.43   c-0.94,0.95-1.4,2.05-1.4,3.28c0,1.24,0.4,2.32,1.21,3.25l6.64-6.71C109.96,20.85,108.88,20.43,107.67,20.43z"></path>
	<path d="M133.92,13.07v17.66h-0.73v-2.78c-0.46,0.85-1.12,1.53-1.99,2.03c-0.87,0.5-1.76,0.75-2.67,0.75   c-1.51,0-2.79-0.54-3.84-1.61c-1.06-1.08-1.59-2.36-1.59-3.86c0-1.5,0.53-2.79,1.59-3.86c1.06-1.08,2.34-1.61,3.84-1.61   c0.94,0,1.85,0.26,2.73,0.77c0.87,0.51,1.52,1.19,1.93,2.04v-9.51H133.92z M123.83,25.27c0,1.31,0.46,2.44,1.37,3.39   c0.91,0.95,2.01,1.43,3.3,1.43c1.29,0,2.4-0.48,3.33-1.43c0.94-0.95,1.4-2.08,1.4-3.38c0-1.3-0.47-2.43-1.4-3.4   c-0.94-0.97-2.04-1.45-3.32-1.45c-1.28,0-2.38,0.48-3.3,1.44C124.29,22.83,123.83,23.96,123.83,25.27z"></path>
	<path d="M142.13,30.73h-0.21c-1.45,0-2.7-0.55-3.78-1.66c-1.07-1.11-1.61-2.39-1.61-3.86c0-1.47,0.53-2.74,1.6-3.82   c1.06-1.08,2.38-1.61,3.95-1.61s2.91,0.63,4.04,1.9l-7.16,7.19c0.99,0.8,1.94,1.21,2.85,1.21c0.91,0,1.73-0.21,2.45-0.64   c0.72-0.43,1.32-0.99,1.86-1.78v1.18C144.98,30.13,143.67,30.73,142.13,30.73z M141.89,20.43c-1.21,0-2.28,0.48-3.22,1.43   c-0.94,0.95-1.4,2.05-1.4,3.28c0,1.24,0.4,2.32,1.21,3.25l6.64-6.71C144.18,20.85,143.1,20.43,141.89,20.43z"></path>
	<path d="M149.48,30.73h-0.73V19.78h0.73v2.37c0.78-1.58,2.1-2.37,3.97-2.37c1.28,0,2.35,0.45,3.22,1.35c0.87,0.9,1.3,1.99,1.3,3.27   v6.33h-0.73V24.4c0-1.07-0.37-2-1.11-2.78c-0.74-0.79-1.63-1.18-2.68-1.18c-1.05,0-1.97,0.39-2.77,1.18   c-0.8,0.79-1.2,1.72-1.2,2.78V30.73z"></path>
</g>
</svg>