<?xml version="1.0" encoding="utf-8"?>
<svg xmlns="http://www.w3.org/2000/svg" viewBox="0 0 503.9 283.5">
<style type="text/css">
	.st0{fill:#FFFFFF;}
	.st1{fill:#FF9200;}
	.st2{fill:#890052;}
</style>
<g>
	<rect x="0" y="0" class="st0" width="503.9" height="283.5"/>
	<g>
		<path class="st1" d="M61.2,133.1v2.3c0,0.6,0.5,1.2,1.1,1.2h6.1c0.6,0,1.1-0.5,1.1-1.2v-2.3L61.2,133.1L61.2,133.1z"/>
		<g>
			<path class="st2" d="M54.1,145.8c-2.7-1-5.7,0.3-6.8,3.1c-0.1,0.4-0.2,0.8-0.3,1.2c-0.1,0.4,0.3,0.7,0.7,0.7l0,0 c0.3,0,0.6-0.2,0.6-0.6c0.3-2,1.9-3.4,3.9-3.4s3.6,1.4,3.9,3.4c0.1,0.3,0.3,0.6,0.6,0.6l0,0c0.4,0,0.7-0.3,0.7-0.7 c-0.2-1.4-1-2.7-2.2-3.6c0.9-2,3.3-2.8,5.2-1.9c1.2,0.6,2.1,1.7,2.2,3c0.1,0.3,0.3,0.6,0.6,0.6l0,0c0.4,0,0.7-0.3,0.7-0.7 c-0.1-1-0.6-2-1.2-2.8v-5.8h-1.3v4.7c-2.5-1.4-5.7-0.6-7.2,2C54.2,145.6,54.1,145.7,54.1,145.8z"/>
			<path class="st2" d="M78.7,145.5c-0.7,0-1.2,0.1-1.9,0.3c-1.3-2.6-4.4-3.7-7.1-2.5c-0.1,0.1-0.2,0.1-0.3,0.2v-4.7h-1.3v5.8 c-0.7,0.8-1.1,1.7-1.2,2.8c-0.1,0.4,0.3,0.7,0.7,0.7l0,0c0.3,0,0.6-0.2,0.6-0.6c0.3-2,2-3.4,3.9-3.4c1.5,0,2.9,0.9,3.6,2.3 c-1.2,0.8-2,2.2-2.2,3.6c-0.1,0.4,0.3,0.7,0.7,0.7l0,0c0.3,0,0.6-0.2,0.6-0.6c0.3-2,1.9-3.4,3.9-3.4c2,0,3.6,1.4,3.9,3.4 c0.1,0.3,0.3,0.6,0.7,0.6l0,0c0.4,0,0.7-0.3,0.7-0.7C83.6,147.5,81.4,145.5,78.7,145.5z"/>
		</g>
		<g>
			<path class="st1" d="M73,131.6l3.5,1.7l3.8,7.5c0.1,0.3,0.3,0.4,0.7,0.4c0.3,0,0.6-0.2,0.7-0.6l3.9-19.3c0.1-0.3-0.1-0.6-0.3-0.8 l-7.5-5.1L73,131.6z"/>
			<path class="st1" d="M53.3,115.4l-7.5,5.1c-0.3,0.2-0.4,0.4-0.3,0.8l3.9,19.3c0.1,0.3,0.3,0.6,0.7,0.6c0.3,0,0.6-0.1,0.7-0.4 l3.8-7.5l3.5-1.7L53.3,115.4z"/>
		</g>
		<path class="st2" d="M70.8,133.5c0.8,0,1.4-0.4,1.8-1c9.7-15.4,5-38.2-6.8-47.1c-0.3-0.2-0.7-0.2-0.9,0 c-11.7,9.1-16.5,31.7-6.8,47.1c0.4,0.7,1.1,1,1.8,1H70.8L70.8,133.5z M65.4,111.3c-3.3,0-6-2.7-6-6c0-3.3,2.7-6,6-6 c3.3,0,6,2.7,6,6C71.4,108.6,68.7,111.3,65.4,111.3z"/>
	</g>
	<g>
		<path d="M124.5,115.5c0.3-0.2,0.6-0.4,0.8-0.8c0.3-0.4,0.4-0.9,0.4-1.3c0-0.7-0.3-1.3-0.8-1.8c-0.5-0.5-1.2-0.7-1.9-0.7h-0.6 l0,12.9h0.6c1.2,0,2.2-0.4,3.1-1.2c0.8-0.8,1.3-1.8,1.3-2.9c0-1.1-0.3-2-0.9-2.7C126,116.2,125.3,115.7,124.5,115.5z M123.1,115.3 v-3.9h0.1c0.5,0,0.9,0.2,1.3,0.6c0.4,0.4,0.6,0.8,0.6,1.3c0,0.5-0.2,1-0.6,1.4C124.1,115.1,123.7,115.3,123.1,115.3L123.1,115.3z M123.1,115.9L123.1,115.9c1.1,0,1.9,0.3,2.6,1.1c0.7,0.7,1,1.5,1,2.5c0,1-0.4,1.8-1.1,2.6c-0.7,0.7-1.5,1.1-2.5,1.1h-0.1V115.9z"/>
		<path d="M132.8,117.9c0.9-0.8,1.3-1.8,1.3-2.9c0-1.1-0.4-2.1-1.3-2.9c-0.8-0.8-1.8-1.2-3-1.2H129v12.9h0.7v-4l3.8,4h0.9l-4.4-4.6 C131,119.1,131.9,118.7,132.8,117.9z M133.4,115c0,1-0.3,1.8-1,2.5c-0.7,0.7-1.5,1-2.4,1h-0.2v-7h0.1c0.9,0,1.7,0.3,2.4,1.1 C133,113.2,133.4,114,133.4,115z"/>
		<path d="M135.2,123.7L135.2,123.7l0.6,0.1l2.4-4.9h6.8l2.4,4.9h0.7l-6.5-13.3L135.2,123.7z M138.5,118.3l3.1-6.3l3.1,6.3H138.5z"/>
		<polygon points="159.2,122.1 149.8,110.5 149.8,123.8 150.4,123.8 150.4,112.5 159.9,124.1 159.9,110.8 159.2,110.8"/>
		<path d="M162.9,110.8h-0.6v12.9h0.6c1.9,0,3.5-0.6,4.7-1.9c1.2-1.3,1.8-2.8,1.8-4.6s-0.6-3.3-1.8-4.6 C166.4,111.5,164.8,110.8,162.9,110.8z M168.6,117.3c0,1.6-0.5,3-1.6,4.1c-1.1,1.1-2.4,1.7-4,1.7H163v-11.6h0.1c1.6,0,3,0.6,4,1.7 C168.1,114.3,168.6,115.7,168.6,117.3z"/>
		<rect x="171.3" y="110.8" width="0.7" height="12.9"/>
		<polygon points="184,122.1 174.5,110.5 174.5,123.8 175.2,123.8 175.2,112.5 184.6,124.1 184.6,110.8 184,110.8"/>
		<path d="M193.3,111.2c1.2,0,2.4,0.4,3.4,1.1l0.1,0.1v-0.8l0,0c-1.1-0.6-2.3-1-3.5-1c-1.9,0-3.4,0.6-4.7,2c-1.3,1.3-2,2.9-2,4.7 c0,1.2,0.3,2.2,0.9,3.3c0.6,1.1,1.4,1.9,2.4,2.5c1.1,0.6,2.1,0.9,3.3,0.9h0.2c1.3,0,2.4-0.3,3.4-1l0,0v-4.7h-4.9v0.6h4.3v3.8 c-1,0.5-1.9,0.7-2.8,0.7c-1.7,0-3.1-0.6-4.3-1.8c-1.2-1.2-1.8-2.6-1.8-4.3c0-1.6,0.6-3.1,1.8-4.3 C190.2,111.8,191.6,111.2,193.3,111.2z"/>
	</g>
	<g>
		<path class="st1" d="M278,125.9H292V107H278c-2.7,0-4.8,2.2-4.8,4.8v9.2C273.1,123.8,275.3,125.9,278,125.9z"/>
		<path class="st1" d="M290.3,125.6l1.3,6.4h3.1c0.6,0,1-0.5,1-1v-5.6L290.3,125.6z"/>
		<path class="st2" d="M280.6,125.9l4,18.9c0.1,0.5,0.6,0.8,1,0.8h8.1c1.7,0,3.1-1.4,3.1-3.1c0-1.6-1.2-3-2.9-3.1l-3.1-13.8 L280.6,125.9z"/>
		<path class="st1" d="M295,125.9c5.5,2,11.6,5.6,15.6,9.8l3.3,3.5l-0.1-45.5l-3.3,3.5c-4.3,4.5-9.7,7.9-15.5,9.8L295,125.9 L295,125.9z"/>
		<path class="st2" d="M280.3,107v18.9H295V107H280.3L280.3,107z M285.6,120.6h-2.1v-4.1h2.1V120.6z M289.8,120.6h-2.1v-4.1h2.1 V120.6z"/>
		<rect x="327.7" y="100.5" transform="matrix(0.7071 -0.7071 0.7071 0.7071 25.7186 265.0784)" class="st2" width="10.3" height="2"/>
		<rect x="331.8" y="126.3" transform="matrix(0.7071 -0.7071 0.7071 0.7071 4.5471 273.7982)" class="st2" width="2" height="10.3"/>
		<rect x="331.5" y="115.4" class="st2" width="10.3" height="2"/>
		<path class="st1" d="M325.6,121.4l-6.1,1.1v-11.9l6.1,1c0.5,0.1,0.9,0.6,0.9,1v7.7C326.5,120.9,326.1,121.2,325.6,121.4z"/>
		<path class="st2" d="M317.1,142.4L317.1,142.4c-1.9,0-3.4-1.5-3.4-3.4V93.9c0-1.9,1.5-3.4,3.4-3.4l0,0c1.9,0,3.4,1.5,3.4,3.4V139 C320.5,140.9,319,142.4,317.1,142.4z"/>
		<path class="st2" d="M308.9,105.7l-1.2-1.7c-2.5,1.7-5.2,3.2-8,4.3l0.8,1.9C303.5,109,306.3,107.5,308.9,105.7z"/>
	</g>
	<g>
		<polygon points="370.3,122.6 364.6,110.8 363.7,110.8 363.7,123.8 364.4,123.8 364.4,111.9 370.3,124 370.3,124.1 376.3,111.9 376.3,123.8 377,123.8 377,110.8 376.1,110.8"/>
		<path d="M378.6,123.8h0.7l2.4-4.9h6.8l2.4,4.8l0,0h0.7l-6.5-13.3L378.6,123.8z M381.9,118.3l3.1-6.3l3.1,6.3H381.9z"/>
		<path d="M396.9,117.9c0.9-0.8,1.3-1.8,1.3-2.9c0-1.1-0.4-2.1-1.3-2.9c-0.8-0.8-1.8-1.2-3-1.2h-0.8l0,12.8l0,0.1h0.7v-4l3.8,3.9 l0,0h0.9l-4.4-4.6C395.1,119.1,396.1,118.7,396.9,117.9z M396.5,117.5c-0.7,0.7-1.5,1-2.4,1h-0.2v-7h0.1c0.9,0,1.7,0.3,2.4,1.1 c0.7,0.7,1.1,1.5,1.1,2.5C397.5,116,397.2,116.8,396.5,117.5z"/>
		<polygon points="407,110.8 406.1,110.8 400.8,115.4 400.8,110.8 400.1,110.8 400.1,123.7 400.8,123.7 400.8,116.7 407.5,123.7 407.6,123.7 408.5,123.7 401.1,116"/>
		<polygon points="409.9,123.8 414.6,123.8 414.6,123.1 410.6,123.1 410.6,118.9 414,118.9 414,118.3 410.6,118.3 410.6,111.5 414.6,111.5 414.6,110.8 409.9,110.8"/>
		<polygon points="415.3,111.5 418.2,111.5 418.2,123.8 418.9,123.8 418.9,111.5 421.8,111.5 421.8,110.8 415.3,110.8"/>
		<rect x="423.4" y="110.8" width="0.7" height="12.9"/>
		<polygon points="436,122.1 426.6,110.5 426.6,123.8 427.2,123.8 427.2,112.5 436.7,124.1 436.7,110.8 436,110.8"/>
		<path d="M445.3,111.2c1.2,0,2.4,0.4,3.4,1.1l0.1,0.1v-0.8l0,0c-1.1-0.6-2.3-1-3.5-1c-1.9,0-3.4,0.6-4.7,2c-1.3,1.3-2,2.9-2,4.7 c0,1.2,0.3,2.2,0.9,3.3c0.6,1.1,1.4,1.9,2.4,2.5c1.1,0.6,2.1,0.9,3.3,0.9h0.2c1.3,0,2.4-0.3,3.4-1l0,0v-4.7h-4.9v0.6h4.3v3.8 c-1,0.5-1.9,0.7-2.8,0.7c-1.7,0-3.1-0.6-4.3-1.8c-1.2-1.2-1.8-2.6-1.8-4.3c0-1.6,0.6-3.1,1.8-4.3 C442.2,111.8,443.6,111.2,445.3,111.2z"/>
	</g>
	<g>
		<path class="st2" d="M43.4,237.5h-1c0-9.9,6.1-21.3,23-21.3c16.5,0,22.3-10.5,22.3-20.3h1c0,10.3-6.1,21.3-23.3,21.3 C49.2,217.2,43.4,228.1,43.4,237.5z"/>
		<rect x="42.4" y="216.2" class="st2" width="45.8" height="1"/>
		<circle class="st1" cx="42.7" cy="216.6" r="3.3"/>
		<circle class="st1" cx="88.2" cy="216.6" r="3.3"/>
		<path class="st1" d="M68,219.9h-5.1c-0.4,0-0.7-0.3-0.7-0.7v-5.1c0-0.4,0.3-0.7,0.7-0.7H68c0.4,0,0.7,0.3,0.7,0.7v5.1 C68.7,219.6,68.4,219.9,68,219.9z"/>
		<path class="st1" d="M90.8,196.7h-5.1c-0.4,0-0.7-0.3-0.7-0.7v-5.1c0-0.4,0.3-0.7,0.7-0.7h5.1c0.4,0,0.7,0.3,0.7,0.7v5.1 C91.5,196.4,91.2,196.7,90.8,196.7z"/>
		<path class="st1" d="M45.2,243.1h-5.1c-0.4,0-0.7-0.3-0.7-0.7v-5.1c0-0.4,0.3-0.7,0.7-0.7h5.1c0.4,0,0.7,0.3,0.7,0.7v5.1 C45.9,242.8,45.6,243.1,45.2,243.1z"/>
		<path class="st2" d="M73.8,255.8h-17c-1.3,0-2.2-1-2.2-2.2l0,0c0-1.3,1-2.2,2.2-2.2h17c1.3,0,2.2,1,2.2,2.2l0,0 C76.1,254.8,75.1,255.8,73.8,255.8z"/>
		<path class="st2" d="M66.1,239.3v-11.4l9.8,15.5l-4.5,8h1.4l4.3-7.7v-0.1c0-0.1,0-0.1,0.1-0.1c0.1-0.1,0-0.1,0-0.1 c0-0.1,0-0.1,0-0.1c0-0.1,0-0.1-0.1-0.1V243L66,225.5l0,0c0,0,0-0.1-0.1-0.1l-0.1-0.1c0,0,0-0.1-0.1-0.1l0,0c0,0,0,0-0.1,0 c0,0-0.1,0-0.1-0.1h-0.1h-0.1c0,0,0,0-0.1,0c0,0,0,0-0.1,0s-0.1,0-0.1,0h-0.1c0,0-0.1,0-0.1,0.1c0,0,0,0-0.1,0l0,0 c0,0,0,0.1-0.1,0.1l-0.1,0.1c0,0,0,0-0.1,0.1l0,0L53.6,243v0.1c0,0.1,0,0.1-0.1,0.1c0,0.1,0,0.1,0,0.1c0,0.1,0,0.1,0,0.1 c0,0.1,0,0.1,0.1,0.1v0.1l4.3,7.7h1.4l-4.5-8l9.8-15.5v11.4L66.1,239.3L66.1,239.3z"/>
		<circle class="st1" cx="65.4" cy="241.9" r="3.4"/>
	</g>
	<g>
		<path d="M123.1,216.5h-0.6v12.9h0.6c1.9,0,3.5-0.6,4.7-1.9c1.2-1.3,1.8-2.8,1.8-4.6c0-1.7-0.6-3.3-1.8-4.6 C126.6,217.2,125,216.5,123.1,216.5z M128.8,223c0,1.6-0.5,3-1.6,4.1c-1.1,1.1-2.4,1.7-4,1.7h-0.1v-11.6h0.1c1.6,0,3,0.6,4,1.7 C128.3,220,128.8,221.4,128.8,223z"/>
		<polygon points="131.4,229.5 136.2,229.5 136.2,228.9 132.1,228.9 132.1,224.6 135.5,224.6 135.5,224 132.1,224 132.1,217.2 136.2,217.2 136.2,216.5 131.4,216.5"/>
		<path d="M143.2,223.2c-0.4-0.3-0.8-0.6-1.2-0.9c-0.5-0.3-0.9-0.6-1.3-0.8c-0.4-0.2-0.8-0.5-1.1-0.7c-0.8-0.6-1.2-1.2-1.2-1.9v-0.1 c0-0.6,0.2-1,0.6-1.4c0.4-0.3,0.9-0.5,1.4-0.5c0.5,0,1,0.1,1.5,0.4l0,0c0.5,0.3,0.8,0.7,1.1,1.1l0.1,0.2v-1.1l0,0 c-0.6-0.8-1.5-1.2-2.5-1.2c-0.8,0-1.4,0.2-1.9,0.6c-0.5,0.4-0.8,1.1-0.8,1.9v0.1c0,0.5,0.2,1,0.5,1.5c0.3,0.4,0.6,0.8,1.1,1.1 c0.2,0.1,0.4,0.3,0.6,0.4c0.3,0.2,0.5,0.3,0.8,0.5c0.3,0.2,0.5,0.3,0.7,0.5c0.3,0.2,0.5,0.3,0.7,0.5c0.4,0.3,0.8,0.7,1.1,1.1 c0.3,0.5,0.4,1,0.4,1.5v0.1c0,0.9-0.3,1.6-0.9,2.1c-0.6,0.5-1.3,0.8-2.2,0.8c-0.8,0-1.5-0.2-2.1-0.6c-0.6-0.4-1-0.9-1.3-1.5 l-0.1-0.3v1.3l0,0c0.8,1.2,1.9,1.8,3.4,1.8c1.1,0,2-0.3,2.8-1c0.7-0.6,1.1-1.5,1.1-2.6v-0.2c0-0.5-0.1-1-0.3-1.5 C143.8,223.9,143.5,223.5,143.2,223.2z"/>
		<rect x="146.3" y="216.5" width="0.7" height="12.9"/>
		<path d="M155.7,216.3c-1.9,0-3.4,0.6-4.7,2c-1.3,1.3-2,2.9-2,4.7c0,1.2,0.3,2.2,0.9,3.3c0.6,1.1,1.4,1.9,2.4,2.5 c1.1,0.6,2.1,0.9,3.3,0.9h0.2c1.3,0,2.4-0.3,3.4-1l0,0V224h-4.9v0.6h4.3v3.8c-1,0.5-1.9,0.7-2.8,0.7c-1.7,0-3.1-0.6-4.3-1.8 c-1.2-1.2-1.8-2.6-1.8-4.3c0-1.6,0.6-3.1,1.8-4.3c1.2-1.2,2.6-1.8,4.3-1.8c1.2,0,2.4,0.4,3.4,1.1l0.1,0.1v-0.8l0,0 C158.1,216.6,157,216.3,155.7,216.3z"/>
		<polygon points="170.7,216.5 170.7,227.8 161.3,216.2 161.3,229.5 162,229.5 162,218.2 171.4,229.8 171.4,216.5"/>
	</g>
	<g>
		<path class="st2" d="M339,196.7h-63.2c-2,0-3.3,1.2-3.3,3.3v45.5c0,2,1.7,3.8,3.8,3.8h62.2c2,0,3.8-1.7,3.8-3.8V200 C342.3,198,341.1,196.7,339,196.7z M293.3,199.1h25.1c0.6,0,1,0.4,1,1c0,0.6-0.4,1-1,1h-25.1c-0.6,0-1-0.4-1-1 C292.3,199.5,292.7,199.1,293.3,199.1z M284,199.1c0.6,0,1,0.4,1,1c0,0.6-0.4,1-1,1c-0.6,0-1-0.4-1-1 C283,199.5,283.4,199.1,284,199.1z M280.6,199.1c0.6,0,1,0.4,1,1c0,0.6-0.4,1-1,1s-1-0.4-1-1 C279.6,199.5,280.1,199.1,280.6,199.1z M277.3,199.1c0.6,0,1,0.4,1,1c0,0.6-0.4,1-1,1c-0.6,0-1-0.4-1-1 C276.4,199.5,276.8,199.1,277.3,199.1z M340.4,245.5c0,1-0.9,1.8-1.9,1.8h-62.2c-1,0-1.8-0.8-1.8-1.8v-42.1h65.8V245.5z"/>
		<path class="st1" d="M313.6,218.5L313.6,218.5c-0.3,0.3-0.3,0.7,0,0.9l5.8,5.9l-5.9,5.9c-0.3,0.3-0.3,0.7,0,0.9l0,0 c0.3,0.3,0.7,0.3,0.9,0l6.4-6.4c0.3-0.3,0.3-0.7,0-0.9l0,0l-6.3-6.4C314.4,218.3,313.9,218.3,313.6,218.5z"/>
		<path class="st1" d="M301.4,218.6c-0.3-0.3-0.7-0.3-1,0l-6.3,6.3c-0.3,0.3-0.3,0.7,0,0.9l0,0l6.4,6.4c0.3,0.3,0.7,0.3,0.9,0l0,0 c0.3-0.3,0.3-0.7,0-0.9l-5.9-5.9l5.8-5.8C301.7,219.3,301.7,218.8,301.4,218.6L301.4,218.6z"/>
		<path class="st1" d="M303,238.1l7.8-25.9c0.1-0.4,0.5-0.6,0.8-0.5l0,0c0.4,0.1,0.6,0.5,0.5,0.8l-7.8,25.9 c-0.1,0.4-0.5,0.6-0.8,0.5l0,0C303,238.9,302.8,238.5,303,238.1z"/>
	</g>
	<g>
		<path d="M364.3,216.5h-0.6v12.9h0.6c1.9,0,3.5-0.6,4.7-1.9c1.2-1.3,1.8-2.8,1.8-4.6c0-1.8-0.6-3.3-1.8-4.6 C367.8,217.1,366.3,216.5,364.3,216.5z M370.1,222.9c0,1.6-0.5,3-1.6,4.1c-1.1,1.1-2.4,1.7-4,1.7h-0.1v-11.6h0.1 c1.6,0,3,0.6,4,1.7C369.6,220,370.1,221.3,370.1,222.9z"/>
		<polygon points="372.7,229.4 377.4,229.4 377.4,228.8 373.4,228.8 373.4,224.6 376.8,224.6 376.8,224 373.4,224 373.4,217.1 377.4,217.1 377.4,216.5 372.7,216.5"/>
		<polygon points="384.5,228.3 378.8,216.5 378.8,216.5 378,216.5 384.5,229.8 390.9,216.6 390.9,216.5 390.2,216.5"/>
		<polygon points="392.4,229.4 397.1,229.4 397.1,228.8 393.1,228.8 393.1,224.6 396.4,224.6 396.4,224 393.1,224 393.1,217.1 397.1,217.1 397.1,216.5 392.4,216.5"/>
		<polygon points="399.4,216.5 398.7,216.5 398.7,229.4 403.3,229.4 403.3,228.8 399.4,228.8"/>
		<path d="M409.2,216.3c-1.8,0-3.4,0.7-4.7,2c-1.3,1.3-2,2.9-2,4.7c0,1.8,0.7,3.4,2,4.7l0,0c1.3,1.3,2.9,2,4.6,2h0.3 c1.8,0,3.3-0.7,4.6-2c1.3-1.3,1.9-2.9,1.9-4.7c0-1.8-0.7-3.4-2-4.7C412.6,216.9,411,216.3,409.2,216.3z M415.2,222.9 c0,1.6-0.6,3.1-1.8,4.3c-1.2,1.2-2.6,1.8-4.3,1.8c-1.7,0-3.1-0.6-4.3-1.8c-1.2-1.2-1.8-2.6-1.8-4.3c0-1.6,0.6-3.1,1.8-4.3 c1.2-1.2,2.6-1.8,4.3-1.8c1.7,0,3.1,0.6,4.3,1.8C414.6,219.9,415.2,221.3,415.2,222.9z"/>
		<path d="M418.4,216.5h-0.6v12.9h0.7v-4.6h0.1c1,0,2-0.4,2.9-1.2c0.9-0.8,1.3-1.8,1.3-2.9c0-1.1-0.4-2.1-1.3-2.9 C420.6,216.9,419.6,216.5,418.4,216.5z M422,220.7c0,0.9-0.4,1.8-1.1,2.5c-0.7,0.7-1.5,1-2.4,1h-0.1v-7h0.1c0.9,0,1.7,0.3,2.4,1.1 C421.7,218.9,422,219.7,422,220.7z"/>
		<polygon points="431.1,228.2 425.4,216.5 424.4,216.5 424.4,229.4 425.1,229.4 425.1,217.5 431,229.6 431,229.8 437,217.5 437,229.4 437.7,229.4 437.7,216.5 436.8,216.5"/>
		<polygon points="440.1,229.4 444.8,229.4 444.8,228.8 440.8,228.8 440.8,224.6 444.2,224.6 444.2,224 440.8,224 440.8,217.1 444.8,217.1 444.8,216.5 440.1,216.5"/>
		<polygon points="455.8,227.8 446.5,216.3 446.4,216.2 446.4,229.4 447,229.4 447,218.2 456.4,229.6 456.5,229.7 456.5,216.5 455.8,216.5"/>
		<polygon points="458,216.5 458,217.1 460.9,217.1 460.9,229.4 461.6,229.4 461.6,217.1 464.5,217.1 464.5,216.5"/>
	</g>
	<g>
		<path class="st2" d="M221.4,26.2c2.4,0.2,4,0.4,8,1.7l4,17.6l-12,11.9v-1.5l10.8-10.8l-3.7-16.4c-3.2-1-4.5-1.3-6.1-1.4l-3,30.1 l-11.9-11.9l4-17.6c3.9-1.2,5.4-1.5,8-1.7v1.1c-2.4,0.2-3.4,0.3-7.1,1.4l-3.7,16.4l9.9,9.9L221.4,26.2z"/>
		<path class="st1" d="M220.4,34.4c-1.1,0-2.1,0.9-2.1,2.1v6.2c0,1.1,0.9,2.1,2.1,2.1c1.1,0,2.1-0.9,2.1-2.1v-6.2 C222.4,35.3,221.5,34.4,220.4,34.4z"/>
		<g>
			<polygon class="st2" points="240.7,43.1 244.1,45.2 244.1,44.4 241.6,42.9 244.1,41.4 244.1,40.7 240.7,42.7"/>
			<polygon class="st2" points="293.1,40.7 293.1,41.4 295.7,42.9 293.1,44.5 293.1,45.2 296.5,43.2 296.5,42.7"/>
			<path d="M249.6,41.3c-0.2-0.2-0.3-0.3-0.6-0.4c-0.4-0.3-0.8-0.4-1.2-0.4c-0.7,0-1.2,0.3-1.7,0.7c-0.5,0.5-0.7,1-0.7,1.7 c0,0.7,0.2,1.2,0.7,1.7c0.5,0.5,1.1,0.8,1.7,0.8c0.4,0,0.7-0.1,1.2-0.4c0.2-0.1,0.4-0.3,0.6-0.4v0.7h0.7v-7.5h-0.7V41.3z M246.6,44.2c-0.3-0.4-0.5-0.8-0.5-1.3s0.2-0.9,0.5-1.3c0.4-0.4,0.8-0.6,1.2-0.6s0.9,0.2,1.3,0.6c0.4,0.4,0.5,0.8,0.5,1.3 c0,0.5-0.2,0.9-0.5,1.3c-0.4,0.4-0.8,0.6-1.3,0.6C247.4,44.8,247,44.6,246.6,44.2z"/>
			<path d="M254.9,44.5c-0.6,0.3-1.3,0.3-1.9-0.1l2.9-2.9c-1.4-2-4.4-0.9-4.4,1.4c0.1,2.4,2.9,3.4,4.4,1.5v-1 C255.6,43.9,255.4,44.3,254.9,44.5z M255,41.5l-2.5,2.4C251.3,42.4,253.5,40.3,255,41.5z"/>
			<path d="M268.5,44.5c-0.6,0.3-1.3,0.3-1.9-0.1l2.9-2.9c-1.4-2-4.4-0.9-4.4,1.4c0.1,2.4,2.9,3.4,4.4,1.5v-1 C269.2,43.9,268.9,44.3,268.5,44.5z M268.6,41.5l-2.5,2.4C264.9,42.4,267.1,40.3,268.6,41.5z"/>
			<path d="M285.3,44.5c-0.6,0.3-1.3,0.3-1.9-0.1l2.9-2.9c-1.4-2-4.4-0.9-4.4,1.4c0.1,2.4,2.9,3.4,4.4,1.5v-1 C286,43.9,285.7,44.3,285.3,44.5z M285.4,41.5l-2.5,2.4C281.7,42.4,283.9,40.3,285.4,41.5z"/>
			<path d="M259.4,40.5c-0.6,0-1.1,0.2-1.5,0.6v-0.5h-0.7v4.7h0.7v-2.8c0-0.4,0.2-0.7,0.4-1c0.3-0.3,0.6-0.4,1-0.4 c0.4,0,0.7,0.1,1,0.4c0.3,0.3,0.4,0.6,0.4,1v2.8h0.7v-2.8c0-0.6-0.2-1-0.6-1.4C260.5,40.7,260,40.5,259.4,40.5z"/>
			<path d="M289.8,40.5c-0.6,0-1.1,0.2-1.5,0.6v-0.5h-0.7v4.7h0.7v-2.8c0-0.4,0.2-0.7,0.4-1c0.3-0.3,0.6-0.4,1-0.4 c0.4,0,0.7,0.1,1,0.4c0.3,0.3,0.4,0.6,0.4,1v2.8h0.7v-2.8c0-0.6-0.2-1-0.6-1.4C290.8,40.7,290.4,40.5,289.8,40.5z"/>
			<ellipse cx="263.3" cy="39.5" rx="0.4" ry="0.4"/>
			<rect x="263" y="40.6" width="0.7" height="4.7"/>
			<polygon class="st2" points="275.7,37.9 270.2,45.3 270.9,45.3 276.5,37.9"/>
			<path d="M280,41.3c-0.2-0.2-0.3-0.3-0.6-0.4c-0.4-0.3-0.8-0.4-1.2-0.4c-0.7,0-1.2,0.3-1.7,0.7c-0.5,0.5-0.7,1-0.7,1.7 c0,0.7,0.2,1.2,0.7,1.7c0.5,0.5,1.1,0.8,1.7,0.8c0.4,0,0.7-0.1,1.2-0.4c0.2-0.1,0.4-0.3,0.6-0.4v0.7h0.7v-7.5H280V41.3z M277,44.2c-0.3-0.4-0.5-0.8-0.5-1.3s0.2-0.9,0.5-1.3c0.4-0.4,0.8-0.6,1.2-0.6c0.4,0,0.9,0.2,1.3,0.6c0.4,0.4,0.5,0.8,0.5,1.3 c0,0.5-0.2,0.9-0.5,1.3c-0.4,0.4-0.8,0.6-1.3,0.6C277.8,44.8,277.3,44.6,277,44.2z"/>
		</g>
	</g>
</g>
</svg>