<?xml version="1.0" encoding="utf-8"?>
<!-- Generator: Adobe Illustrator 24.1.1, SVG Export Plug-In . SVG Version: 6.00 Build 0)  -->
<svg version="1.1" id="Livello_1" xmlns="http://www.w3.org/2000/svg" xmlns:xlink="http://www.w3.org/1999/xlink" x="0px" y="0px"
	 viewBox="0 0 1920 1080" style="enable-background:new 0 0 1920 1080;" xml:space="preserve">
<style type="text/css">
	.st0{fill:#FFFFFF;}
	.st1{fill:#FF9200;}
	.st2{fill:#890052;}
	.st3{enable-background:new    ;}
	.st4{fill:none;stroke:#000000;stroke-width:0.5;stroke-miterlimit:10;}
</style>
<rect class="st0" width="1920" height="1080"/>
<g>
	<path class="st1" d="M233.3,507.3v8.9c0,2.3,1.9,4.5,4.3,4.5H261c2.3,0,4.3-1.9,4.3-4.5v-8.9L233.3,507.3L233.3,507.3z"/>
	<g>
		<path class="st2" d="M206.1,555.5c-10.4-4-21.9,1.3-26,11.9c-0.4,1.5-0.9,3-1.1,4.5c-0.2,1.5,1.1,2.8,2.6,2.8l0,0
			c1.3,0,2.3-0.9,2.3-2.1c1.1-7.5,7.2-13,14.9-13s13.8,5.5,14.9,13c0.2,1.3,1.3,2.1,2.3,2.1l0,0c1.5,0,2.8-1.3,2.6-2.8
			c-0.9-5.5-3.8-10.4-8.5-13.8c3.4-7.5,12.6-10.6,20-7.2c4.5,2.1,7.9,6.4,8.5,11.5c0.2,1.3,1.3,2.1,2.3,2.1l0,0
			c1.5,0,2.8-1.3,2.6-2.8c-0.4-3.8-2.1-7.5-4.7-10.6V529h-4.9v17.9c-9.6-5.5-21.9-2.1-27.5,7.5C206.5,554.8,206.3,555.2,206.1,555.5
			z"/>
		<path class="st2" d="M300,554.2c-2.6,0-4.7,0.4-7.2,1.3c-4.9-9.8-16.8-14.1-27-9.4c-0.4,0.2-0.6,0.4-1.3,0.6v-17.9h-4.9V551
			c-2.6,3-4.3,6.6-4.7,10.6c-0.2,1.5,1.1,2.8,2.6,2.8l0,0c1.3,0,2.3-0.9,2.3-2.1c1.1-7.5,7.5-13,14.9-13c5.7,0,11.1,3.4,13.6,8.7
			c-4.7,3.2-7.7,8.3-8.5,13.8c-0.2,1.5,1.1,2.8,2.6,2.8l0,0c1.3,0,2.3-0.9,2.3-2.1c1.1-7.5,7.2-13,14.9-13c7.7,0,13.8,5.5,14.9,13
			c0.2,1.3,1.3,2.1,2.6,2.1l0,0c1.5,0,2.8-1.3,2.6-2.8C318.5,561.8,310.2,554.2,300,554.2z"/>
	</g>
	<g>
		<path class="st1" d="M278.3,501.4l13.2,6.4l14.3,28.5c0.4,1.1,1.3,1.5,2.6,1.5s2.3-0.9,2.6-2.1l14.7-73.5c0.2-1.3-0.2-2.1-1.3-3
			l-28.7-19.4L278.3,501.4z"/>
		<path class="st1" d="M202.9,439.8l-28.7,19.4c-1.1,0.9-1.5,1.7-1.3,3l14.7,73.5c0.2,1.3,1.3,2.1,2.6,2.1s2.1-0.4,2.6-1.5
			l14.3-28.5l13.2-6.4L202.9,439.8z"/>
	</g>
	<path class="st2" d="M269.7,508.6c3,0,5.5-1.5,7-4c36.8-58.6,19-145.4-25.8-179.3c-1.1-0.9-2.6-0.9-3.6,0
		c-44.7,34.5-62.8,120.7-25.8,179.3c1.5,2.6,4.3,4,7,4L269.7,508.6L269.7,508.6z M249.3,424.1c-12.6,0-22.8-10.2-22.8-22.8
		s10.2-22.8,22.8-22.8c12.6,0,22.8,10.2,22.8,22.8C272.1,413.8,261.9,424.1,249.3,424.1z"/>
</g>
<g class="st3">
	<path d="M466.8,422.5h2.1c2.8,0,5.2,0.9,7.1,2.6c1.9,1.8,2.9,4,2.9,6.7c0,1.6-0.5,3.3-1.6,5s-2.3,2.8-3.7,3.3
		c3.3,0.8,6.1,2.6,8.3,5.3c2.2,2.7,3.3,6.2,3.3,10.3c0,4.1-1.6,7.7-4.7,10.8c-3.2,3.1-7,4.6-11.5,4.6h-2.1L466.8,422.5L466.8,422.5z
		 M468.9,424.4v15.3h0.5c1.9,0,3.7-0.8,5.2-2.4s2.2-3.4,2.2-5.5s-0.7-3.8-2.2-5.3s-3.2-2.2-5.2-2.2h-0.5V424.4z M468.9,441.5v28h0.5
		c3.7,0,6.9-1.4,9.7-4.2c2.7-2.8,4.1-6.1,4.1-9.9s-1.3-7.1-4-9.8c-2.7-2.8-5.9-4.1-9.7-4.1H468.9z"/>
	<path d="M491.9,422.5h2.8c4.2,0,7.9,1.5,11.1,4.6c3.2,3.1,4.8,6.7,4.8,10.9c0,4.2-1.6,7.8-4.9,10.9c-3.3,3.1-6.7,4.6-10.5,4.6h-0.5
		l16.8,17.7h-2.8l-14.8-15.5v15.5h-2.1v-48.7H491.9z M494,451.7h1.2c3.5,0,6.6-1.3,9.3-4s4-5.9,4-9.6s-1.4-6.9-4.2-9.6
		s-5.9-4.1-9.5-4.1H494V451.7z"/>
	<path d="M539.8,421.4l24.4,49.9h-2.3l-9.2-18.6h-26.1l-9.1,18.6h-2L539.8,421.4z M539.6,425.9l-12.2,25h24.4L539.6,425.9z"/>
	<path d="M606.9,422.5h1.9V472l-35.9-44.1v43.4H571v-49.5l35.9,44.1V422.5z"/>
	<path d="M618.5,422.5h2.1c7.3,0,13.2,2.4,17.6,7.2c4.5,4.8,6.7,10.5,6.7,17.2s-2.2,12.4-6.7,17.2c-4.4,4.8-10.3,7.2-17.6,7.2h-2.1
		V422.5z M621.1,424.5h-0.5v44.8h0.5c6.3,0,11.5-2.2,15.6-6.6s6.1-9.6,6.1-15.8c0-6.1-2-11.4-6.1-15.8S627.4,424.5,621.1,424.5z"/>
	<path d="M653,422.5h2.1v48.8H653V422.5z"/>
	<path d="M701.1,422.5h1.9V472l-35.9-44.1v43.4h-1.9v-49.5l35.9,44.1V422.5z"/>
	<path d="M731.1,452.7v-1.9h18.3v17.6c-3.8,2.4-8.1,3.6-12.9,3.6h-0.7c-4.5,0-8.6-1.2-12.5-3.5s-6.9-5.4-9.1-9.3
		c-2.2-3.9-3.3-8-3.3-12.4c0-6.9,2.5-12.8,7.5-17.8s10.9-7.4,17.9-7.4c4.6,0,9,1.2,13.2,3.6v2.4c-4.1-2.8-8.5-4.2-13.2-4.2
		c-6.4,0-11.8,2.3-16.4,6.9c-4.5,4.6-6.8,10.1-6.8,16.4s2.3,11.9,6.8,16.5s10,6.9,16.4,6.9c3.6,0,7.2-0.9,11.1-2.7v-14.7H731.1z"/>
</g>
<g class="st3">
	<path class="st4" d="M466.8,422.5h2.1c2.8,0,5.2,0.9,7.1,2.6c1.9,1.8,2.9,4,2.9,6.7c0,1.6-0.5,3.3-1.6,5s-2.3,2.8-3.7,3.3
		c3.3,0.8,6.1,2.6,8.3,5.3c2.2,2.7,3.3,6.2,3.3,10.3c0,4.1-1.6,7.7-4.7,10.8c-3.2,3.1-7,4.6-11.5,4.6h-2.1L466.8,422.5L466.8,422.5z
		 M468.9,424.4v15.3h0.5c1.9,0,3.7-0.8,5.2-2.4s2.2-3.4,2.2-5.5s-0.7-3.8-2.2-5.3s-3.2-2.2-5.2-2.2h-0.5V424.4z M468.9,441.5v28h0.5
		c3.7,0,6.9-1.4,9.7-4.2c2.7-2.8,4.1-6.1,4.1-9.9s-1.3-7.1-4-9.8c-2.7-2.8-5.9-4.1-9.7-4.1H468.9z"/>
	<path class="st4" d="M491.9,422.5h2.8c4.2,0,7.9,1.5,11.1,4.6c3.2,3.1,4.8,6.7,4.8,10.9c0,4.2-1.6,7.8-4.9,10.9
		c-3.3,3.1-6.7,4.6-10.5,4.6h-0.5l16.8,17.7h-2.8l-14.8-15.5v15.5h-2.1v-48.7H491.9z M494,451.7h1.2c3.5,0,6.6-1.3,9.3-4
		s4-5.9,4-9.6s-1.4-6.9-4.2-9.6s-5.9-4.1-9.5-4.1H494V451.7z"/>
	<path class="st4" d="M539.8,421.4l24.4,49.9h-2.3l-9.2-18.6h-26.1l-9.1,18.6h-2L539.8,421.4z M539.6,425.9l-12.2,25h24.4
		L539.6,425.9z"/>
	<path class="st4" d="M606.9,422.5h1.9V472l-35.9-44.1v43.4H571v-49.5l35.9,44.1V422.5z"/>
	<path class="st4" d="M618.5,422.5h2.1c7.3,0,13.2,2.4,17.6,7.2c4.5,4.8,6.7,10.5,6.7,17.2s-2.2,12.4-6.7,17.2
		c-4.4,4.8-10.3,7.2-17.6,7.2h-2.1V422.5z M621.1,424.5h-0.5v44.8h0.5c6.3,0,11.5-2.2,15.6-6.6s6.1-9.6,6.1-15.8
		c0-6.1-2-11.4-6.1-15.8S627.4,424.5,621.1,424.5z"/>
	<path class="st4" d="M653,422.5h2.1v48.8H653V422.5z"/>
	<path class="st4" d="M701.1,422.5h1.9V472l-35.9-44.1v43.4h-1.9v-49.5l35.9,44.1V422.5z"/>
	<path class="st4" d="M731.1,452.7v-1.9h18.3v17.6c-3.8,2.4-8.1,3.6-12.9,3.6h-0.7c-4.5,0-8.6-1.2-12.5-3.5s-6.9-5.4-9.1-9.3
		c-2.2-3.9-3.3-8-3.3-12.4c0-6.9,2.5-12.8,7.5-17.8s10.9-7.4,17.9-7.4c4.6,0,9,1.2,13.2,3.6v2.4c-4.1-2.8-8.5-4.2-13.2-4.2
		c-6.4,0-11.8,2.3-16.4,6.9c-4.5,4.6-6.8,10.1-6.8,16.4s2.3,11.9,6.8,16.5s10,6.9,16.4,6.9c3.6,0,7.2-0.9,11.1-2.7v-14.7H731.1z"/>
</g>
<g>
	<path class="st1" d="M1059,479.6h53.6v-72H1059c-10.1,0-18.4,8.3-18.4,18.4v35.2C1040.6,471.6,1048.9,479.6,1059,479.6z"/>
	<path class="st1" d="M1106.2,478.6l5,24.5h11.8c2.1,0,4-1.9,4-4v-21.2L1106.2,478.6z"/>
	<path class="st2" d="M1069.2,479.6l15.1,72c0.5,1.9,2.1,3.1,3.8,3.1h30.9c6.6,0,11.8-5.2,11.8-11.8c0-6.1-4.7-11.6-11.1-11.8
		l-11.8-52.6L1069.2,479.6z"/>
	<path class="st1" d="M1123.9,479.6c20.8,7.8,44.1,21.5,59.5,37.5l12.7,13.2l-0.2-173.4l-12.7,13.2c-16.5,17.2-36.8,30-59.2,37.5v72
		H1123.9z"/>
	<path class="st2" d="M1068,407.6v72h55.9v-72H1068L1068,407.6z M1088.3,459.5h-8v-15.8h8V459.5z M1104.1,459.5h-8v-15.8h8V459.5z"
		/>
	
		<rect x="1248.5" y="382.8" transform="matrix(0.7071 -0.7071 0.7071 0.7071 97.9854 1009.9056)" class="st2" width="39.2" height="7.8"/>
	
		<rect x="1264" y="481.1" transform="matrix(0.7071 -0.7071 0.7071 0.7071 17.281 1043.1791)" class="st2" width="7.8" height="39.2"/>
	<rect x="1262.9" y="439.7" class="st2" width="39.2" height="7.8"/>
	<path class="st1" d="M1240.5,462.4l-23.4,4.2v-45.5l23.4,4c1.9,0.2,3.3,2.1,3.3,4v29.3C1243.8,460.5,1242.4,461.9,1240.5,462.4z"/>
	<path class="st2" d="M1208.2,542.6L1208.2,542.6c-7.1,0-13-5.7-13-13v-172c0-7.1,5.7-13,13-13l0,0c7.1,0,13,5.7,13,13v172
		C1221.1,536.9,1215.5,542.6,1208.2,542.6z"/>
	<path class="st2" d="M1177,402.7l-4.5-6.6c-9.4,6.6-19.8,12.3-30.4,16.5l3.1,7.3C1156.2,415.4,1166.9,409.7,1177,402.7z"/>
</g>
<g class="st3">
	<path d="M1436,422.5v48.8h-2.1v-46.2l-23,47.1l-22.9-47.1v46.2h-2v-48.8h3.1l21.9,45l22-45H1436z"/>
	<path d="M1467.1,421.4l24.4,49.9h-2.3l-9.2-18.6h-26.1l-9.1,18.6h-2L1467.1,421.4z M1466.9,425.9l-12.2,25h24.4L1466.9,425.9z"/>
	<path d="M1498.3,422.5h2.8c4.2,0,7.9,1.5,11.1,4.6s4.8,6.7,4.8,10.9c0,4.2-1.6,7.8-4.9,10.9s-6.7,4.6-10.5,4.6h-0.5l16.8,17.7h-2.8
		l-14.8-15.5v15.5h-2.1L1498.3,422.5L1498.3,422.5z M1500.4,451.7h1.2c3.5,0,6.6-1.3,9.3-4c2.7-2.7,4-5.9,4-9.6s-1.4-6.9-4.2-9.6
		c-2.8-2.7-5.9-4.1-9.5-4.1h-0.8V451.7z"/>
	<path d="M1524.8,422.5h2.1v17.9l20.6-17.9h2.6l-22.3,19.4l28,29.3h-2.9l-26-27.1v27.1h-2.1L1524.8,422.5L1524.8,422.5z"/>
	<path d="M1562,422.5h17.5v1.9h-15.3v26.5h12.8v1.9h-12.8v16.6h15.3v1.9H1562V422.5z"/>
	<path d="M1606.9,422.5v1.9h-11.1v46.9h-2.1v-46.9h-11.2v-1.9H1606.9z"/>
	<path d="M1613.4,422.5h2.1v48.8h-2.1V422.5z"/>
	<path d="M1661.5,422.5h1.9V472l-35.9-44.1v43.4h-1.9v-49.5l35.9,44.1V422.5z"/>
	<path d="M1691.4,452.7v-1.9h18.3v17.6c-3.8,2.4-8.1,3.6-12.9,3.6h-0.7c-4.5,0-8.6-1.2-12.5-3.5s-6.9-5.4-9.1-9.3s-3.3-8-3.3-12.4
		c0-6.9,2.5-12.8,7.5-17.8s10.9-7.4,17.9-7.4c4.6,0,9,1.2,13.2,3.6v2.4c-4.1-2.8-8.5-4.2-13.2-4.2c-6.4,0-11.8,2.3-16.4,6.9
		c-4.5,4.6-6.8,10.1-6.8,16.4s2.3,11.9,6.8,16.5s10,6.9,16.4,6.9c3.6,0,7.2-0.9,11-2.7v-14.7H1691.4z"/>
</g>
<g class="st3">
	<path class="st4" d="M1436,422.5v48.8h-2.1v-46.2l-23,47.1l-22.9-47.1v46.2h-2v-48.8h3.1l21.9,45l22-45H1436z"/>
	<path class="st4" d="M1467.1,421.4l24.4,49.9h-2.3l-9.2-18.6h-26.1l-9.1,18.6h-2L1467.1,421.4z M1466.9,425.9l-12.2,25h24.4
		L1466.9,425.9z"/>
	<path class="st4" d="M1498.3,422.5h2.8c4.2,0,7.9,1.5,11.1,4.6s4.8,6.7,4.8,10.9c0,4.2-1.6,7.8-4.9,10.9s-6.7,4.6-10.5,4.6h-0.5
		l16.8,17.7h-2.8l-14.8-15.5v15.5h-2.1L1498.3,422.5L1498.3,422.5z M1500.4,451.7h1.2c3.5,0,6.6-1.3,9.3-4c2.7-2.7,4-5.9,4-9.6
		s-1.4-6.9-4.2-9.6c-2.8-2.7-5.9-4.1-9.5-4.1h-0.8V451.7z"/>
	<path class="st4" d="M1524.8,422.5h2.1v17.9l20.6-17.9h2.6l-22.3,19.4l28,29.3h-2.9l-26-27.1v27.1h-2.1L1524.8,422.5L1524.8,422.5z
		"/>
	<path class="st4" d="M1562,422.5h17.5v1.9h-15.3v26.5h12.8v1.9h-12.8v16.6h15.3v1.9H1562V422.5z"/>
	<path class="st4" d="M1606.9,422.5v1.9h-11.1v46.9h-2.1v-46.9h-11.2v-1.9H1606.9z"/>
	<path class="st4" d="M1613.4,422.5h2.1v48.8h-2.1V422.5z"/>
	<path class="st4" d="M1661.5,422.5h1.9V472l-35.9-44.1v43.4h-1.9v-49.5l35.9,44.1V422.5z"/>
	<path class="st4" d="M1691.4,452.7v-1.9h18.3v17.6c-3.8,2.4-8.1,3.6-12.9,3.6h-0.7c-4.5,0-8.6-1.2-12.5-3.5s-6.9-5.4-9.1-9.3
		s-3.3-8-3.3-12.4c0-6.9,2.5-12.8,7.5-17.8s10.9-7.4,17.9-7.4c4.6,0,9,1.2,13.2,3.6v2.4c-4.1-2.8-8.5-4.2-13.2-4.2
		c-6.4,0-11.8,2.3-16.4,6.9c-4.5,4.6-6.8,10.1-6.8,16.4s2.3,11.9,6.8,16.5s10,6.9,16.4,6.9c3.6,0,7.2-0.9,11-2.7v-14.7H1691.4z"/>
</g>
<g>
	<g>
		<path class="st2" d="M165.2,904.8h-3.8c0-37.6,23.1-81.2,87.8-81.2c62.7,0,85-39.9,85-77.5h3.8c0,39.4-23.3,81.2-88.8,81.2
			C187.3,827.4,165.2,869,165.2,904.8z"/>
	</g>
	<g>
		<rect x="161.5" y="823.6" class="st2" width="174.5" height="3.8"/>
	</g>
	<circle class="st1" cx="162.5" cy="825.4" r="12.5"/>
	<circle class="st1" cx="336" cy="825.4" r="12.5"/>
	<path class="st1" d="M259,837.9h-19.3c-1.5,0-2.8-1.3-2.8-2.8v-19.3c0-1.5,1.3-2.8,2.8-2.8H259c1.5,0,2.8,1.3,2.8,2.8v19.3
		C261.8,836.6,260.5,837.9,259,837.9z"/>
	<path class="st1" d="M345.8,749.4h-19.3c-1.5,0-2.8-1.3-2.8-2.8v-19.3c0-1.5,1.3-2.8,2.8-2.8h19.3c1.5,0,2.8,1.3,2.8,2.8v19.3
		C348.5,748.4,347.3,749.4,345.8,749.4z"/>
	<path class="st1" d="M172.3,926.2H153c-1.5,0-2.8-1.3-2.8-2.8v-19.3c0-1.5,1.3-2.8,2.8-2.8h19.3c1.5,0,2.8,1.3,2.8,2.8v19.3
		C175,925.2,173.8,926.2,172.3,926.2z"/>
	<path class="st2" d="M281.3,974.6h-64.7c-4.8,0-8.5-3.8-8.5-8.5l0,0c0-4.8,3.8-8.5,8.5-8.5h64.7c4.8,0,8.5,3.8,8.5,8.5l0,0
		C289.9,970.8,286.1,974.6,281.3,974.6z"/>
	<path class="st2" d="M251.8,911.6v-43.4l37.4,59.2l-17.3,30.3h5.3l16.5-29.3v-0.3c0-0.3,0-0.3,0.3-0.5c0.3-0.3,0-0.3,0-0.5
		c0-0.3,0-0.3,0-0.5c0-0.3,0-0.3-0.3-0.5v-0.3l-42.4-66.7l0,0c0,0,0-0.3-0.3-0.3l-0.3-0.3c0,0,0-0.3-0.3-0.3l0,0c0,0,0,0-0.3,0
		c0,0-0.3,0-0.3-0.3h-0.3h-0.3c0,0,0,0-0.3,0c0,0,0,0-0.3,0s-0.3,0-0.3,0H248c0,0-0.3,0-0.3,0.3c0,0,0,0-0.3,0l0,0
		c0,0,0,0.3-0.3,0.3l-0.3,0.3c0,0,0,0-0.3,0.3l0,0l-42.4,66.7v0.3c0,0.3,0,0.3-0.3,0.5c0,0.3,0,0.3,0,0.5c0,0.3,0,0.3,0,0.5
		c0,0.3,0,0.3,0.3,0.5v0.3l16.5,29.3h5.5L209,927.4l37.4-59.2v43.4H251.8L251.8,911.6z"/>
	<circle class="st1" cx="249.2" cy="921.6" r="12.8"/>
</g>
<g class="st3">
	<path d="M466.8,825.3h2.1c7.3,0,13.2,2.4,17.6,7.2s6.7,10.5,6.7,17.2s-2.2,12.4-6.7,17.2c-4.4,4.8-10.3,7.2-17.6,7.2h-2.1V825.3z
		 M469.4,827.2h-0.5V872h0.5c6.3,0,11.5-2.2,15.6-6.6c4.1-4.4,6.1-9.6,6.1-15.8c0-6.1-2-11.4-6.1-15.8S475.7,827.2,469.4,827.2z"/>
	<path d="M501,825.3h17.5v1.9h-15.3v26.5H516v1.9h-12.8v16.6h15.3v1.9H501V825.3z"/>
	<path d="M540.5,827.9c-1.7-1-3.6-1.6-5.8-1.6c-2.1,0-3.9,0.7-5.4,2s-2.2,3.1-2.2,5.4v0.3c0,2.7,1.5,5.2,4.5,7.5
		c1.3,1,2.8,1.9,4.4,2.8c1.6,0.9,3.3,1.9,4.9,3s3.1,2.2,4.4,3.4s2.4,2.7,3.3,4.4c0.8,1.7,1.3,3.6,1.3,5.7v0.7c0,4.1-1.4,7.4-4.2,9.8
		c-2.8,2.4-6.3,3.6-10.4,3.6c-5.4,0-9.6-2.2-12.6-6.7v-3.5c1.1,2.5,2.8,4.5,5,6s4.9,2.3,8.2,2.3s6.1-1,8.5-3.1s3.6-4.9,3.6-8.3v-0.4
		c0-2.2-0.6-4.1-1.7-5.9c-1.1-1.8-2.5-3.3-4.2-4.4c-1.7-1.1-3.5-2.3-5.5-3.6s-3.8-2.4-5.5-3.5s-3.1-2.4-4.2-4.1
		c-1.1-1.6-1.7-3.4-1.7-5.4v-0.5c0-3,1-5.4,2.9-7s4.4-2.4,7.2-2.4c4,0,7.2,1.5,9.5,4.4v3.3C543.6,830.4,542.3,828.9,540.5,827.9z"/>
	<path d="M557.7,825.3h2.1v48.8h-2.1V825.3z"/>
	<path d="M588.2,855.4v-1.9h18.3v17.6c-3.8,2.4-8.1,3.6-12.9,3.6h-0.7c-4.5,0-8.6-1.2-12.5-3.5s-6.9-5.4-9.1-9.3
		c-2.2-3.9-3.3-8-3.3-12.4c0-6.9,2.5-12.8,7.5-17.8s10.9-7.4,17.9-7.4c4.6,0,9,1.2,13.2,3.6v2.4c-4.1-2.8-8.5-4.2-13.2-4.2
		c-6.4,0-11.8,2.3-16.4,6.9c-4.5,4.6-6.8,10.1-6.8,16.4s2.3,11.9,6.8,16.5c4.6,4.6,10,6.9,16.4,6.9c3.6,0,7.2-0.9,11-2.7v-14.7
		H588.2z"/>
	<path d="M650.8,825.3h1.9v49.5l-35.9-44.1v43.4h-1.9v-49.5l35.9,44.1V825.3z"/>
</g>
<g class="st3">
	<path class="st4" d="M466.8,825.3h2.1c7.3,0,13.2,2.4,17.6,7.2s6.7,10.5,6.7,17.2s-2.2,12.4-6.7,17.2c-4.4,4.8-10.3,7.2-17.6,7.2
		h-2.1V825.3z M469.4,827.2h-0.5V872h0.5c6.3,0,11.5-2.2,15.6-6.6c4.1-4.4,6.1-9.6,6.1-15.8c0-6.1-2-11.4-6.1-15.8
		S475.7,827.2,469.4,827.2z"/>
	<path class="st4" d="M501,825.3h17.5v1.9h-15.3v26.5H516v1.9h-12.8v16.6h15.3v1.9H501V825.3z"/>
	<path class="st4" d="M540.5,827.9c-1.7-1-3.6-1.6-5.8-1.6c-2.1,0-3.9,0.7-5.4,2s-2.2,3.1-2.2,5.4v0.3c0,2.7,1.5,5.2,4.5,7.5
		c1.3,1,2.8,1.9,4.4,2.8c1.6,0.9,3.3,1.9,4.9,3s3.1,2.2,4.4,3.4s2.4,2.7,3.3,4.4c0.8,1.7,1.3,3.6,1.3,5.7v0.7c0,4.1-1.4,7.4-4.2,9.8
		c-2.8,2.4-6.3,3.6-10.4,3.6c-5.4,0-9.6-2.2-12.6-6.7v-3.5c1.1,2.5,2.8,4.5,5,6s4.9,2.3,8.2,2.3s6.1-1,8.5-3.1s3.6-4.9,3.6-8.3v-0.4
		c0-2.2-0.6-4.1-1.7-5.9c-1.1-1.8-2.5-3.3-4.2-4.4c-1.7-1.1-3.5-2.3-5.5-3.6s-3.8-2.4-5.5-3.5s-3.1-2.4-4.2-4.1
		c-1.1-1.6-1.7-3.4-1.7-5.4v-0.5c0-3,1-5.4,2.9-7s4.4-2.4,7.2-2.4c4,0,7.2,1.5,9.5,4.4v3.3C543.6,830.4,542.3,828.9,540.5,827.9z"/>
	<path class="st4" d="M557.7,825.3h2.1v48.8h-2.1V825.3z"/>
	<path class="st4" d="M588.2,855.4v-1.9h18.3v17.6c-3.8,2.4-8.1,3.6-12.9,3.6h-0.7c-4.5,0-8.6-1.2-12.5-3.5s-6.9-5.4-9.1-9.3
		c-2.2-3.9-3.3-8-3.3-12.4c0-6.9,2.5-12.8,7.5-17.8s10.9-7.4,17.9-7.4c4.6,0,9,1.2,13.2,3.6v2.4c-4.1-2.8-8.5-4.2-13.2-4.2
		c-6.4,0-11.8,2.3-16.4,6.9c-4.5,4.6-6.8,10.1-6.8,16.4s2.3,11.9,6.8,16.5c4.6,4.6,10,6.9,16.4,6.9c3.6,0,7.2-0.9,11-2.7v-14.7
		H588.2z"/>
	<path class="st4" d="M650.8,825.3h1.9v49.5l-35.9-44.1v43.4h-1.9v-49.5l35.9,44.1V825.3z"/>
</g>
<g>
	<g>
		<path class="st2" d="M1291.7,749.6h-240.8c-7.8,0-12.4,4.6-12.4,12.4v173.2c0,7.8,6.6,14.4,14.4,14.4h236.8
			c7.8,0,14.4-6.6,14.4-14.4V762C1304.1,754.2,1299.7,749.6,1291.7,749.6z M1117.5,758.6h95.8c2.2,0,3.8,1.6,3.8,3.8
			s-1.6,3.8-3.8,3.8h-95.8c-2.2,0-3.8-1.6-3.8-3.8S1115.3,758.6,1117.5,758.6z M1081.9,758.6c2.2,0,3.8,1.6,3.8,3.8
			s-1.6,3.8-3.8,3.8c-2.2,0-3.8-1.6-3.8-3.8S1079.7,758.6,1081.9,758.6z M1069.1,758.6c2.2,0,3.8,1.6,3.8,3.8s-1.6,3.8-3.8,3.8
			s-3.8-1.6-3.8-3.8S1067.3,758.6,1069.1,758.6z M1056.7,758.6c2.2,0,3.8,1.6,3.8,3.8s-1.6,3.8-3.8,3.8s-3.8-1.6-3.8-3.8
			S1054.5,758.6,1056.7,758.6z M1296.9,935.4c0,3.8-3.4,6.8-7.2,6.8h-236.8c-3.8,0-6.8-3-6.8-6.8V775h250.8V935.4z"/>
	</g>
	<g>
		<path class="st1" d="M1194.9,832.6L1194.9,832.6c-1,1-1,2.6,0,3.6l22.2,22.4l-22.4,22.4c-1,1-1,2.6,0,3.6l0,0c1,1,2.6,1,3.6,0
			l24.2-24.2c1-1,1-2.6,0-3.6l0,0l-24-24.2C1197.7,831.6,1195.9,831.6,1194.9,832.6z"/>
		<path class="st1" d="M1148.3,832.8c-1-1-2.8-1-3.8,0l-24,24c-1,1-1,2.6,0,3.6l0,0l24.2,24.2c1,1,2.6,1,3.6,0l0,0c1-1,1-2.6,0-3.6
			l-22.4-22.4l22.2-22.2C1149.3,835.4,1149.3,833.8,1148.3,832.8L1148.3,832.8z"/>
		<path class="st1" d="M1154.3,907.2l29.6-98.8c0.4-1.4,1.8-2.2,3.2-1.8l0,0c1.4,0.4,2.2,1.8,1.8,3.2l-29.6,98.8
			c-0.4,1.4-1.8,2.2-3.2,1.8l0,0C1154.5,910.2,1153.7,908.6,1154.3,907.2z"/>
	</g>
</g>
<g class="st3">
	<path d="M1386,825.1h2.1c7.3,0,13.2,2.4,17.6,7.2c4.5,4.8,6.7,10.5,6.7,17.2s-2.2,12.4-6.7,17.2c-4.4,4.8-10.3,7.2-17.6,7.2h-2.1
		V825.1L1386,825.1z M1388.6,827h-0.5v44.8h0.5c6.3,0,11.5-2.2,15.6-6.6c4.1-4.4,6.1-9.6,6.1-15.8c0-6.1-2-11.4-6.1-15.8
		C1400.1,829.2,1394.9,827,1388.6,827z"/>
	<path d="M1420.2,825.1h17.5v1.9h-15.3v26.5h12.8v1.9h-12.8V872h15.3v1.9h-17.5V825.1z"/>
	<path d="M1464.8,874.9l-24.2-49.8h2.3l22.1,45.2l22-45.2h2.1L1464.8,874.9z"/>
	<path d="M1495.2,825.1h17.5v1.9h-15.3v26.5h12.8v1.9h-12.8V872h15.3v1.9h-17.5V825.1z"/>
	<path d="M1521.4,825.1V872h15.1v1.9h-17.2v-48.8L1521.4,825.1L1521.4,825.1z"/>
	<path d="M1540.9,867.1c-4.9-5.1-7.4-11-7.4-17.8s2.5-12.7,7.5-17.6c5-5,11-7.4,17.9-7.4c7,0,12.9,2.5,17.9,7.4
		c4.9,4.9,7.4,10.8,7.4,17.6s-2.4,12.8-7.3,17.8s-10.7,7.6-17.5,7.6h-1C1551.6,874.7,1545.8,872.1,1540.9,867.1z M1582.1,849.4
		c0-6.4-2.3-11.9-6.8-16.4c-4.5-4.6-10-6.9-16.4-6.9s-11.9,2.3-16.4,6.9c-4.5,4.6-6.8,10.1-6.8,16.4s2.3,11.9,6.8,16.5
		s10,6.9,16.4,6.9s11.8-2.3,16.4-6.9C1579.8,861.3,1582.1,855.8,1582.1,849.4z"/>
	<path d="M1592,825.1h2.1c4.5,0,8.3,1.5,11.5,4.6c3.2,3.1,4.7,6.8,4.7,11s-1.6,7.8-4.9,10.9c-3.3,3-6.9,4.5-10.8,4.5h-0.5v17.7h-2.1
		V825.1z M1594.1,854.3h0.5c3.6,0,6.8-1.3,9.5-4c2.7-2.7,4.1-5.9,4.1-9.6c0-3.7-1.4-6.9-4.1-9.6c-2.8-2.7-5.9-4.1-9.5-4.1h-0.5
		V854.3z"/>
	<path d="M1667.4,825.1v48.8h-2.1v-46.2l-23,47.1l-22.9-47.1v46.2h-2v-48.8h3.1l21.9,45l22-45H1667.4z"/>
	<path d="M1677.1,825.1h17.5v1.9h-15.3v26.5h12.8v1.9h-12.8V872h15.3v1.9h-17.5V825.1z"/>
	<path d="M1737,825.1h1.9v49.5l-35.9-44.1v43.4h-1.9v-49.5l35.9,44.1V825.1z"/>
	<path d="M1769.5,825.1v1.9h-11.1v46.9h-2.1V827h-11.2v-1.9H1769.5z"/>
</g>
<g class="st3">
	<path class="st4" d="M1386,825.1h2.1c7.3,0,13.2,2.4,17.6,7.2c4.5,4.8,6.7,10.5,6.7,17.2s-2.2,12.4-6.7,17.2
		c-4.4,4.8-10.3,7.2-17.6,7.2h-2.1V825.1L1386,825.1z M1388.6,827h-0.5v44.8h0.5c6.3,0,11.5-2.2,15.6-6.6c4.1-4.4,6.1-9.6,6.1-15.8
		c0-6.1-2-11.4-6.1-15.8C1400.1,829.2,1394.9,827,1388.6,827z"/>
	<path class="st4" d="M1420.2,825.1h17.5v1.9h-15.3v26.5h12.8v1.9h-12.8V872h15.3v1.9h-17.5V825.1z"/>
	<path class="st4" d="M1464.8,874.9l-24.2-49.8h2.3l22.1,45.2l22-45.2h2.1L1464.8,874.9z"/>
	<path class="st4" d="M1495.2,825.1h17.5v1.9h-15.3v26.5h12.8v1.9h-12.8V872h15.3v1.9h-17.5V825.1z"/>
	<path class="st4" d="M1521.4,825.1V872h15.1v1.9h-17.2v-48.8L1521.4,825.1L1521.4,825.1z"/>
	<path class="st4" d="M1540.9,867.1c-4.9-5.1-7.4-11-7.4-17.8s2.5-12.7,7.5-17.6c5-5,11-7.4,17.9-7.4c7,0,12.9,2.5,17.9,7.4
		c4.9,4.9,7.4,10.8,7.4,17.6s-2.4,12.8-7.3,17.8s-10.7,7.6-17.5,7.6h-1C1551.6,874.7,1545.8,872.1,1540.9,867.1z M1582.1,849.4
		c0-6.4-2.3-11.9-6.8-16.4c-4.5-4.6-10-6.9-16.4-6.9s-11.9,2.3-16.4,6.9c-4.5,4.6-6.8,10.1-6.8,16.4s2.3,11.9,6.8,16.5
		s10,6.9,16.4,6.9s11.8-2.3,16.4-6.9C1579.8,861.3,1582.1,855.8,1582.1,849.4z"/>
	<path class="st4" d="M1592,825.1h2.1c4.5,0,8.3,1.5,11.5,4.6c3.2,3.1,4.7,6.8,4.7,11s-1.6,7.8-4.9,10.9c-3.3,3-6.9,4.5-10.8,4.5
		h-0.5v17.7h-2.1V825.1z M1594.1,854.3h0.5c3.6,0,6.8-1.3,9.5-4c2.7-2.7,4.1-5.9,4.1-9.6c0-3.7-1.4-6.9-4.1-9.6
		c-2.8-2.7-5.9-4.1-9.5-4.1h-0.5V854.3z"/>
	<path class="st4" d="M1667.4,825.1v48.8h-2.1v-46.2l-23,47.1l-22.9-47.1v46.2h-2v-48.8h3.1l21.9,45l22-45H1667.4z"/>
	<path class="st4" d="M1677.1,825.1h17.5v1.9h-15.3v26.5h12.8v1.9h-12.8V872h15.3v1.9h-17.5V825.1z"/>
	<path class="st4" d="M1737,825.1h1.9v49.5l-35.9-44.1v43.4h-1.9v-49.5l35.9,44.1V825.1z"/>
	<path class="st4" d="M1769.5,825.1v1.9h-11.1v46.9h-2.1V827h-11.2v-1.9H1769.5z"/>
</g>
<g>
	<path class="st2" d="M813.9,218.5l44.9-44.9l-15.3-67.2c-15.1-4.8-20.6-5.7-29.6-6.3l-11.4,113l-40.2-40.2l14.7-64.5
		c14.6-4.5,18.8-5.1,27.5-5.8V100c-9,0.6-14.4,1.6-29.6,6.3l-15.3,67.2l44.9,44.9l11.7-115.9c7.3,0.6,12.1,1.6,25.3,5.6l14.7,64.5
		L813.9,215V218.5z"/>
	<g>
		<path class="st2" d="M879,158.8l20.1-11.9v2.5l-17.4,10.4l17.4,10.5v2.6L879,160.7V158.8z"/>
		<path class="st2" d="M1055.5,131h2.5l-35.9,48.9h-2.4L1055.5,131z"/>
		<path class="st2" d="M1140.2,146.9l20.1,12v1.9l-20.1,12.1v-2.6l17.4-10.5l-17.4-10.4V146.9z"/>
	</g>
	<path class="st1" d="M809.2,131c-4.1,0-7.5,3.4-7.5,7.5V161c0,4.1,3.4,7.5,7.5,7.5s7.5-3.4,7.5-7.5v-22.5
		C816.7,134.3,813.4,131,809.2,131z"/>
	<g>
		<path d="M931,131v41.9h-1.7v-6.6c-1.1,2-2.6,3.6-4.7,4.8c-2.1,1.2-4.2,1.8-6.3,1.8c-3.6,0-6.6-1.3-9.1-3.8s-3.8-5.6-3.8-9.2
			c0-3.6,1.3-6.6,3.8-9.2c2.5-2.5,5.5-3.8,9.1-3.8c2.2,0,4.4,0.6,6.5,1.8s3.6,2.8,4.6,4.8V131H931z M907,159.9c0,3.1,1.1,5.8,3.2,8
			s4.8,3.4,7.8,3.4s5.7-1.1,7.9-3.4c2.2-2.3,3.3-4.9,3.3-8s-1.1-5.8-3.3-8.1s-4.8-3.4-7.9-3.4s-5.6,1.1-7.8,3.4
			C908.1,154.1,907,156.8,907,159.9z"/>
		<path d="M950.4,172.8h-0.5c-3.4,0-6.4-1.3-9-3.9c-2.5-2.6-3.8-5.7-3.8-9.2s1.3-6.5,3.8-9s5.6-3.8,9.4-3.8s6.9,1.5,9.6,4.5l-17,17
			c2.3,1.9,4.6,2.9,6.8,2.9s4.1-0.5,5.8-1.5s3.1-2.4,4.4-4.2v2.8C957.2,171.4,954.1,172.8,950.4,172.8z M949.9,148.4
			c-2.9,0-5.4,1.1-7.6,3.4c-2.2,2.3-3.3,4.8-3.3,7.8c0,2.9,1,5.5,2.9,7.7l15.7-15.9C955.3,149.4,952.7,148.4,949.9,148.4z"/>
		<path d="M967.8,172.8h-1.7v-26h1.7v5.6c1.8-3.7,5-5.6,9.4-5.6c3,0,5.6,1.1,7.6,3.2c2.1,2.1,3.1,4.7,3.1,7.8v15h-1.7v-15
			c0-2.5-0.9-4.7-2.6-6.6c-1.8-1.9-3.9-2.8-6.4-2.8s-4.7,0.9-6.6,2.8c-1.9,1.9-2.8,4.1-2.8,6.6V172.8z"/>
		<path d="M995,141.5c-1,0-1.6-0.5-1.6-1.5s0.5-1.5,1.6-1.5s1.6,0.5,1.6,1.5S996.1,141.5,995,141.5z M995.9,146.9v26h-1.7v-26H995.9
			z"/>
		<path d="M1015.4,172.8h-0.5c-3.4,0-6.4-1.3-9-3.9c-2.5-2.6-3.8-5.7-3.8-9.2s1.3-6.5,3.8-9s5.6-3.8,9.4-3.8s6.9,1.5,9.6,4.5l-17,17
			c2.3,1.9,4.6,2.9,6.8,2.9s4.1-0.5,5.8-1.5s3.1-2.4,4.4-4.2v2.8C1022.1,171.4,1019,172.8,1015.4,172.8z M1014.8,148.4
			c-2.9,0-5.4,1.1-7.6,3.4c-2.2,2.3-3.3,4.8-3.3,7.8c0,2.9,1,5.5,2.9,7.7l15.7-15.9C1020.2,149.4,1017.7,148.4,1014.8,148.4z"/>
		<path d="M1077,131v41.9h-1.7v-6.6c-1.1,2-2.6,3.6-4.7,4.8s-4.2,1.8-6.3,1.8c-3.6,0-6.6-1.3-9.1-3.8s-3.8-5.6-3.8-9.2
			c0-3.6,1.3-6.6,3.8-9.2c2.5-2.5,5.5-3.8,9.1-3.8c2.2,0,4.4,0.6,6.5,1.8s3.6,2.8,4.6,4.8V131H1077z M1053.1,159.9
			c0,3.1,1.1,5.8,3.2,8s4.8,3.4,7.8,3.4s5.7-1.1,7.9-3.4c2.2-2.3,3.3-4.9,3.3-8s-1.1-5.8-3.3-8.1c-2.2-2.3-4.8-3.4-7.9-3.4
			s-5.6,1.1-7.8,3.4C1054.2,154.1,1053.1,156.8,1053.1,159.9z"/>
		<path d="M1096.5,172.8h-0.5c-3.4,0-6.4-1.3-9-3.9c-2.5-2.6-3.8-5.7-3.8-9.2s1.3-6.5,3.8-9s5.6-3.8,9.4-3.8s6.9,1.5,9.6,4.5l-17,17
			c2.3,1.9,4.6,2.9,6.8,2.9s4.1-0.5,5.8-1.5c1.7-1,3.1-2.4,4.4-4.2v2.8C1103.2,171.4,1100.1,172.8,1096.5,172.8z M1095.9,148.4
			c-2.9,0-5.4,1.1-7.6,3.4c-2.2,2.3-3.3,4.8-3.3,7.8c0,2.9,1,5.5,2.9,7.7l15.7-15.9C1101.3,149.4,1098.8,148.4,1095.9,148.4z"/>
		<path d="M1113.9,172.8h-1.7v-26h1.7v5.6c1.8-3.7,5-5.6,9.4-5.6c3,0,5.6,1.1,7.6,3.2c2.1,2.1,3.1,4.7,3.1,7.8v15h-1.7v-15
			c0-2.5-0.9-4.7-2.6-6.6c-1.8-1.9-3.9-2.8-6.4-2.8s-4.7,0.9-6.6,2.8c-1.9,1.9-2.8,4.1-2.8,6.6V172.8z"/>
	</g>
</g>
</svg>
